<?xml version="1.0" encoding="UTF-8" standalone="no"?>
<!-- Created with Inkscape (http://www.inkscape.org/) -->

<svg
   width="1000"
   height="1000"
   viewBox="0 0 264.58333 264.58333"
   version="1.1"
   id="svg1131"
   sodipodi:docname="3.svg"
   inkscape:version="1.1.1 (3bf5ae0d25, 2021-09-20)"
   xmlns:inkscape="http://www.inkscape.org/namespaces/inkscape"
   xmlns:sodipodi="http://sodipodi.sourceforge.net/DTD/sodipodi-0.dtd"
   xmlns="http://www.w3.org/2000/svg"
   xmlns:svg="http://www.w3.org/2000/svg">
  <sodipodi:namedview
     id="namedview1133"
     pagecolor="#ffffff"
     bordercolor="#666666"
     borderopacity="1.0"
     inkscape:pageshadow="2"
     inkscape:pageopacity="0.0"
     inkscape:pagecheckerboard="0"
     inkscape:document-units="mm"
     showgrid="false"
     units="px"
     fit-margin-top="0"
     fit-margin-left="0"
     fit-margin-right="0"
     fit-margin-bottom="0"
     inkscape:zoom="0.5"
     inkscape:cx="396"
     inkscape:cy="379"
     inkscape:window-width="1920"
     inkscape:window-height="1017"
     inkscape:window-x="-8"
     inkscape:window-y="-8"
     inkscape:window-maximized="1"
     inkscape:current-layer="layer1"
     inkscape:snap-bbox="true"
     inkscape:snap-global="true"
     inkscape:bbox-paths="true"
     inkscape:object-paths="false"
     inkscape:snap-intersection-paths="false"
     inkscape:object-nodes="false"
     inkscape:snap-smooth-nodes="false"
     inkscape:snap-midpoints="false"
     inkscape:snap-object-midpoints="false"
     inkscape:snap-page="true"
     inkscape:bbox-nodes="true"
     inkscape:snap-bbox-edge-midpoints="true"
     inkscape:snap-bbox-midpoints="true" />
  <defs
     id="defs1128" />
  <g
     inkscape:label="Camada 1"
     inkscape:groupmode="layer"
     id="layer1"
     transform="translate(-722.81113,-105.92288)">
    <path
       d="m 833.3028,302.21661 c -7.18477,-3.9395 -10.92779,-8.05921 -13.54204,-14.90449 -2.9413,-7.70132 -1.9162,-13.05848 3.13114,-16.36566 5.36087,-3.51261 10.4749,-1.61797 15.00579,5.55932 3.60052,5.70368 4.20104,6.04559 9.19327,5.23548 12.28462,-1.99353 22.45459,-16.04261 23.80668,-32.8871 0.67115,-8.35998 0.41198,-9.85823 -1.85749,-10.72901 -1.45053,-0.55662 -3.45757,-0.40297 -4.45988,0.34162 -7.82046,5.80977 -9.98244,6.81399 -13.02516,6.04998 -5.40899,-1.35817 -8.46955,-4.37241 -9.43505,-9.29204 -0.77972,-3.97271 0.076,-5.71804 6.30853,-12.87123 6.78377,-7.78535 17.61994,-26.22761 16.22839,-27.61915 -0.3495,-0.34951 -2.16766,0.43842 -4.0408,1.7505 -10.42791,7.30392 -24.55381,-5.99887 -17.13851,-16.13986 2.63288,-3.60057 15.21263,-8.27572 22.27229,-8.27724 7.78416,-0.001 16.29407,4.70261 19.59495,10.83189 3.43522,6.37877 2.66203,13.62545 -2.70554,25.36043 l -3.89132,8.5072 5.85947,5.85947 c 6.92295,6.92301 8.24392,12.15404 7.1143,28.17357 -1.07361,15.22288 -5.40781,26.04993 -14.52138,36.27522 -12.5542,14.08544 -32.97643,21.1294 -43.89764,15.14105 z"
       style="fill:#000000;stroke-width:1.4891"
       id="path1598" />
  </g>
</svg>
