<?xml version="1.0" encoding="UTF-8" standalone="no"?>
<!-- Created with Inkscape (http://www.inkscape.org/) -->

<svg
   width="1000"
   height="1000"
   viewBox="0 0 264.58333 264.58333"
   version="1.1"
   id="svg1131"
   sodipodi:docname="5.svg"
   inkscape:version="1.1.1 (3bf5ae0d25, 2021-09-20)"
   xmlns:inkscape="http://www.inkscape.org/namespaces/inkscape"
   xmlns:sodipodi="http://sodipodi.sourceforge.net/DTD/sodipodi-0.dtd"
   xmlns="http://www.w3.org/2000/svg"
   xmlns:svg="http://www.w3.org/2000/svg">
  <sodipodi:namedview
     id="namedview1133"
     pagecolor="#ffffff"
     bordercolor="#666666"
     borderopacity="1.0"
     inkscape:pageshadow="2"
     inkscape:pageopacity="0.0"
     inkscape:pagecheckerboard="0"
     inkscape:document-units="mm"
     showgrid="false"
     units="px"
     fit-margin-top="0"
     fit-margin-left="0"
     fit-margin-right="0"
     fit-margin-bottom="0"
     inkscape:zoom="0.5"
     inkscape:cx="396"
     inkscape:cy="379"
     inkscape:window-width="1920"
     inkscape:window-height="1017"
     inkscape:window-x="-8"
     inkscape:window-y="-8"
     inkscape:window-maximized="1"
     inkscape:current-layer="layer1"
     inkscape:snap-bbox="true"
     inkscape:snap-global="true"
     inkscape:bbox-paths="true"
     inkscape:object-paths="false"
     inkscape:snap-intersection-paths="false"
     inkscape:object-nodes="false"
     inkscape:snap-smooth-nodes="false"
     inkscape:snap-midpoints="false"
     inkscape:snap-object-midpoints="false"
     inkscape:snap-page="true"
     inkscape:bbox-nodes="true"
     inkscape:snap-bbox-edge-midpoints="true"
     inkscape:snap-bbox-midpoints="true" />
  <defs
     id="defs1128" />
  <g
     inkscape:label="Camada 1"
     inkscape:groupmode="layer"
     id="layer1"
     transform="translate(-722.81113,-105.92288)">
    <path
       d="m 836.20154,303.56763 c -10.6739,-3.30748 -20.06024,-19.24208 -20.06024,-34.05484 0,-15.60776 9.97231,-23.97421 18.45951,-15.48701 3.06113,3.06118 3.55797,4.92913 3.49494,13.14047 -0.0742,9.63209 1.82667,15.75651 4.8897,15.75651 3.19192,0 11.8779,-7.83391 16.16768,-14.58151 4.81139,-7.56832 10.89348,-25.7576 9.41351,-28.15239 -1.3846,-2.24024 -11.23968,-1.8796 -18.48428,0.67643 -8.51437,3.00413 -13.78561,2.78142 -16.9507,-0.71581 -2.06254,-2.27922 -3.12003,-7.93074 -4.76314,-25.45586 -1.39542,-14.88348 -2.8266,-23.31681 -4.21823,-24.85607 -2.90719,-3.21585 -2.64137,-10.75935 0.47632,-13.51332 2.40215,-2.12189 15.3836,-3.02973 60.82246,-4.25336 8.36238,-0.22533 11.7533,11.73723 5.1008,17.99452 -3.55417,3.3429 -5.05807,3.60956 -22.93329,4.06495 l -19.1297,0.48747 0.4289,11.31821 0.42891,11.31815 11.59205,-0.37592 c 13.87842,-0.4501 20.93089,2.67171 25.86436,11.44961 9.99535,17.78441 -6.95441,58.18996 -30.02714,71.57985 -7.11074,4.1267 -14.70584,5.47795 -20.57225,3.66004 z"
       style="fill:#000000;stroke-width:1.4757"
       id="path1622" />
  </g>
</svg>
