<?xml version="1.0" encoding="UTF-8" standalone="no"?>
<!-- Created with Inkscape (http://www.inkscape.org/) -->

<svg
   width="1000"
   height="1000"
   viewBox="0 0 264.58333 264.58333"
   version="1.1"
   id="svg1131"
   sodipodi:docname="7.svg"
   inkscape:version="1.1.1 (3bf5ae0d25, 2021-09-20)"
   xmlns:inkscape="http://www.inkscape.org/namespaces/inkscape"
   xmlns:sodipodi="http://sodipodi.sourceforge.net/DTD/sodipodi-0.dtd"
   xmlns="http://www.w3.org/2000/svg"
   xmlns:svg="http://www.w3.org/2000/svg">
  <sodipodi:namedview
     id="namedview1133"
     pagecolor="#ffffff"
     bordercolor="#666666"
     borderopacity="1.0"
     inkscape:pageshadow="2"
     inkscape:pageopacity="0.0"
     inkscape:pagecheckerboard="0"
     inkscape:document-units="mm"
     showgrid="false"
     units="px"
     fit-margin-top="0"
     fit-margin-left="0"
     fit-margin-right="0"
     fit-margin-bottom="0"
     inkscape:zoom="0.5"
     inkscape:cx="396"
     inkscape:cy="379"
     inkscape:window-width="1920"
     inkscape:window-height="1017"
     inkscape:window-x="-8"
     inkscape:window-y="-8"
     inkscape:window-maximized="1"
     inkscape:current-layer="layer1"
     inkscape:snap-bbox="true"
     inkscape:snap-global="true"
     inkscape:bbox-paths="true"
     inkscape:object-paths="false"
     inkscape:snap-intersection-paths="false"
     inkscape:object-nodes="false"
     inkscape:snap-smooth-nodes="false"
     inkscape:snap-midpoints="false"
     inkscape:snap-object-midpoints="false"
     inkscape:snap-page="true"
     inkscape:bbox-nodes="true"
     inkscape:snap-bbox-edge-midpoints="true"
     inkscape:snap-bbox-midpoints="true" />
  <defs
     id="defs1128" />
  <g
     inkscape:label="Camada 1"
     inkscape:groupmode="layer"
     id="layer1"
     transform="translate(-722.81113,-105.92288)">
    <path
       d="m 835.33031,301.58369 c -2.9402,-2.38217 -3.3778,-3.89825 -3.0888,-10.69934 0.1865,-4.35828 1.2702,-11.92438 2.4103,-16.81386 l 2.0742,-8.88991 h -5.4799 c -11.5341,0 -17.0442,-10.58993 -10.1016,-19.41573 2.7965,-3.5552 3.7486,-3.81642 12.6101,-3.4606 l 9.5855,0.385 5.2633,-15.33156 c 2.8952,-8.4324 6.3569,-18.06379 7.6928,-21.40313 l 2.4296,-6.07152 h -13.0944 c -15.5612,0 -21.9778,-2.21385 -25.3567,-8.74825 -6.4007,-12.37683 9.4999,-25.87324 17.9003,-15.19417 3.3569,4.26767 9.49,4.6734 29.1398,1.92757 l 12.1927,-1.70381 3.4057,3.95945 c 3.9795,4.62613 4.2142,7.01339 1.2071,12.28003 -2.1783,3.81484 -16.6618,41.61634 -16.6679,43.50168 0,0.53856 4.1895,0.76281 9.3135,0.49798 7.8914,-0.40749 9.778,-0.0165 12.3369,2.5394 1.6612,1.6613 3.0208,4.86579 3.0208,7.12088 0,6.63657 -4.9074,9.67263 -18.7202,11.58205 -6.7051,0.92679 -12.4982,1.99261 -12.8738,2.36829 -2.3331,2.33346 -6.0712,21.12058 -5.2743,26.50908 1.9793,13.38167 -10.4251,22.75737 -19.925,15.06036 z"
       style="fill:#000000;stroke-width:1.45106"
       id="path1646" />
  </g>
</svg>
