<?xml version="1.0" encoding="UTF-8" standalone="no"?>
<!-- Created with Inkscape (http://www.inkscape.org/) -->

<svg
   width="1000"
   height="1000"
   viewBox="0 0 264.58333 264.58333"
   version="1.1"
   id="svg1131"
   sodipodi:docname="8.svg"
   inkscape:version="1.1.1 (3bf5ae0d25, 2021-09-20)"
   xmlns:inkscape="http://www.inkscape.org/namespaces/inkscape"
   xmlns:sodipodi="http://sodipodi.sourceforge.net/DTD/sodipodi-0.dtd"
   xmlns="http://www.w3.org/2000/svg"
   xmlns:svg="http://www.w3.org/2000/svg">
  <sodipodi:namedview
     id="namedview1133"
     pagecolor="#ffffff"
     bordercolor="#666666"
     borderopacity="1.0"
     inkscape:pageshadow="2"
     inkscape:pageopacity="0.0"
     inkscape:pagecheckerboard="0"
     inkscape:document-units="mm"
     showgrid="false"
     units="px"
     fit-margin-top="0"
     fit-margin-left="0"
     fit-margin-right="0"
     fit-margin-bottom="0"
     inkscape:zoom="0.5"
     inkscape:cx="396"
     inkscape:cy="379"
     inkscape:window-width="1920"
     inkscape:window-height="1017"
     inkscape:window-x="-8"
     inkscape:window-y="-8"
     inkscape:window-maximized="1"
     inkscape:current-layer="layer1"
     inkscape:snap-bbox="true"
     inkscape:snap-global="true"
     inkscape:bbox-paths="true"
     inkscape:object-paths="false"
     inkscape:snap-intersection-paths="false"
     inkscape:object-nodes="false"
     inkscape:snap-smooth-nodes="false"
     inkscape:snap-midpoints="false"
     inkscape:snap-object-midpoints="false"
     inkscape:snap-page="true"
     inkscape:bbox-nodes="true"
     inkscape:snap-bbox-edge-midpoints="true"
     inkscape:snap-bbox-midpoints="true" />
  <defs
     id="defs1128" />
  <g
     inkscape:label="Camada 1"
     inkscape:groupmode="layer"
     id="layer1"
     transform="translate(-722.81113,-105.92288)">
    <path
       d="m 833.36215,301.17637 c -15.33729,-7.33172 -23.6193,-19.71176 -22.37397,-33.44507 0.76141,-8.39639 7.17395,-24.50603 13.02663,-32.72538 l 3.22933,-4.53526 -3.28501,-6.57773 c -7.8946,-15.8073 -2.45552,-35.60774 13.02479,-47.4149 6.32877,-4.82706 6.39997,-4.8418 19.16686,-3.97282 15.31333,1.04232 26.67679,5.87082 33.18729,14.10156 7.482,9.4592 5.532,24.84056 -4.5104,35.57775 l -3.74816,4.00728 5.53793,6.12973 c 12.04356,13.33083 16.03654,31.59856 9.82734,44.96011 -6.49826,13.9834 -26.40755,25.8774 -45.04616,26.91101 -8.84718,0.49033 -11.69793,0.0168 -18.03647,-3.01628 z m 31.17021,-22.04487 c 13.38109,-6.61571 16.61601,-14.06024 11.07943,-25.49708 -3.49087,-7.21132 -11.85637,-14.03182 -17.21033,-14.03182 -1.77565,0 -6.30571,1.31905 -10.06665,2.93112 -6.04624,2.59173 -7.35484,4.03553 -11.3008,12.46766 -5.5382,11.83503 -5.85307,17.44985 -1.25286,22.34649 6.53166,6.95258 16.98499,7.60113 28.75121,1.78363 z m 0.41941,-67.37607 c 9.15836,-6.52116 10.00388,-12.09946 2.38248,-15.71604 -4.9268,-2.33802 -5.78706,-2.35059 -11.50096,-0.16866 -3.39659,1.29721 -7.2938,2.35858 -8.66014,2.35858 -4.99404,0 -7.88438,13.32005 -3.431,15.81087 4.44316,2.48517 16.30528,1.20735 21.20962,-2.28497 z"
       style="fill:#000000;stroke-width:1.47761"
       id="path1658" />
  </g>
</svg>
