<?xml version="1.0" encoding="UTF-8" standalone="no"?>
<!-- Created with Inkscape (http://www.inkscape.org/) -->

<svg
   width="1000"
   height="1000"
   viewBox="0 0 264.58333 264.58333"
   version="1.1"
   id="svg1131"
   sodipodi:docname="abrep.svg"
   inkscape:version="1.1.1 (3bf5ae0d25, 2021-09-20)"
   xmlns:inkscape="http://www.inkscape.org/namespaces/inkscape"
   xmlns:sodipodi="http://sodipodi.sourceforge.net/DTD/sodipodi-0.dtd"
   xmlns="http://www.w3.org/2000/svg"
   xmlns:svg="http://www.w3.org/2000/svg">
  <sodipodi:namedview
     id="namedview1133"
     pagecolor="#ffffff"
     bordercolor="#666666"
     borderopacity="1.0"
     inkscape:pageshadow="2"
     inkscape:pageopacity="0.0"
     inkscape:pagecheckerboard="0"
     inkscape:document-units="mm"
     showgrid="false"
     units="px"
     fit-margin-top="0"
     fit-margin-left="0"
     fit-margin-right="0"
     fit-margin-bottom="0"
     inkscape:zoom="0.5"
     inkscape:cx="522"
     inkscape:cy="345"
     inkscape:window-width="1920"
     inkscape:window-height="1017"
     inkscape:window-x="-8"
     inkscape:window-y="-8"
     inkscape:window-maximized="1"
     inkscape:current-layer="layer1"
     inkscape:snap-bbox="true"
     inkscape:snap-global="true"
     inkscape:bbox-paths="true"
     inkscape:object-paths="false"
     inkscape:snap-intersection-paths="false"
     inkscape:object-nodes="false"
     inkscape:snap-smooth-nodes="false"
     inkscape:snap-midpoints="false"
     inkscape:snap-object-midpoints="false"
     inkscape:snap-page="true"
     inkscape:bbox-nodes="true"
     inkscape:snap-bbox-edge-midpoints="true"
     inkscape:snap-bbox-midpoints="true" />
  <defs
     id="defs1128" />
  <g
     inkscape:label="Camada 1"
     inkscape:groupmode="layer"
     id="layer1"
     transform="translate(-722.81113,-105.92288)">
    <path
       d="m 855.23509,298.92768 c -12.37245,-12.73945 -20.07424,-38.14471 -20.20462,-66.64633 -0.13787,-30.13874 6.38585,-52.0842 19.81284,-66.65076 6.7325,-7.30397 13.51935,-8.73425 17.99216,-3.79171 3.94702,4.36127 2.93922,10.10457 -3.243,18.48359 -3.13348,4.24699 -6.45926,9.72378 -7.39072,12.17062 -6.27917,16.49624 -8.04374,45.1219 -3.97398,64.46858 2.46303,11.70906 4.55015,16.4486 12.23474,27.78399 4.78067,7.05175 5.08126,8.10137 3.44897,12.04187 -1.71988,4.15227 -6.86611,7.66744 -11.22508,7.66744 -1.14574,0 -4.49881,-2.48724 -7.45131,-5.52729 z"
       style="fill:#000000;stroke-width:1.48293"
       id="path1490" />
  </g>
</svg>
