<?xml version="1.0" encoding="UTF-8" standalone="no"?>
<!-- Created with Inkscape (http://www.inkscape.org/) -->

<svg
   width="1000"
   height="1000"
   viewBox="0 0 264.58333 264.58333"
   version="1.1"
   id="svg1131"
   sodipodi:docname="curlysqarebraces.svg"
   inkscape:version="1.1.1 (3bf5ae0d25, 2021-09-20)"
   xmlns:inkscape="http://www.inkscape.org/namespaces/inkscape"
   xmlns:sodipodi="http://sodipodi.sourceforge.net/DTD/sodipodi-0.dtd"
   xmlns="http://www.w3.org/2000/svg"
   xmlns:svg="http://www.w3.org/2000/svg">
  <sodipodi:namedview
     id="namedview1133"
     pagecolor="#ffffff"
     bordercolor="#666666"
     borderopacity="1.0"
     inkscape:pageshadow="2"
     inkscape:pageopacity="0.0"
     inkscape:pagecheckerboard="0"
     inkscape:document-units="mm"
     showgrid="false"
     units="px"
     fit-margin-top="0"
     fit-margin-left="0"
     fit-margin-right="0"
     fit-margin-bottom="0"
     inkscape:zoom="0.5"
     inkscape:cx="396"
     inkscape:cy="379"
     inkscape:window-width="1920"
     inkscape:window-height="1017"
     inkscape:window-x="-8"
     inkscape:window-y="-8"
     inkscape:window-maximized="1"
     inkscape:current-layer="layer1"
     inkscape:snap-bbox="true"
     inkscape:snap-global="true"
     inkscape:bbox-paths="true"
     inkscape:object-paths="false"
     inkscape:snap-intersection-paths="false"
     inkscape:object-nodes="false"
     inkscape:snap-smooth-nodes="false"
     inkscape:snap-midpoints="false"
     inkscape:snap-object-midpoints="true"
     inkscape:snap-page="true"
     inkscape:bbox-nodes="true"
     inkscape:snap-bbox-edge-midpoints="true"
     inkscape:snap-bbox-midpoints="true" />
  <defs
     id="defs1128" />
  <g
     inkscape:label="Camada 1"
     inkscape:groupmode="layer"
     id="layer1"
     transform="translate(-722.81113,-105.92288)">
    <path
       d="m 853.32291,300.99509 c -2.6857,-1.8182 -6.48063,-6.28106 -8.43343,-9.9175 -3.16493,-5.89379 -3.4542,-7.80805 -2.66388,-17.63109 0.48756,-6.06066 1.27177,-13.08094 1.74267,-15.60055 0.76711,-4.1044 0.42148,-4.68959 -3.32258,-5.62418 -6.12768,-1.52949 -9.3211,-5.06348 -9.3211,-10.31493 0,-5.05088 3.92376,-10.25086 8.93516,-11.84132 2.90027,-0.92048 3.07953,-1.67804 2.20064,-9.29778 -2.86918,-24.87538 -2.84241,-25.42197 1.66304,-33.99696 5.27272,-10.03523 11.79478,-14.70305 20.54358,-14.70305 15.48642,0 18.94095,18.62137 3.97541,21.42897 -7.4471,1.39715 -8.62591,5.50589 -5.69826,19.85982 1.76427,8.6504 1.99217,13.33366 0.93242,19.16469 -0.84279,4.63656 -0.87511,9.10458 -0.0805,11.19338 1.83186,4.81848 1.65188,16.3235 -0.39427,25.18797 -2.24901,9.74308 -0.23767,14.82877 5.86468,14.82877 8.8035,0 13.08566,12.29912 6.21836,17.85999 -4.84946,3.92688 -15.92073,3.6289 -22.16153,-0.59623 z"
       style="fill:#000000;stroke-width:1.46926"
       id="path2098" />
  </g>
</svg>
