<?xml version="1.0" encoding="UTF-8" standalone="no"?>
<!-- Created with Inkscape (http://www.inkscape.org/) -->

<svg
   width="1000"
   height="1000"
   viewBox="0 0 264.58333 264.58333"
   version="1.1"
   id="svg1131"
   sodipodi:docname="D.svg"
   inkscape:version="1.1.1 (3bf5ae0d25, 2021-09-20)"
   xmlns:inkscape="http://www.inkscape.org/namespaces/inkscape"
   xmlns:sodipodi="http://sodipodi.sourceforge.net/DTD/sodipodi-0.dtd"
   xmlns="http://www.w3.org/2000/svg"
   xmlns:svg="http://www.w3.org/2000/svg">
  <sodipodi:namedview
     id="namedview1133"
     pagecolor="#ffffff"
     bordercolor="#666666"
     borderopacity="1.0"
     inkscape:pageshadow="2"
     inkscape:pageopacity="0.0"
     inkscape:pagecheckerboard="0"
     inkscape:document-units="mm"
     showgrid="false"
     units="px"
     fit-margin-top="0"
     fit-margin-left="0"
     fit-margin-right="0"
     fit-margin-bottom="0"
     inkscape:zoom="0.5"
     inkscape:cx="234"
     inkscape:cy="407"
     inkscape:window-width="1920"
     inkscape:window-height="1017"
     inkscape:window-x="-8"
     inkscape:window-y="-8"
     inkscape:window-maximized="1"
     inkscape:current-layer="layer1"
     inkscape:snap-bbox="true"
     inkscape:snap-global="true"
     inkscape:bbox-paths="true" />
  <defs
     id="defs1128" />
  <g
     inkscape:label="Camada 1"
     inkscape:groupmode="layer"
     id="layer1"
     transform="translate(-722.81113,-105.92288)">
    <path
       d="m 827.70217,301.73409 c -4.00912,-1.56547 -9.56921,-5.03534 -12.35575,-7.71081 -5.20112,-4.99383 -10.73444,-14.24289 -10.73444,-17.94295 0,-4.02654 6.00934,-9.89216 10.11055,-9.8687 4.93709,0.028 6.029,0.7903 11.42806,7.97624 3.59213,4.78105 13.45858,11.16415 14.68503,9.50049 0.65812,-0.89274 3.81505,-36.26251 4.60417,-51.5837 0.78481,-15.23875 0.74639,-15.48536 -1.85964,-11.93585 -7.81493,10.64404 -12.32253,12.44806 -18.65584,7.46627 -4.87671,-3.83605 -5.32367,-10.40191 -1.17161,-17.21118 6.06944,-9.95355 27.22248,-30.87359 34.11476,-33.73894 20.08292,-8.34904 32.86356,-4.52116 41.57571,12.4522 4.70448,9.16544 6.34238,18.15484 6.13424,33.66685 -0.37526,27.97497 -9.43294,54.28029 -22.99407,66.7805 -3.41677,3.14948 -11.23472,7.79628 -17.51644,10.41137 -13.59659,5.66029 -25.85937,6.23075 -37.36473,1.73821 z m 42.61077,-29.98796 c 9.98951,-13.32383 14.99482,-32.3634 14.06954,-53.51851 -0.65156,-14.89814 -4.03041,-23.57949 -9.45411,-24.29104 -5.87744,-0.77103 -6.39934,1.17626 -8.05572,30.05848 -0.88685,15.46357 -2.00666,33.61723 -2.48851,40.34148 -0.98151,13.69898 0.15179,15.11513 5.9288,7.40959 z"
       style="fill:#000000;stroke-width:1.48192"
       id="path976" />
  </g>
</svg>
