<?xml version="1.0" encoding="UTF-8" standalone="no"?>
<!-- Created with Inkscape (http://www.inkscape.org/) -->

<svg
   width="1000"
   height="1000"
   viewBox="0 0 264.58333 264.58333"
   version="1.1"
   id="svg1131"
   sodipodi:docname="dl.svg"
   inkscape:version="1.1.1 (3bf5ae0d25, 2021-09-20)"
   xmlns:inkscape="http://www.inkscape.org/namespaces/inkscape"
   xmlns:sodipodi="http://sodipodi.sourceforge.net/DTD/sodipodi-0.dtd"
   xmlns="http://www.w3.org/2000/svg"
   xmlns:svg="http://www.w3.org/2000/svg">
  <sodipodi:namedview
     id="namedview1133"
     pagecolor="#ffffff"
     bordercolor="#666666"
     borderopacity="1.0"
     inkscape:pageshadow="2"
     inkscape:pageopacity="0.0"
     inkscape:pagecheckerboard="0"
     inkscape:document-units="mm"
     showgrid="false"
     units="px"
     fit-margin-top="0"
     fit-margin-left="0"
     fit-margin-right="0"
     fit-margin-bottom="0"
     inkscape:zoom="0.5"
     inkscape:cx="640"
     inkscape:cy="375"
     inkscape:window-width="1920"
     inkscape:window-height="1017"
     inkscape:window-x="-8"
     inkscape:window-y="-8"
     inkscape:window-maximized="1"
     inkscape:current-layer="layer1"
     inkscape:snap-bbox="true"
     inkscape:snap-global="true"
     inkscape:bbox-paths="true"
     inkscape:object-paths="false"
     inkscape:snap-intersection-paths="false"
     inkscape:object-nodes="false"
     inkscape:snap-smooth-nodes="false"
     inkscape:snap-midpoints="false"
     inkscape:snap-object-midpoints="false"
     inkscape:snap-page="true"
     inkscape:bbox-nodes="true"
     inkscape:snap-bbox-edge-midpoints="true"
     inkscape:snap-bbox-midpoints="true" />
  <defs
     id="defs1128" />
  <g
     inkscape:label="Camada 1"
     inkscape:groupmode="layer"
     id="layer1"
     transform="translate(-722.81113,-105.92288)">
    <path
       d="m 823.66742,301.3397 c -6.83411,-4.1663 -10.02567,-8.07389 -14.42261,-17.65856 -6.89699,-15.03438 -3.25088,-34.20931 10.07707,-52.99502 4.28594,-6.04105 16.06056,-14.58018 20.10461,-14.58018 3.49074,0 3.49301,-0.017 3.15398,-18.67421 -0.31864,-17.54536 -0.13753,-18.87587 2.99512,-22.01129 4.35302,-4.35698 13.46356,-4.34006 17.00337,0.034 2.12317,2.62213 2.36394,6.0247 1.71102,24.18064 -0.62818,17.46748 -0.3011,22.64457 1.88772,29.87356 2.46122,8.12873 2.47616,9.08801 0.21224,13.62582 -1.48547,2.9778 -2.43519,8.61452 -2.43519,14.45324 0,8.1658 -0.53995,10.11148 -3.67565,13.24741 -2.02163,2.02157 -5.08466,3.67559 -6.80677,3.67559 -1.72211,0 -4.78515,-1.65402 -6.80678,-3.67559 -3.38915,-3.38915 -3.6757,-4.79007 -3.6757,-17.9699 0,-8.43284 -0.60775,-14.29431 -1.48219,-14.29431 -0.81519,0 -3.87109,3.598 -6.79087,7.99556 -11.42558,17.20798 -8.51258,36.92919 5.45475,36.92919 8.12427,0 18.34673,-4.44204 34.24118,-14.87879 15.57365,-10.2262 21.26318,-11.42195 26.71833,-5.61516 4.04597,4.30667 4.37628,13.02595 0.62218,16.4233 -1.44857,1.31093 -4.5862,2.73754 -6.97249,3.17035 -2.38635,0.43297 -8.1083,3.32966 -12.7155,6.43758 -4.60726,3.10786 -13.28969,7.85044 -19.29435,10.53919 -9.28141,4.15583 -12.64776,4.88747 -22.46238,4.88283 -9.04075,0 -12.65019,-0.67951 -16.6412,-3.11267 z"
       style="fill:#000000;stroke-width:1.49749"
       id="path1514" />
  </g>
</svg>
