<?xml version="1.0" encoding="UTF-8" standalone="no"?>
<!-- Created with Inkscape (http://www.inkscape.org/) -->

<svg
   width="1000"
   height="1000"
   viewBox="0 0 264.58333 264.58333"
   version="1.1"
   id="svg1131"
   sodipodi:docname="E.svg"
   inkscape:version="1.1.1 (3bf5ae0d25, 2021-09-20)"
   xmlns:inkscape="http://www.inkscape.org/namespaces/inkscape"
   xmlns:sodipodi="http://sodipodi.sourceforge.net/DTD/sodipodi-0.dtd"
   xmlns="http://www.w3.org/2000/svg"
   xmlns:svg="http://www.w3.org/2000/svg">
  <sodipodi:namedview
     id="namedview1133"
     pagecolor="#ffffff"
     bordercolor="#666666"
     borderopacity="1.0"
     inkscape:pageshadow="2"
     inkscape:pageopacity="0.0"
     inkscape:pagecheckerboard="0"
     inkscape:document-units="mm"
     showgrid="false"
     units="px"
     fit-margin-top="0"
     fit-margin-left="0"
     fit-margin-right="0"
     fit-margin-bottom="0"
     inkscape:zoom="0.5"
     inkscape:cx="234"
     inkscape:cy="407"
     inkscape:window-width="1920"
     inkscape:window-height="1017"
     inkscape:window-x="-8"
     inkscape:window-y="-8"
     inkscape:window-maximized="1"
     inkscape:current-layer="layer1"
     inkscape:snap-bbox="true"
     inkscape:snap-global="true"
     inkscape:bbox-paths="true" />
  <defs
     id="defs1128" />
  <g
     inkscape:label="Camada 1"
     inkscape:groupmode="layer"
     id="layer1"
     transform="translate(-722.81113,-105.92288)">
    <path
       d="m 828.90248,302.38044 c -14.76836,-9.00605 -18.75333,-38.08119 -10.1505,-74.05981 3.78348,-15.82324 3.86699,-16.93098 1.57708,-20.92091 -3.99873,-6.96738 -3.06797,-11.43696 3.98029,-19.11399 6.66389,-7.25834 11.42303,-8.75119 16.93143,-5.31115 2.97305,1.85673 15.79879,-1.22745 25.33406,-6.09199 12.14961,-6.19828 22.23566,-5.12035 26.96254,2.88158 3.11906,5.28022 3.21633,14.60141 0.19721,18.91166 -3.05221,4.3576 -11.22293,4.46405 -15.19737,0.19831 -2.86447,-3.07471 -2.874,-3.07493 -9.32119,-0.22283 -3.54956,1.57017 -9.96243,3.69658 -14.25078,4.72533 -5.49487,1.3182 -8.18231,2.79846 -9.1017,5.01322 -2.37631,5.7246 -7.69018,27.58123 -6.89819,28.37328 0.42783,0.42783 3.32757,0.0702 6.44356,-0.79505 15.26182,-4.23783 27.03731,-0.1688 27.03731,9.34335 0,6.76773 -4.4454,10.36927 -13.03425,10.56017 -3.77507,0.0836 -10.67749,1.27019 -15.33881,2.63619 l -8.47505,2.48371 v 6.37154 c 0,7.56997 2.55402,15.6628 4.93445,15.63551 2.50333,-0.0279 23.07011,-11.67093 23.07011,-13.05932 0,-1.82085 7.0188,-4.60834 11.60385,-4.60834 7.7401,0 12.82195,9.12988 9.02789,16.21921 -0.81244,1.51802 -9.97698,7.44384 -20.36563,13.16845 -20.68204,11.39667 -26.68546,12.71226 -34.96642,7.66238 z"
       style="fill:#000000;stroke-width:1.47392"
       id="path988" />
  </g>
</svg>
