<?xml version="1.0" encoding="UTF-8" standalone="no"?>
<!-- Created with Inkscape (http://www.inkscape.org/) -->

<svg
   width="1000"
   height="1000"
   viewBox="0 0 264.58333 264.58333"
   version="1.1"
   id="svg1131"
   sodipodi:docname="H.svg"
   inkscape:version="1.1.1 (3bf5ae0d25, 2021-09-20)"
   xmlns:inkscape="http://www.inkscape.org/namespaces/inkscape"
   xmlns:sodipodi="http://sodipodi.sourceforge.net/DTD/sodipodi-0.dtd"
   xmlns="http://www.w3.org/2000/svg"
   xmlns:svg="http://www.w3.org/2000/svg">
  <sodipodi:namedview
     id="namedview1133"
     pagecolor="#ffffff"
     bordercolor="#666666"
     borderopacity="1.0"
     inkscape:pageshadow="2"
     inkscape:pageopacity="0.0"
     inkscape:pagecheckerboard="0"
     inkscape:document-units="mm"
     showgrid="false"
     units="px"
     fit-margin-top="0"
     fit-margin-left="0"
     fit-margin-right="0"
     fit-margin-bottom="0"
     inkscape:zoom="0.5"
     inkscape:cx="234"
     inkscape:cy="407"
     inkscape:window-width="1920"
     inkscape:window-height="1017"
     inkscape:window-x="-8"
     inkscape:window-y="-8"
     inkscape:window-maximized="1"
     inkscape:current-layer="layer1"
     inkscape:snap-bbox="true"
     inkscape:snap-global="true"
     inkscape:bbox-paths="true" />
  <defs
     id="defs1128" />
  <g
     inkscape:label="Camada 1"
     inkscape:groupmode="layer"
     id="layer1"
     transform="translate(-722.81113,-105.92288)">
    <path
       d="m 876.74455,301.17952 c -5.34466,-1.97713 -6.75621,-6.83414 -7.58876,-26.11256 l -0.79067,-18.30732 h -10.50315 -10.50316 l 0.98561,17.25738 c 1.08559,19.00692 -0.18021,22.78566 -7.63205,22.78566 -9.91135,0 -12.86547,-5.41652 -13.97508,-25.62383 -0.75338,-13.71944 -1.33199,-16.36896 -4.25659,-19.49231 -3.54395,-3.7848 -3.53658,-10.06611 0.017,-14.34774 1.12343,-1.35375 1.58893,-10.84341 1.40764,-28.69901 -0.25559,-25.15958 -0.0895,-26.90725 2.91967,-30.73262 2.33494,-2.96847 4.53925,-4.05603 8.22069,-4.05603 5.87016,0 10.26287,4.61876 12.9626,13.62973 1.45479,4.85553 1.31612,6.33662 -0.9116,9.73651 -2.25187,3.43679 -2.50756,6.3929 -1.78926,20.68482 0.46073,9.17123 0.87085,16.84369 0.91092,17.04986 0.0397,0.20628 3.65503,0.37459 8.03311,0.37459 13.20255,0 13.0004,0.57787 11.13798,-31.83821 -1.51548,-26.37812 -1.44714,-28.27392 1.12197,-31.11278 3.56792,-3.94246 11.43153,-3.98496 14.96471,-0.081 3.39871,3.75551 4.59304,15.79257 7.48885,75.47667 1.75622,36.19578 1.8495,46.80797 0.43127,49.07888 -2.34537,3.75544 -8.50479,5.86297 -12.65171,4.32895 z"
       style="fill:#000000;stroke-width:1.49941"
       id="path1062" />
  </g>
</svg>
