<?xml version="1.0" encoding="UTF-8" standalone="no"?>
<!-- Created with Inkscape (http://www.inkscape.org/) -->

<svg
   width="1000"
   height="1000"
   viewBox="0 0 264.58333 264.58333"
   version="1.1"
   id="svg1131"
   sodipodi:docname="hashtag.svg"
   inkscape:version="1.1.1 (3bf5ae0d25, 2021-09-20)"
   xmlns:inkscape="http://www.inkscape.org/namespaces/inkscape"
   xmlns:sodipodi="http://sodipodi.sourceforge.net/DTD/sodipodi-0.dtd"
   xmlns="http://www.w3.org/2000/svg"
   xmlns:svg="http://www.w3.org/2000/svg">
  <sodipodi:namedview
     id="namedview1133"
     pagecolor="#ffffff"
     bordercolor="#666666"
     borderopacity="1.0"
     inkscape:pageshadow="2"
     inkscape:pageopacity="0.0"
     inkscape:pagecheckerboard="0"
     inkscape:document-units="mm"
     showgrid="false"
     units="px"
     fit-margin-top="0"
     fit-margin-left="0"
     fit-margin-right="0"
     fit-margin-bottom="0"
     inkscape:zoom="0.5"
     inkscape:cx="522"
     inkscape:cy="239"
     inkscape:window-width="1920"
     inkscape:window-height="1017"
     inkscape:window-x="-8"
     inkscape:window-y="-8"
     inkscape:window-maximized="1"
     inkscape:current-layer="layer1"
     inkscape:snap-bbox="true"
     inkscape:snap-global="true"
     inkscape:bbox-paths="true"
     inkscape:object-paths="false"
     inkscape:snap-intersection-paths="false"
     inkscape:object-nodes="false"
     inkscape:snap-smooth-nodes="false"
     inkscape:snap-midpoints="false"
     inkscape:snap-object-midpoints="false"
     inkscape:snap-page="true"
     inkscape:bbox-nodes="true"
     inkscape:snap-bbox-edge-midpoints="true"
     inkscape:snap-bbox-midpoints="true" />
  <defs
     id="defs1128" />
  <g
     inkscape:label="Camada 1"
     inkscape:groupmode="layer"
     id="layer1"
     transform="translate(-722.81113,-105.92288)">
    <path
       d="m 861.71533,303.695 c -6.35424,-2.54656 -7.06851,-5.08736 -6.25497,-22.25223 l 0.76842,-16.21091 -5.0684,-0.95084 c -2.7876,-0.5229 -5.49897,-0.5201 -6.02528,0.006 -0.52626,0.52626 -1.2406,6.89168 -1.58744,14.14536 -0.71602,14.97714 -3.10498,19.28601 -10.69253,19.28601 -8.18534,0 -10.30027,-4.10156 -10.30027,-19.97585 v -14.05705 h -10.25044 c -9.31123,0 -10.53141,-0.35736 -13.31722,-3.89878 -4.0274,-5.11996 -3.87187,-8.74789 0.56524,-13.18489 3.20519,-3.20519 4.92546,-3.63202 14.63862,-3.63202 11.43964,0 12.80287,-0.77669 12.80287,-7.29428 0,-2.36547 -1.36782,-2.54902 -14.427,-1.93613 -13.16509,0.61792 -14.78285,0.39483 -18.49612,-2.55204 -4.5866,-3.63996 -5.35988,-9.39137 -1.92226,-14.29927 1.89519,-2.70561 4.16693,-3.16464 19.36749,-3.91326 9.47123,-0.46642 17.57906,-1.20664 18.01718,-1.64487 0.43845,-0.43846 1.25921,-7.46447 1.82428,-15.61385 1.17298,-16.91433 3.26554,-20.81204 11.17315,-20.81204 8.41783,0 10.22572,3.81774 9.92876,20.96606 l -0.25837,14.92529 5.33605,-0.86595 c 2.93502,-0.47648 5.69124,-1.22096 6.12522,-1.65483 0.43398,-0.43398 1.18746,-7.51585 1.67485,-15.73771 0.79107,-13.34792 1.25905,-15.25106 4.37057,-17.77055 4.01292,-3.24943 6.04306,-3.46575 11.0623,-1.17885 4.83475,2.2029 6.97244,7.40054 6.17315,15.0094 -0.36295,3.45563 -1.00313,9.44579 -1.42229,13.31151 l -0.76221,7.02853 h 14.02881 c 12.05577,0 14.4449,0.41608 16.98804,2.95934 3.99173,3.99173 3.78195,10.54903 -0.4653,14.53902 -3.03115,2.84755 -5.07695,3.21727 -17.8027,3.21727 -15.52716,0 -14.95169,-0.3266 -16.28568,9.24809 l -0.77283,5.54885 h 15.54092 c 19.91187,0 24.1561,1.97075 24.20196,11.23825 0.0391,8.18025 -3.15011,9.47738 -23.31163,9.47738 -9.97193,0 -18.31548,0.63621 -18.80863,1.4341 -0.48767,0.78871 -1.29652,8.16772 -1.798,16.3978 -0.95129,15.61429 -2.5686,19.59617 -8.58812,21.14374 -1.62765,0.41832 -4.31419,0.21811 -5.97008,-0.44572 z m -1.62116,-64.05456 c 2.01308,-7.51183 1.34265,-8.5082 -5.72597,-8.5082 h -6.65864 v 5.91875 c 0,5.88916 0.028,5.91874 5.74627,5.91874 4.70824,0 5.90734,-0.60137 6.63834,-3.32929 z"
       style="fill:#000000;stroke-width:1.47969"
       id="path1430" />
  </g>
</svg>
