<?xml version="1.0" encoding="UTF-8" standalone="no"?>
<!-- Created with Inkscape (http://www.inkscape.org/) -->

<svg
   width="1000"
   height="1000"
   viewBox="0 0 264.58333 264.58333"
   version="1.1"
   id="svg1131"
   sodipodi:docname="J.svg"
   inkscape:version="1.1.1 (3bf5ae0d25, 2021-09-20)"
   xmlns:inkscape="http://www.inkscape.org/namespaces/inkscape"
   xmlns:sodipodi="http://sodipodi.sourceforge.net/DTD/sodipodi-0.dtd"
   xmlns="http://www.w3.org/2000/svg"
   xmlns:svg="http://www.w3.org/2000/svg">
  <sodipodi:namedview
     id="namedview1133"
     pagecolor="#ffffff"
     bordercolor="#666666"
     borderopacity="1.0"
     inkscape:pageshadow="2"
     inkscape:pageopacity="0.0"
     inkscape:pagecheckerboard="0"
     inkscape:document-units="mm"
     showgrid="false"
     units="px"
     fit-margin-top="0"
     fit-margin-left="0"
     fit-margin-right="0"
     fit-margin-bottom="0"
     inkscape:zoom="0.5"
     inkscape:cx="234"
     inkscape:cy="407"
     inkscape:window-width="1920"
     inkscape:window-height="1017"
     inkscape:window-x="-8"
     inkscape:window-y="-8"
     inkscape:window-maximized="1"
     inkscape:current-layer="layer1"
     inkscape:snap-bbox="true"
     inkscape:snap-global="true"
     inkscape:bbox-paths="true" />
  <defs
     id="defs1128" />
  <g
     inkscape:label="Camada 1"
     inkscape:groupmode="layer"
     id="layer1"
     transform="translate(-722.81113,-105.92288)">
    <path
       d="m 829.76433,301.29332 c -11.10519,-7.1167 -21.4591,-25.60475 -21.48286,-38.35994 -0.0169,-9.49529 3.3804,-13.78036 10.92784,-13.78036 6.2681,0 9.90413,3.85483 9.94703,10.54569 0.0394,6.1136 4.3238,15.96418 8.59597,19.76293 3.06745,2.72747 3.10832,2.68867 5.50421,-5.21423 3.34204,-11.02383 4.50899,-41.67254 2.3443,-61.56982 -0.97911,-9.00002 -2.0184,-16.60185 -2.30951,-16.89295 -0.2911,-0.29111 -7.93572,-1.01802 -16.98805,-1.61537 -18.77347,-1.23885 -22.50561,-3.1349 -22.50561,-11.43357 0,-3.53732 1.12426,-5.76699 4.09683,-8.12509 4.46113,-3.53889 2.07691,-3.54272 39.10633,0.0631 8.60341,0.83778 23.91467,1.54301 34.02505,1.56716 17.41114,0.0394 18.57223,0.23368 21.97402,3.63558 4.55066,4.55066 4.54632,8.41354 -0.0169,13.69983 -3.57803,4.14627 -3.74565,4.17899 -20.83962,4.0635 l -17.2326,-0.11655 1.10022,8.31016 c 0.60518,4.57059 1.07618,21.04762 1.04679,36.61569 -0.0569,29.98655 -1.24161,36.89226 -8.64011,50.35319 -5.9506,10.82654 -18.98378,14.68858 -28.65474,8.49102 z"
       style="fill:#000000;stroke-width:1.48976"
       id="path1124" />
  </g>
</svg>
