<?xml version="1.0" encoding="UTF-8" standalone="no"?>
<!-- Created with Inkscape (http://www.inkscape.org/) -->

<svg
   width="1000"
   height="1000"
   viewBox="0 0 264.58333 264.58333"
   version="1.1"
   id="svg1131"
   sodipodi:docname="ll.svg"
   inkscape:version="1.1.1 (3bf5ae0d25, 2021-09-20)"
   xmlns:inkscape="http://www.inkscape.org/namespaces/inkscape"
   xmlns:sodipodi="http://sodipodi.sourceforge.net/DTD/sodipodi-0.dtd"
   xmlns="http://www.w3.org/2000/svg"
   xmlns:svg="http://www.w3.org/2000/svg">
  <sodipodi:namedview
     id="namedview1133"
     pagecolor="#ffffff"
     bordercolor="#666666"
     borderopacity="1.0"
     inkscape:pageshadow="2"
     inkscape:pageopacity="0.0"
     inkscape:pagecheckerboard="0"
     inkscape:document-units="mm"
     showgrid="false"
     units="px"
     fit-margin-top="0"
     fit-margin-left="0"
     fit-margin-right="0"
     fit-margin-bottom="0"
     inkscape:zoom="0.5"
     inkscape:cx="640"
     inkscape:cy="375"
     inkscape:window-width="1920"
     inkscape:window-height="1017"
     inkscape:window-x="-8"
     inkscape:window-y="-8"
     inkscape:window-maximized="1"
     inkscape:current-layer="layer1"
     inkscape:snap-bbox="true"
     inkscape:snap-global="true"
     inkscape:bbox-paths="true"
     inkscape:object-paths="false"
     inkscape:snap-intersection-paths="false"
     inkscape:object-nodes="false"
     inkscape:snap-smooth-nodes="false"
     inkscape:snap-midpoints="false"
     inkscape:snap-object-midpoints="false"
     inkscape:snap-page="true"
     inkscape:bbox-nodes="true"
     inkscape:snap-bbox-edge-midpoints="true"
     inkscape:snap-bbox-midpoints="true" />
  <defs
     id="defs1128" />
  <g
     inkscape:label="Camada 1"
     inkscape:groupmode="layer"
     id="layer1"
     transform="translate(-722.81113,-105.92288)">
    <path
       d="m 836.4803,303.09903 c -8.5678,-3.50681 -11.9662,-14.51448 -6.5906,-21.34837 2.713,-3.44886 4.2183,-4.10882 8.2893,-3.63347 2.736,0.31944 4.9743,0.35979 4.9743,0.0902 0,-0.27013 -1.2828,-4.3062 -2.8503,-8.96973 -4.229,-12.58236 -6.5066,-31.45981 -6.2039,-51.41619 0.2802,-18.40647 1.9323,-28.13642 6.038,-35.54005 8.1284,-14.65755 26.2885,-13.30659 34.3816,2.55796 6.4953,12.73159 4.9749,45.58972 -3.8552,83.31632 -2.2008,9.40356 -1.3007,12.62035 3.5301,12.62035 7.6544,0 11.7466,12.07662 6.0297,17.79353 -3.594,3.59384 -12.729,3.97387 -17.3704,0.72272 -2.9412,-2.0599 -3.6501,-1.93907 -8.6922,1.48278 -5.5286,3.75161 -12.0856,4.61354 -17.6804,2.32386 z m 21.3483,-93.49702 c 0.073,-6.73201 -0.325,-8.9675 -1.3304,-7.41394 -0.7902,1.2233 -1.3585,8.89677 -1.2621,17.05209 0.1513,12.81375 0.3307,13.82084 1.3305,7.41399 0.6349,-4.07766 1.2032,-11.75113 1.262,-17.05214 z"
       style="fill:#000000;stroke-width:1.48279"
       id="path2059" />
  </g>
</svg>
