<?xml version="1.0" encoding="UTF-8" standalone="no"?>
<!-- Created with Inkscape (http://www.inkscape.org/) -->

<svg
   width="1000"
   height="1000"
   viewBox="0 0 264.58333 264.58333"
   version="1.1"
   id="svg1131"
   sodipodi:docname="M.svg"
   inkscape:version="1.1.1 (3bf5ae0d25, 2021-09-20)"
   xmlns:inkscape="http://www.inkscape.org/namespaces/inkscape"
   xmlns:sodipodi="http://sodipodi.sourceforge.net/DTD/sodipodi-0.dtd"
   xmlns="http://www.w3.org/2000/svg"
   xmlns:svg="http://www.w3.org/2000/svg">
  <sodipodi:namedview
     id="namedview1133"
     pagecolor="#ffffff"
     bordercolor="#666666"
     borderopacity="1.0"
     inkscape:pageshadow="2"
     inkscape:pageopacity="0.0"
     inkscape:pagecheckerboard="0"
     inkscape:document-units="mm"
     showgrid="false"
     units="px"
     fit-margin-top="0"
     fit-margin-left="0"
     fit-margin-right="0"
     fit-margin-bottom="0"
     inkscape:zoom="0.5"
     inkscape:cx="234"
     inkscape:cy="407"
     inkscape:window-width="1920"
     inkscape:window-height="1017"
     inkscape:window-x="-8"
     inkscape:window-y="-8"
     inkscape:window-maximized="1"
     inkscape:current-layer="layer1"
     inkscape:snap-bbox="true"
     inkscape:snap-global="true"
     inkscape:bbox-paths="true" />
  <defs
     id="defs1128" />
  <g
     inkscape:label="Camada 1"
     inkscape:groupmode="layer"
     id="layer1"
     transform="translate(-722.81113,-105.92288)">
    <path
       d="m 874.96422,301.06352 c -2.45099,-2.70436 -2.87365,-6.17522 -3.51701,-28.88203 -0.66176,-23.35857 -0.9039,-25.25304 -2.55098,-19.95879 -1.00091,3.21728 -1.82351,6.96389 -1.82798,8.32582 -0.0111,3.27902 -5.54497,7.02922 -10.37301,7.02922 -5.40778,0 -11.03908,-4.8973 -15.29993,-13.30569 -1.99766,-3.94222 -3.97979,-7.16767 -4.40472,-7.16767 -0.42503,0 -0.33052,11.10402 0.20948,24.67562 0.95055,23.88165 0.88207,24.77566 -2.1275,27.78523 -3.81917,3.81918 -9.01571,3.98565 -13.40739,0.42946 -2.85536,-2.31216 -3.47025,-4.67146 -4.47812,-17.18296 -1.4691,-18.23676 -1.46617,-86.48901 0.004,-96.82056 1.29229,-9.08038 4.13577,-12.49338 10.40866,-12.49338 8.1946,0 12.00239,5.98835 17.97753,28.27273 2.91146,10.85817 6.2106,22.3744 7.33144,25.59168 l 2.0379,5.84951 8.98145,-17.8917 c 7.06049,-14.06545 8.98122,-19.31383 8.98122,-24.54181 0,-13.21405 6.79553,-21.50958 15.04949,-18.37146 6.80576,2.58752 6.84704,2.92943 5.40508,44.79409 -0.7465,21.6749 -1.37675,48.78654 -1.40046,60.24794 -0.0387,18.85618 -0.32168,21.11721 -2.96795,23.7637 -3.82227,3.82228 -10.49654,3.75137 -14.03157,-0.14923 z"
       style="fill:#000000;stroke-width:1.46238"
       id="path1160" />
  </g>
</svg>
