<?xml version="1.0" encoding="UTF-8" standalone="no"?>
<!-- Created with Inkscape (http://www.inkscape.org/) -->

<svg
   width="1000"
   height="1000"
   viewBox="0 0 264.58333 264.58333"
   version="1.1"
   id="svg1131"
   sodipodi:docname="maiorq.svg"
   inkscape:version="1.1.1 (3bf5ae0d25, 2021-09-20)"
   xmlns:inkscape="http://www.inkscape.org/namespaces/inkscape"
   xmlns:sodipodi="http://sodipodi.sourceforge.net/DTD/sodipodi-0.dtd"
   xmlns="http://www.w3.org/2000/svg"
   xmlns:svg="http://www.w3.org/2000/svg">
  <sodipodi:namedview
     id="namedview1133"
     pagecolor="#ffffff"
     bordercolor="#666666"
     borderopacity="1.0"
     inkscape:pageshadow="2"
     inkscape:pageopacity="0.0"
     inkscape:pagecheckerboard="0"
     inkscape:document-units="mm"
     showgrid="false"
     units="px"
     fit-margin-top="0"
     fit-margin-left="0"
     fit-margin-right="0"
     fit-margin-bottom="0"
     inkscape:zoom="0.5"
     inkscape:cx="396"
     inkscape:cy="379"
     inkscape:window-width="1920"
     inkscape:window-height="1017"
     inkscape:window-x="-8"
     inkscape:window-y="-8"
     inkscape:window-maximized="1"
     inkscape:current-layer="layer1"
     inkscape:snap-bbox="true"
     inkscape:snap-global="true"
     inkscape:bbox-paths="true"
     inkscape:object-paths="false"
     inkscape:snap-intersection-paths="false"
     inkscape:object-nodes="false"
     inkscape:snap-smooth-nodes="false"
     inkscape:snap-midpoints="false"
     inkscape:snap-object-midpoints="false"
     inkscape:snap-page="true"
     inkscape:bbox-nodes="true"
     inkscape:snap-bbox-edge-midpoints="true"
     inkscape:snap-bbox-midpoints="true" />
  <defs
     id="defs1128" />
  <g
     inkscape:label="Camada 1"
     inkscape:groupmode="layer"
     id="layer1"
     transform="translate(-722.81113,-105.92288)">
    <path
       d="m 820.43733,276.83792 c -4.40135,-2.21438 -6.3195,-7.77091 -4.25013,-12.31259 1.23028,-2.70034 6.69694,-5.9268 24.50491,-14.46291 l 22.9212,-10.9874 -8.59619,-4.80691 c -4.72782,-2.64378 -14.89755,-7.87707 -22.59926,-11.62951 -15.08441,-7.34947 -17.33715,-9.28779 -17.33715,-14.9165 0,-3.88541 5.26862,-9.16214 9.1819,-9.19601 1.18466,-0.0151 16.94162,7.34136 35.01533,16.33691 26.69642,13.28722 33.16719,17.03885 34.49203,19.99722 3.54719,7.92162 2.46188,8.7909 -32.51762,26.04322 -17.90566,8.83128 -33.66887,16.40415 -35.02945,16.82881 -1.36043,0.42441 -3.96394,0.0202 -5.78557,-0.89433 z"
       style="fill:#000000;stroke-width:1.33363"
       id="path1766" />
  </g>
</svg>
