<?xml version="1.0" encoding="UTF-8" standalone="no"?>
<!-- Created with Inkscape (http://www.inkscape.org/) -->

<svg
   width="1000"
   height="1000"
   viewBox="0 0 264.58333 264.58333"
   version="1.1"
   id="svg1131"
   sodipodi:docname="N.svg"
   inkscape:version="1.1.1 (3bf5ae0d25, 2021-09-20)"
   xmlns:inkscape="http://www.inkscape.org/namespaces/inkscape"
   xmlns:sodipodi="http://sodipodi.sourceforge.net/DTD/sodipodi-0.dtd"
   xmlns="http://www.w3.org/2000/svg"
   xmlns:svg="http://www.w3.org/2000/svg">
  <sodipodi:namedview
     id="namedview1133"
     pagecolor="#ffffff"
     bordercolor="#666666"
     borderopacity="1.0"
     inkscape:pageshadow="2"
     inkscape:pageopacity="0.0"
     inkscape:pagecheckerboard="0"
     inkscape:document-units="mm"
     showgrid="false"
     units="px"
     fit-margin-top="0"
     fit-margin-left="0"
     fit-margin-right="0"
     fit-margin-bottom="0"
     inkscape:zoom="0.5"
     inkscape:cx="233"
     inkscape:cy="407"
     inkscape:window-width="1920"
     inkscape:window-height="1001"
     inkscape:window-x="-9"
     inkscape:window-y="-9"
     inkscape:window-maximized="1"
     inkscape:current-layer="layer1"
     inkscape:snap-bbox="true"
     inkscape:snap-global="true"
     inkscape:bbox-paths="true" />
  <defs
     id="defs1128" />
  <g
     inkscape:label="Camada 1"
     inkscape:groupmode="layer"
     id="layer1"
     transform="translate(-722.81113,-105.92288)">
    <path
       d="m 866.7034,299.9953 c -6.41658,-5.63382 -15.13781,-18.24236 -21.56217,-31.1731 l -4.75027,-9.5611 -0.0226,16.2736 c -0.0226,17.3485 -0.34503,18.57156 -5.59938,21.3388 -4.50565,2.37311 -10.76285,-0.56096 -13.53629,-6.34791 -3.04812,-6.35957 -2.53238,-89.74543 0.58447,-94.50236 2.70297,-4.12521 10.49273,-6.37091 15.82274,-4.56146 4.60189,1.56222 5.20395,2.93654 12.57449,28.70353 4.96073,17.34257 9.60648,30.11963 15.71901,43.23145 l 2.0535,4.40496 1.0082,-6.64248 c 1.49638,-9.85894 1.19194,-53.02843 -0.44651,-63.32554 -3.26376,-20.51067 -3.26523,-19.67126 0.0395,-22.9777 4.88101,-4.88101 13.83086,-3.35002 17.82753,3.04964 4.56592,7.31118 5.95236,48.57967 3.15016,93.76523 -1.74647,28.1623 -3.09496,31.73941 -12.26119,32.52503 -4.18667,0.35857 -6.41522,-0.52431 -10.60257,-4.20059 z"
       style="fill:#000000;stroke-width:1.49166"
       id="path1172" />
  </g>
</svg>
