<?xml version="1.0" encoding="UTF-8" standalone="no"?>
<!-- Created with Inkscape (http://www.inkscape.org/) -->

<svg
   width="1000"
   height="1000"
   viewBox="0 0 264.58333 264.58333"
   version="1.1"
   id="svg1131"
   sodipodi:docname="pl.svg"
   inkscape:version="1.1.1 (3bf5ae0d25, 2021-09-20)"
   xmlns:inkscape="http://www.inkscape.org/namespaces/inkscape"
   xmlns:sodipodi="http://sodipodi.sourceforge.net/DTD/sodipodi-0.dtd"
   xmlns="http://www.w3.org/2000/svg"
   xmlns:svg="http://www.w3.org/2000/svg">
  <sodipodi:namedview
     id="namedview1133"
     pagecolor="#ffffff"
     bordercolor="#666666"
     borderopacity="1.0"
     inkscape:pageshadow="2"
     inkscape:pageopacity="0.0"
     inkscape:pagecheckerboard="0"
     inkscape:document-units="mm"
     showgrid="false"
     units="px"
     fit-margin-top="0"
     fit-margin-left="0"
     fit-margin-right="0"
     fit-margin-bottom="0"
     inkscape:zoom="0.5"
     inkscape:cx="639"
     inkscape:cy="375"
     inkscape:window-width="1920"
     inkscape:window-height="1001"
     inkscape:window-x="-9"
     inkscape:window-y="-9"
     inkscape:window-maximized="1"
     inkscape:current-layer="layer1"
     inkscape:snap-bbox="true"
     inkscape:snap-global="true"
     inkscape:bbox-paths="true"
     inkscape:object-paths="false"
     inkscape:snap-intersection-paths="false"
     inkscape:object-nodes="false"
     inkscape:snap-smooth-nodes="false"
     inkscape:snap-midpoints="false"
     inkscape:snap-object-midpoints="false"
     inkscape:snap-page="true"
     inkscape:bbox-nodes="true"
     inkscape:snap-bbox-edge-midpoints="true"
     inkscape:snap-bbox-midpoints="true" />
  <defs
     id="defs1128" />
  <g
     inkscape:label="Camada 1"
     inkscape:groupmode="layer"
     id="layer1"
     transform="translate(-722.81113,-105.92288)">
    <path
       d="m 837.20335,356.12091 c -2.27945,-0.95852 -4.6056,-3.17441 -5.16898,-4.92422 -1.21527,-3.77431 -3.51761,-53.62078 -3.3003,-71.45369 0.11159,-9.1369 -0.4448,-13.64372 -2.07186,-16.79 -1.60125,-3.09666 -1.96084,-5.88535 -1.28407,-9.95981 1.81321,-10.91679 6.94491,-17.01411 20.14403,-23.93418 24.1591,-12.66593 41.52422,5.12985 39.46721,40.44583 -0.68859,11.82162 -4.87227,22.12395 -11.54362,28.4266 -5.68398,5.36984 -10.43691,7.2263 -18.50037,7.2263 h -6.24809 l 0.86354,22.87092 c 0.70912,18.78216 0.51166,23.37305 -1.10476,25.68084 -2.62748,3.75117 -6.23024,4.52312 -11.25273,2.41141 z m 24.71298,-74.53246 c 2.47115,-3.3241 2.85564,-5.74625 2.85564,-17.98964 0,-12.37476 -0.34402,-14.49219 -2.74478,-16.8929 l -2.74477,-2.74477 -5.81404,2.87652 -5.81418,2.87657 0.73683,16.96926 c 0.40521,9.33298 1.10003,17.55656 1.54371,18.27452 1.62695,2.63227 9.07745,0.53701 11.98159,-3.36956 z"
       style="fill:#000000;stroke-width:1.36055"
       id="path2145" />
  </g>
</svg>
