<?xml version="1.0" encoding="UTF-8" standalone="no"?>
<!-- Created with Inkscape (http://www.inkscape.org/) -->

<svg
   width="1000"
   height="1000"
   viewBox="0 0 264.58333 264.58333"
   version="1.1"
   id="svg1131"
   sodipodi:docname="primeira.svg"
   inkscape:version="1.1.1 (3bf5ae0d25, 2021-09-20)"
   xmlns:inkscape="http://www.inkscape.org/namespaces/inkscape"
   xmlns:sodipodi="http://sodipodi.sourceforge.net/DTD/sodipodi-0.dtd"
   xmlns="http://www.w3.org/2000/svg"
   xmlns:svg="http://www.w3.org/2000/svg">
  <sodipodi:namedview
     id="namedview1133"
     pagecolor="#ffffff"
     bordercolor="#666666"
     borderopacity="1.0"
     inkscape:pageshadow="2"
     inkscape:pageopacity="0.0"
     inkscape:pagecheckerboard="0"
     inkscape:document-units="mm"
     showgrid="false"
     units="px"
     fit-margin-top="0"
     fit-margin-left="0"
     fit-margin-right="0"
     fit-margin-bottom="0"
     inkscape:zoom="0.5"
     inkscape:cx="396"
     inkscape:cy="379"
     inkscape:window-width="1920"
     inkscape:window-height="1017"
     inkscape:window-x="-8"
     inkscape:window-y="-8"
     inkscape:window-maximized="1"
     inkscape:current-layer="layer1"
     inkscape:snap-bbox="true"
     inkscape:snap-global="true"
     inkscape:bbox-paths="true"
     inkscape:object-paths="false"
     inkscape:snap-intersection-paths="false"
     inkscape:object-nodes="false"
     inkscape:snap-smooth-nodes="false"
     inkscape:snap-midpoints="false"
     inkscape:snap-object-midpoints="true"
     inkscape:snap-page="true"
     inkscape:bbox-nodes="true"
     inkscape:snap-bbox-edge-midpoints="true"
     inkscape:snap-bbox-midpoints="true" />
  <defs
     id="defs1128" />
  <g
     inkscape:label="Camada 1"
     inkscape:groupmode="layer"
     id="layer1"
     transform="translate(-722.81113,-105.92288)">
    <path
       d="m 1135.7445,284.75556 c -0.7138,-0.78869 -0.5386,-1.94592 0.4955,-3.27324 1.7765,-2.28018 2.6859,-6.25081 2.4119,-10.53041 -0.2521,-3.93526 -1.1586,-6.58888 -2.8585,-8.36686 -1.0186,-1.06537 -0.9704,-2.29988 0.1214,-3.11152 l 0.7406,-0.5505 0.9792,0.52434 c 1.9862,1.06349 3.9156,4.93203 4.5815,9.18612 0.4124,2.63442 0.1422,7.50692 -0.5517,9.94865 -1.0944,3.85103 -3.0452,6.65727 -4.6278,6.65727 -0.4915,0 -1.0402,-0.20543 -1.2921,-0.48385 z"
       style="fill:#000000;stroke-width:0.264583"
       id="path1502" />
    <path
       d="m 874.12655,211.4111 c -0.4308,-0.43082 -9.1029,-0.96937 -19.2716,-1.19737 -14.90266,-0.3344 -19.56596,-0.97338 -24.0421,-3.29572 -9.73166,-5.04891 -13.57936,-16.44789 -9.15644,-27.12578 3.17294,-7.66012 23.89349,-20.44317 33.13714,-20.44317 2.2936,0 3.6445,-0.83906 3.6445,-2.26382 0,-1.78118 -0.608,-1.9384 -2.8523,-0.7373 -7.8561,4.20451 -16.31753,-0.62036 -16.31753,-9.30446 0,-7.17647 7.03273,-12.04754 20.64443,-14.2991 12.4937,-2.06681 21.1606,4.81723 21.1098,16.76729 -0.017,3.38305 -1.9081,12.62259 -4.2083,20.5324 -4.1097,14.13201 -4.1327,14.41881 -1.3255,16.5195 1.571,1.17602 4.6355,2.54388 6.8098,3.03991 7.8464,1.78986 10.6544,10.06684 5.3708,15.83198 -3.3784,3.68646 -12.0191,7.49905 -13.5427,5.97564 z m -21.5869,-26.30824 c 0,-4.00046 -1.4608,-3.75345 -8.11032,1.37154 -2.8143,2.16896 -2.69614,2.27513 2.58052,2.32 4.9482,0.039 5.5298,-0.34666 5.5298,-3.69154 z"
       style="fill:#000000;stroke-width:1.4746"
       id="path2154" />
  </g>
</svg>
