<?xml version="1.0" encoding="UTF-8" standalone="no"?>
<!-- Created with Inkscape (http://www.inkscape.org/) -->

<svg
   width="1000"
   height="1000"
   viewBox="0 0 264.58333 264.58333"
   version="1.1"
   id="svg1131"
   sodipodi:docname="S.svg"
   inkscape:version="1.1.1 (3bf5ae0d25, 2021-09-20)"
   xmlns:inkscape="http://www.inkscape.org/namespaces/inkscape"
   xmlns:sodipodi="http://sodipodi.sourceforge.net/DTD/sodipodi-0.dtd"
   xmlns="http://www.w3.org/2000/svg"
   xmlns:svg="http://www.w3.org/2000/svg">
  <sodipodi:namedview
     id="namedview1133"
     pagecolor="#ffffff"
     bordercolor="#666666"
     borderopacity="1.0"
     inkscape:pageshadow="2"
     inkscape:pageopacity="0.0"
     inkscape:pagecheckerboard="0"
     inkscape:document-units="mm"
     showgrid="false"
     units="px"
     fit-margin-top="0"
     fit-margin-left="0"
     fit-margin-right="0"
     fit-margin-bottom="0"
     inkscape:zoom="0.5"
     inkscape:cx="301"
     inkscape:cy="407"
     inkscape:window-width="1920"
     inkscape:window-height="1001"
     inkscape:window-x="-9"
     inkscape:window-y="-9"
     inkscape:window-maximized="1"
     inkscape:current-layer="layer1"
     inkscape:snap-bbox="true"
     inkscape:snap-global="true"
     inkscape:bbox-paths="true" />
  <defs
     id="defs1128" />
  <g
     inkscape:label="Camada 1"
     inkscape:groupmode="layer"
     id="layer1"
     transform="translate(-722.81113,-105.92288)">
    <path
       d="m 836.40884,302.17591 c -14.4244,-8.32023 -20.618,-17.1831 -19.7939,-28.32542 0.8848,-11.9617 13.8043,-15.68455 18.6325,-5.36896 1.0479,2.23876 2.7629,5.91103 3.8119,8.16058 2.732,5.8614 11.5721,6.34433 21.7473,1.18796 9.5648,-4.84668 12.7763,-10.41368 10.6222,-18.41333 -1.8568,-6.89375 -5.74,-10.46742 -16.4285,-15.1169 -11.5547,-5.02657 -17.1833,-9.49887 -21.7389,-17.27248 -3.5763,-6.10232 -3.8754,-7.74235 -3.0985,-17.00653 1.0967,-13.08315 4.8743,-21.513 12.8651,-28.7116 7.7709,-7.00017 14.3755,-9.89489 22.577,-9.89489 7.943,0 18.2616,5.88821 21.6046,12.32826 3.3093,6.37524 4.4651,24.85103 1.9366,30.95526 -4.0109,9.68252 -18.4235,10.5667 -22.2353,1.36403 -1.4453,-3.48834 -1.3092,-5.18475 0.7673,-9.55969 5.0676,-10.67946 -1.2406,-16.77898 -10.1258,-9.79022 -3.9619,3.11677 -7.7738,15.61136 -6.0958,19.98371 1.072,2.79315 8.4585,7.33324 15.6887,9.64306 2.999,0.95788 8.617,4.52733 12.485,7.93213 17.6859,15.56774 18.8142,40.45693 2.483,54.79545 -12.2259,10.73495 -37.3349,17.93698 -45.7045,13.10958 z"
       style="fill:#000000;stroke-width:1.48732"
       id="path1232" />
  </g>
</svg>
