<?xml version="1.0" encoding="UTF-8" standalone="no"?>
<!-- Created with Inkscape (http://www.inkscape.org/) -->

<svg
   width="1000"
   height="1000"
   viewBox="0 0 264.58333 264.58333"
   version="1.1"
   id="svg1131"
   sodipodi:docname="ul.svg"
   inkscape:version="1.1.1 (3bf5ae0d25, 2021-09-20)"
   xmlns:inkscape="http://www.inkscape.org/namespaces/inkscape"
   xmlns:sodipodi="http://sodipodi.sourceforge.net/DTD/sodipodi-0.dtd"
   xmlns="http://www.w3.org/2000/svg"
   xmlns:svg="http://www.w3.org/2000/svg">
  <sodipodi:namedview
     id="namedview1133"
     pagecolor="#ffffff"
     bordercolor="#666666"
     borderopacity="1.0"
     inkscape:pageshadow="2"
     inkscape:pageopacity="0.0"
     inkscape:pagecheckerboard="0"
     inkscape:document-units="mm"
     showgrid="false"
     units="px"
     fit-margin-top="0"
     fit-margin-left="0"
     fit-margin-right="0"
     fit-margin-bottom="0"
     inkscape:zoom="0.5"
     inkscape:cx="639"
     inkscape:cy="375"
     inkscape:window-width="1920"
     inkscape:window-height="1001"
     inkscape:window-x="-9"
     inkscape:window-y="-9"
     inkscape:window-maximized="1"
     inkscape:current-layer="layer1"
     inkscape:snap-bbox="true"
     inkscape:snap-global="true"
     inkscape:bbox-paths="true"
     inkscape:object-paths="false"
     inkscape:snap-intersection-paths="false"
     inkscape:object-nodes="false"
     inkscape:snap-smooth-nodes="false"
     inkscape:snap-midpoints="false"
     inkscape:snap-object-midpoints="false"
     inkscape:snap-page="true"
     inkscape:bbox-nodes="true"
     inkscape:snap-bbox-edge-midpoints="true"
     inkscape:snap-bbox-midpoints="true" />
  <defs
     id="defs1128" />
  <g
     inkscape:label="Camada 1"
     inkscape:groupmode="layer"
     id="layer1"
     transform="translate(-722.81113,-105.92288)">
    <path
       d="m 863.65239,300.04183 c -2.35948,-2.42925 -4.28998,-4.88049 -4.28998,-5.44716 0,-0.56682 -1.64346,0.35218 -3.65216,2.04261 -8.04753,6.77155 -18.80686,2.6306 -23.45994,-9.02911 -3.6015,-9.02471 -4.53239,-17.45462 -3.64448,-33.0048 0.88328,-15.46934 2.53863,-22.82431 5.89163,-26.17718 3.13434,-3.13447 8.7283,-2.9647 11.84666,0.35936 2.75353,2.93514 2.75376,8.37069 7.2e-4,18.6957 -1.56436,5.867 -1.23188,28.03355 0.46102,30.73544 0.80334,1.28213 1.45553,0.88243 2.9054,-1.78051 1.42151,-2.611 2.01964,-8.50806 2.49601,-24.60828 l 0.62648,-21.17434 3.33052,-2.86295 c 4.20502,-3.61465 6.9415,-3.61371 11.14441,0 l 3.33048,2.86654 0.0763,21.76425 c 0.0592,16.93496 0.52755,23.27892 2.11049,28.58978 1.11887,3.754 2.45281,6.82544 2.96435,6.82544 2.58573,0 6.12578,5.13258 6.12578,8.88168 0,4.97637 -3.43394,7.73667 -9.62495,7.73667 -3.45902,0 -5.22621,-0.90356 -8.63857,-4.41668 z"
       style="fill:#000000;stroke-width:1.18703"
       id="path2243" />
  </g>
</svg>
