<?xml version="1.0" encoding="UTF-8" standalone="no"?>
<!-- Created with Inkscape (http://www.inkscape.org/) -->

<svg
   width="1000"
   height="1000"
   viewBox="0 0 264.58333 264.58333"
   version="1.1"
   id="svg1131"
   sodipodi:docname="W.svg"
   inkscape:version="1.1.1 (3bf5ae0d25, 2021-09-20)"
   xmlns:inkscape="http://www.inkscape.org/namespaces/inkscape"
   xmlns:sodipodi="http://sodipodi.sourceforge.net/DTD/sodipodi-0.dtd"
   xmlns="http://www.w3.org/2000/svg"
   xmlns:svg="http://www.w3.org/2000/svg">
  <sodipodi:namedview
     id="namedview1133"
     pagecolor="#ffffff"
     bordercolor="#666666"
     borderopacity="1.0"
     inkscape:pageshadow="2"
     inkscape:pageopacity="0.0"
     inkscape:pagecheckerboard="0"
     inkscape:document-units="mm"
     showgrid="false"
     units="px"
     fit-margin-top="0"
     fit-margin-left="0"
     fit-margin-right="0"
     fit-margin-bottom="0"
     inkscape:zoom="0.5"
     inkscape:cx="301"
     inkscape:cy="407"
     inkscape:window-width="1920"
     inkscape:window-height="1001"
     inkscape:window-x="-9"
     inkscape:window-y="-9"
     inkscape:window-maximized="1"
     inkscape:current-layer="layer1"
     inkscape:snap-bbox="true"
     inkscape:snap-global="true"
     inkscape:bbox-paths="true" />
  <defs
     id="defs1128" />
  <g
     inkscape:label="Camada 1"
     inkscape:groupmode="layer"
     id="layer1"
     transform="translate(-722.81113,-105.92288)">
    <path
       d="m 869.99245,297.77821 c -3.30412,-3.48804 -7.99597,-10.41955 -10.42629,-15.40333 -2.43032,-4.98368 -4.7502,-9.08665 -5.15525,-9.11744 -0.40528,-0.0334 -2.39352,3.9461 -4.41879,8.83786 -4.7885,11.56563 -10.5918,17.60608 -16.91483,17.60608 -16.67428,0 -25.22572,-27.34746 -25.7106,-82.22292 -0.28392,-32.14849 0.28224,-34.13857 9.71276,-34.13857 9.10313,0 15.32524,9.91229 12.19448,19.42659 -2.16227,6.57094 -1.07582,42.65711 1.72109,57.16578 l 1.84562,9.57404 2.04965,-6.62816 c 4.01196,-12.97374 6.09256,-28.62848 5.28557,-39.76913 -0.71681,-9.89586 -0.47152,-11.39221 2.356,-14.36108 4.03428,-4.23609 11.87426,-4.44245 15.52481,-0.40862 1.68769,1.86483 3.05182,6.74451 3.80904,13.62458 0.64883,5.89554 2.49022,14.72561 4.09207,19.62233 5.16872,15.80087 12.20048,33.07544 13.46368,33.07544 0.67628,0 1.49379,-3.81121 1.81673,-8.46939 0.97567,-14.07294 0.25052,-77.31457 -0.95279,-83.07628 -0.92484,-4.42882 -0.57735,-5.92511 1.96687,-8.46933 6.46951,-6.46945 17.49346,-1.19668 20.22129,9.67191 0.51049,2.03361 0.56137,23.35844 0.11301,47.38842 -1.12749,60.46661 -4.42097,72.41324 -19.96303,72.41324 -5.89416,0 -7.28579,-0.69877 -12.63137,-6.34196 z"
       style="fill:#000000;stroke-width:1.47293"
       id="path1280" />
  </g>
</svg>
