<?xml version="1.0" encoding="UTF-8" standalone="no"?>
<!-- Created with Inkscape (http://www.inkscape.org/) -->

<svg
   width="1000"
   height="1000"
   viewBox="0 0 264.58333 264.58333"
   version="1.1"
   id="svg1131"
   sodipodi:docname="wl.svg"
   inkscape:version="1.1.1 (3bf5ae0d25, 2021-09-20)"
   xmlns:inkscape="http://www.inkscape.org/namespaces/inkscape"
   xmlns:sodipodi="http://sodipodi.sourceforge.net/DTD/sodipodi-0.dtd"
   xmlns="http://www.w3.org/2000/svg"
   xmlns:svg="http://www.w3.org/2000/svg">
  <sodipodi:namedview
     id="namedview1133"
     pagecolor="#ffffff"
     bordercolor="#666666"
     borderopacity="1.0"
     inkscape:pageshadow="2"
     inkscape:pageopacity="0.0"
     inkscape:pagecheckerboard="0"
     inkscape:document-units="mm"
     showgrid="false"
     units="px"
     fit-margin-top="0"
     fit-margin-left="0"
     fit-margin-right="0"
     fit-margin-bottom="0"
     inkscape:zoom="0.5"
     inkscape:cx="639"
     inkscape:cy="375"
     inkscape:window-width="1920"
     inkscape:window-height="1001"
     inkscape:window-x="-9"
     inkscape:window-y="-9"
     inkscape:window-maximized="1"
     inkscape:current-layer="layer1"
     inkscape:snap-bbox="true"
     inkscape:snap-global="true"
     inkscape:bbox-paths="true"
     inkscape:object-paths="false"
     inkscape:snap-intersection-paths="false"
     inkscape:object-nodes="false"
     inkscape:snap-smooth-nodes="false"
     inkscape:snap-midpoints="false"
     inkscape:snap-object-midpoints="false"
     inkscape:snap-page="true"
     inkscape:bbox-nodes="true"
     inkscape:snap-bbox-edge-midpoints="true"
     inkscape:snap-bbox-midpoints="true" />
  <defs
     id="defs1128" />
  <g
     inkscape:label="Camada 1"
     inkscape:groupmode="layer"
     id="layer1"
     transform="translate(-722.81113,-105.92288)">
    <path
       d="m 869.97701,303.76802 c -4.0195,-0.59259 -8.3178,-3.42674 -15.559,-10.25865 -3.256,-3.07208 -5.6522,-4.6026 -5.9499,-3.80064 -2.2422,6.04065 -9.9623,10.95688 -15.7345,10.02017 -12.9176,-2.0962 -19.65219,-17.61355 -19.79114,-45.60101 -0.0804,-16.24165 0.45464,-18.11279 5.75824,-20.12922 3.2788,-1.24658 7.8376,0.74655 8.9149,3.89755 0.4416,1.29141 0.67,6.37687 0.508,11.30097 -0.4018,12.18172 2.9295,31.89465 5.3891,31.89465 1.8936,0 3.7758,-15.64606 2.4244,-20.15641 -1.8572,-6.19863 -1.5214,-10.52871 1.0718,-13.82547 2.7743,-3.5269 8.6967,-4.04415 11.3378,-0.9903 2.0531,2.37438 4.2487,8.63202 4.2487,12.11032 0,1.3991 2.1043,6.64817 4.6764,11.66469 4.8388,9.4377 13.1176,18.29868 16.5127,17.67446 0.964,-0.17723 3.0116,-2.84021 4.5504,-5.91774 2.6063,-5.21239 2.7899,-6.66856 2.685,-21.26312 -0.085,-11.60851 -0.5909,-16.93612 -1.9584,-20.5644 -2.4925,-6.6126 -2.3246,-9.37088 0.7445,-12.25427 6.4177,-6.02906 12.6172,-0.90959 15.995,13.20819 1.9436,8.12349 1.9668,32.53241 0.042,39.75446 -3.6435,13.64063 -13.088,24.56605 -20.6541,23.89323 -1.0371,-0.0918 -3.3803,-0.38829 -5.2076,-0.65746 z"
       style="fill:#000000;stroke-width:1.11911"
       id="path2267" />
  </g>
</svg>
