<?xml version="1.0" encoding="UTF-8" standalone="no"?>
<!-- Created with Inkscape (http://www.inkscape.org/) -->

<svg
   width="1000"
   height="1000"
   viewBox="0 0 264.58333 264.58333"
   version="1.1"
   id="svg1131"
   sodipodi:docname="X.svg"
   inkscape:version="1.1.1 (3bf5ae0d25, 2021-09-20)"
   xmlns:inkscape="http://www.inkscape.org/namespaces/inkscape"
   xmlns:sodipodi="http://sodipodi.sourceforge.net/DTD/sodipodi-0.dtd"
   xmlns="http://www.w3.org/2000/svg"
   xmlns:svg="http://www.w3.org/2000/svg">
  <sodipodi:namedview
     id="namedview1133"
     pagecolor="#ffffff"
     bordercolor="#666666"
     borderopacity="1.0"
     inkscape:pageshadow="2"
     inkscape:pageopacity="0.0"
     inkscape:pagecheckerboard="0"
     inkscape:document-units="mm"
     showgrid="false"
     units="px"
     fit-margin-top="0"
     fit-margin-left="0"
     fit-margin-right="0"
     fit-margin-bottom="0"
     inkscape:zoom="0.5"
     inkscape:cx="301"
     inkscape:cy="407"
     inkscape:window-width="1920"
     inkscape:window-height="1001"
     inkscape:window-x="-9"
     inkscape:window-y="-9"
     inkscape:window-maximized="1"
     inkscape:current-layer="layer1"
     inkscape:snap-bbox="true"
     inkscape:snap-global="true"
     inkscape:bbox-paths="true" />
  <defs
     id="defs1128" />
  <g
     inkscape:label="Camada 1"
     inkscape:groupmode="layer"
     id="layer1"
     transform="translate(-722.81113,-105.92288)">
    <path
       d="m 815.39475,302.92583 c -4.45509,-1.63821 -7.35341,-5.40254 -7.35341,-9.55092 0,-2.46903 3.08709,-9.47376 7.35341,-16.68498 24.10009,-40.73588 22.00437,-36.27779 20.42114,-43.44037 -3.56701,-16.1367 -4.1929,-17.46118 -9.24981,-19.57414 -9.25854,-3.86833 -10.43099,-18.12758 -2.0691,-25.16371 10.247,-8.62225 20.80584,-2.41489 25.41101,14.93872 1.47,5.53923 2.97592,10.61209 3.3465,11.273 0.37075,0.66096 5.84127,-6.28807 12.15708,-15.44221 16.85329,-24.42733 20.39884,-28.16859 26.52972,-27.99428 5.69925,0.16231 10.22415,4.51301 10.22415,9.83106 0,1.8163 -2.47687,6.54109 -5.50415,10.49958 -3.02733,3.9585 -12.61448,17.37636 -21.30477,29.81753 -16.62667,23.80293 -16.48587,23.42584 -12.63933,33.84777 l 1.3003,3.52304 3.3589,-3.1554 c 4.18712,-3.93365 8.30653,-4.00835 13.10047,-0.23735 5.06063,3.98073 5.96189,8.85883 3.18263,17.22677 -5.18253,15.60402 -13.17456,21.75385 -22.9149,17.6331 -6.23043,-2.6359 -9.15209,-5.95316 -13.09608,-14.86907 l -3.15518,-7.13285 -5.90019,10.12789 c -3.24506,5.5704 -7.24808,12.88135 -8.89556,16.24669 -3.63627,7.42773 -8.6799,10.34761 -14.30283,8.28013 z"
       style="fill:#000000;stroke-width:1.47069"
       id="path1292" />
  </g>
</svg>
