<?xml version="1.0" encoding="UTF-8" standalone="no"?>
<!-- Created with Inkscape (http://www.inkscape.org/) -->

<svg
   width="1000"
   height="1000"
   viewBox="0 0 264.58333 264.58333"
   version="1.1"
   id="svg1131"
   sodipodi:docname="Y.svg"
   inkscape:version="1.1.1 (3bf5ae0d25, 2021-09-20)"
   xmlns:inkscape="http://www.inkscape.org/namespaces/inkscape"
   xmlns:sodipodi="http://sodipodi.sourceforge.net/DTD/sodipodi-0.dtd"
   xmlns="http://www.w3.org/2000/svg"
   xmlns:svg="http://www.w3.org/2000/svg">
  <sodipodi:namedview
     id="namedview1133"
     pagecolor="#ffffff"
     bordercolor="#666666"
     borderopacity="1.0"
     inkscape:pageshadow="2"
     inkscape:pageopacity="0.0"
     inkscape:pagecheckerboard="0"
     inkscape:document-units="mm"
     showgrid="false"
     units="px"
     fit-margin-top="0"
     fit-margin-left="0"
     fit-margin-right="0"
     fit-margin-bottom="0"
     inkscape:zoom="0.5"
     inkscape:cx="301"
     inkscape:cy="407"
     inkscape:window-width="1920"
     inkscape:window-height="1001"
     inkscape:window-x="-9"
     inkscape:window-y="-9"
     inkscape:window-maximized="1"
     inkscape:current-layer="layer1"
     inkscape:snap-bbox="true"
     inkscape:snap-global="true"
     inkscape:bbox-paths="true" />
  <defs
     id="defs1128" />
  <g
     inkscape:label="Camada 1"
     inkscape:groupmode="layer"
     id="layer1"
     transform="translate(-722.81113,-105.92288)">
    <path
       d="m 812.7672,303.0086 c -1.91277,-0.95348 -4.34378,-3.53968 -5.4022,-5.74713 -2.98128,-6.21749 2.6354,-16.75241 17.05101,-31.98152 l 11.95194,-12.62637 -5.23317,-16.65017 c -2.87827,-9.15759 -7.61287,-22.82328 -10.52136,-30.36829 -4.90673,-12.72876 -5.13288,-13.99479 -3.13531,-17.55374 2.98543,-5.3189 9.21332,-7.33076 14.10997,-4.55809 4.30205,2.43593 9.79719,14.78019 15.95003,35.82994 2.11884,7.2489 4.18283,13.7455 4.58659,14.43686 2.86588,4.90684 31.11803,-42.12447 31.11803,-51.80205 0,-3.81238 6.26454,-10.22851 9.98687,-10.22851 1.53884,0 4.53429,1.36583 6.65645,3.03513 6.96607,5.47953 4.17984,19.28697 -8.40047,41.62971 -8.64263,15.34949 -14.92514,23.25593 -39.16511,49.28818 -12.14838,13.04684 -23.46083,26.54721 -25.13877,30.00088 -3.55153,7.31012 -8.92678,10.03043 -14.4145,7.29517 z"
       style="fill:#000000;stroke-width:1.46442"
       id="path1304" />
  </g>
</svg>
