<?xml version="1.0" encoding="UTF-8" standalone="no"?>
<!-- Created with Inkscape (http://www.inkscape.org/) -->

<svg
   width="1000"
   height="1000"
   viewBox="0 0 264.58333 264.58333"
   version="1.1"
   id="svg1131"
   sodipodi:docname="yl.svg"
   inkscape:version="1.1.1 (3bf5ae0d25, 2021-09-20)"
   xmlns:inkscape="http://www.inkscape.org/namespaces/inkscape"
   xmlns:sodipodi="http://sodipodi.sourceforge.net/DTD/sodipodi-0.dtd"
   xmlns="http://www.w3.org/2000/svg"
   xmlns:svg="http://www.w3.org/2000/svg">
  <sodipodi:namedview
     id="namedview1133"
     pagecolor="#ffffff"
     bordercolor="#666666"
     borderopacity="1.0"
     inkscape:pageshadow="2"
     inkscape:pageopacity="0.0"
     inkscape:pagecheckerboard="0"
     inkscape:document-units="mm"
     showgrid="false"
     units="px"
     fit-margin-top="0"
     fit-margin-left="0"
     fit-margin-right="0"
     fit-margin-bottom="0"
     inkscape:zoom="0.5"
     inkscape:cx="639"
     inkscape:cy="375"
     inkscape:window-width="1920"
     inkscape:window-height="1001"
     inkscape:window-x="-9"
     inkscape:window-y="-9"
     inkscape:window-maximized="1"
     inkscape:current-layer="layer1"
     inkscape:snap-bbox="true"
     inkscape:snap-global="true"
     inkscape:bbox-paths="true"
     inkscape:object-paths="false"
     inkscape:snap-intersection-paths="false"
     inkscape:object-nodes="false"
     inkscape:snap-smooth-nodes="false"
     inkscape:snap-midpoints="false"
     inkscape:snap-object-midpoints="false"
     inkscape:snap-page="true"
     inkscape:bbox-nodes="true"
     inkscape:snap-bbox-edge-midpoints="true"
     inkscape:snap-bbox-midpoints="true" />
  <defs
     id="defs1128" />
  <g
     inkscape:label="Camada 1"
     inkscape:groupmode="layer"
     id="layer1"
     transform="translate(-722.81113,-105.92288)">
    <path
       d="m 834.83569,342.92772 c -5.1443,-1.42993 -7.158,-3.90789 -7.158,-8.80765 0,-4.69876 3.1797,-7.71143 8.1392,-7.71143 3.0652,0 4.4733,-0.95406 7.4826,-5.07026 4.2028,-5.74871 8.5927,-15.08563 11.1642,-23.74403 1.727,-5.81518 1.7148,-5.89165 -1.0993,-6.96163 -5.6989,-2.16675 -12.3672,-18.17275 -16.7819,-40.28333 -2.1914,-10.9757 -2.19,-11.06006 0.2299,-14.31599 3.5035,-4.71224 10.0113,-5.11476 14.2448,-0.88115 2.4727,2.4725 2.9836,3.87786 2.4254,6.66936 -0.7097,3.54821 0.7124,11.01254 4.6352,24.32574 2.7013,9.1695 3.1847,7.83002 5.9243,-16.42894 1.6481,-14.58857 2.6482,-19.49239 4.4418,-21.77222 4.7394,-6.02539 14.0973,-2.22351 14.0464,5.70669 0,2.13248 -1.0393,12.19845 -2.2793,22.36876 -5.5654,45.65432 -18.5111,77.64793 -34.7764,85.94585 -5.0924,2.59798 -4.8322,2.57449 -10.6394,0.96023 z"
       style="fill:#000000;stroke-width:1.193"
       id="path2310" />
  </g>
</svg>
