<?xml version="1.0" encoding="UTF-8" standalone="no"?>
<!-- Created with Inkscape (http://www.inkscape.org/) -->

<svg
   width="1000"
   height="1000"
   viewBox="0 0 264.58333 264.58333"
   version="1.1"
   id="svg1131"
   sodipodi:docname="zl.svg"
   inkscape:version="1.1.1 (3bf5ae0d25, 2021-09-20)"
   xmlns:inkscape="http://www.inkscape.org/namespaces/inkscape"
   xmlns:sodipodi="http://sodipodi.sourceforge.net/DTD/sodipodi-0.dtd"
   xmlns="http://www.w3.org/2000/svg"
   xmlns:svg="http://www.w3.org/2000/svg">
  <sodipodi:namedview
     id="namedview1133"
     pagecolor="#ffffff"
     bordercolor="#666666"
     borderopacity="1.0"
     inkscape:pageshadow="2"
     inkscape:pageopacity="0.0"
     inkscape:pagecheckerboard="0"
     inkscape:document-units="mm"
     showgrid="false"
     units="px"
     fit-margin-top="0"
     fit-margin-left="0"
     fit-margin-right="0"
     fit-margin-bottom="0"
     inkscape:zoom="0.5"
     inkscape:cx="639"
     inkscape:cy="551"
     inkscape:window-width="1920"
     inkscape:window-height="1001"
     inkscape:window-x="-9"
     inkscape:window-y="-9"
     inkscape:window-maximized="1"
     inkscape:current-layer="layer1"
     inkscape:snap-bbox="true"
     inkscape:snap-global="true"
     inkscape:bbox-paths="true"
     inkscape:object-paths="false"
     inkscape:snap-intersection-paths="false"
     inkscape:object-nodes="false"
     inkscape:snap-smooth-nodes="false"
     inkscape:snap-midpoints="false"
     inkscape:snap-object-midpoints="false"
     inkscape:snap-page="true"
     inkscape:bbox-nodes="true"
     inkscape:snap-bbox-edge-midpoints="true"
     inkscape:snap-bbox-midpoints="true" />
  <defs
     id="defs1128" />
  <g
     inkscape:label="Camada 1"
     inkscape:groupmode="layer"
     id="layer1"
     transform="translate(-722.81113,-105.92288)">
    <path
       d="m 827.78772,304.06674 c -7.3206,-2.64302 -8.385,-10.06422 -2.5309,-17.6489 2.1037,-2.72619 8.422,-11.76514 14.0407,-20.08683 l 10.2147,-15.13023 -3.9224,-1.89966 c -8.6858,-4.20666 -11.2633,-11.9992 -5.782,-17.48081 3.648,-3.64806 7.174,-3.94223 12.1339,-1.01249 3.478,2.05449 3.7072,2.00605 9.0284,-1.90706 6.4091,-4.71332 8.5286,-4.93743 13.0507,-1.38004 5.118,4.02575 4.4832,9.43816 -2.5674,21.88275 -3.2545,5.7445 -8.3955,14.14479 -11.4237,18.6671 l -5.5062,8.22256 4.045,4.17321 c 4.6994,4.84848 6.8973,5.10974 13.7167,1.63053 6.5158,-3.32396 10.3705,-3.21209 13.7634,0.39979 3.6072,3.83978 3.5524,9.26161 -0.125,12.53891 -3.8085,3.39253 -16.9189,8.67438 -21.5308,8.67438 -4.3482,0 -12.1287,-3.75992 -15.5048,-7.49289 -3.3381,-3.69126 -4.4726,-3.4178 -9.6208,2.3192 -4.5635,5.08509 -8.053,6.76655 -11.4771,5.53043 z"
       style="fill:#000000;stroke-width:1.27136"
       id="path2341" />
  </g>
</svg>
