<?xml version="1.0" encoding="UTF-8" standalone="no"?>
<!-- Created with Inkscape (http://www.inkscape.org/) -->

<svg
   width="1000"
   height="1000"
   viewBox="0 0 264.58333 264.58333"
   version="1.1"
   id="svg1131"
   sodipodi:docname="À.svg"
   inkscape:version="1.1.1 (3bf5ae0d25, 2021-09-20)"
   xmlns:inkscape="http://www.inkscape.org/namespaces/inkscape"
   xmlns:sodipodi="http://sodipodi.sourceforge.net/DTD/sodipodi-0.dtd"
   xmlns="http://www.w3.org/2000/svg"
   xmlns:svg="http://www.w3.org/2000/svg">
  <sodipodi:namedview
     id="namedview1133"
     pagecolor="#ffffff"
     bordercolor="#666666"
     borderopacity="1.0"
     inkscape:pageshadow="2"
     inkscape:pageopacity="0.0"
     inkscape:pagecheckerboard="0"
     inkscape:document-units="mm"
     showgrid="false"
     units="px"
     fit-margin-top="0"
     fit-margin-left="0"
     fit-margin-right="0"
     fit-margin-bottom="0"
     inkscape:zoom="0.5"
     inkscape:cx="640"
     inkscape:cy="375"
     inkscape:window-width="1920"
     inkscape:window-height="1017"
     inkscape:window-x="-8"
     inkscape:window-y="-8"
     inkscape:window-maximized="1"
     inkscape:current-layer="layer1"
     inkscape:snap-bbox="true"
     inkscape:snap-global="true"
     inkscape:bbox-paths="true"
     inkscape:object-paths="false"
     inkscape:snap-intersection-paths="false"
     inkscape:object-nodes="false"
     inkscape:snap-smooth-nodes="false"
     inkscape:snap-midpoints="false"
     inkscape:snap-object-midpoints="false"
     inkscape:snap-page="true"
     inkscape:bbox-nodes="true"
     inkscape:snap-bbox-edge-midpoints="true"
     inkscape:snap-bbox-midpoints="true" />
  <defs
     id="defs1128" />
  <g
     inkscape:label="Camada 1"
     inkscape:groupmode="layer"
     id="layer1"
     transform="translate(-722.81113,-105.92288)">
    <path
       d="m 898.97605,302.65361 c -4.65018,-2.58208 -15.62944,-17.55102 -21.30552,-29.04765 l -4.73936,-9.59941 -13.36153,0.38848 c -7.34881,0.21378 -16.79399,0.75287 -20.98925,1.19812 l -7.62779,0.80973 -1.80054,7.66267 c -4.02083,17.1117 -13.13346,26.12314 -26.41639,26.12314 -3.97439,0 -8.95478,-5.62675 -8.95478,-10.11689 0,-4.35173 4.70236,-10.55867 7.99924,-10.55867 3.63503,0 5.38032,-4.00912 11.34933,-26.07112 3.26267,-12.05915 9.18635,-32.22656 13.16376,-44.81646 8.36223,-26.4697 13.2965,-34.76092 21.61558,-36.32163 8.48648,-1.59217 12.08762,2.29542 19.38647,20.9287 3.47539,8.87217 9.69307,24.77073 13.81705,35.33004 12.10464,30.99338 19.69452,45.70624 27.90313,54.08944 8.66944,8.85385 9.61861,14.05449 3.45061,18.90617 -4.40837,3.46774 -8.60397,3.80829 -13.49001,1.09523 z M 863.1916,242.64488 c 0,-1.95454 -12.02314,-34.47452 -13.28148,-35.92342 -0.84278,-0.9706 -11.86798,32.78992 -11.83504,36.24036 0.006,0.60917 5.6594,1.10763 12.56356,1.10763 7.07704,0 12.55296,-0.62147 12.55296,-1.42457 z m -19.19329,-84.6632 c -2.4723,-1.25075 -6.22225,-6.95943 -11.38432,-17.33085 -4.23371,-8.50622 -7.72511,-16.53912 -7.75872,-17.851 -0.11999,-4.68018 5.75937,-10.16778 10.8934,-10.16778 6.0926,0 7.60245,1.81014 16.12425,19.33193 7.9738,16.39513 8.47537,20.5564 2.99699,24.86558 -4.51124,3.54868 -5.85364,3.6909 -10.8716,1.15212 z"
       style="fill:#000000;stroke-width:1.47682"
       id="path2391" />
  </g>
</svg>
