<?xml version="1.0" encoding="UTF-8" standalone="no"?>
<!-- Created with Inkscape (http://www.inkscape.org/) -->

<svg
   width="1000"
   height="1000"
   viewBox="0 0 264.58333 264.58333"
   version="1.1"
   id="svg1131"
   sodipodi:docname="Ã.svg"
   inkscape:version="1.1.1 (3bf5ae0d25, 2021-09-20)"
   xmlns:inkscape="http://www.inkscape.org/namespaces/inkscape"
   xmlns:sodipodi="http://sodipodi.sourceforge.net/DTD/sodipodi-0.dtd"
   xmlns="http://www.w3.org/2000/svg"
   xmlns:svg="http://www.w3.org/2000/svg">
  <sodipodi:namedview
     id="namedview1133"
     pagecolor="#ffffff"
     bordercolor="#666666"
     borderopacity="1.0"
     inkscape:pageshadow="2"
     inkscape:pageopacity="0.0"
     inkscape:pagecheckerboard="0"
     inkscape:document-units="mm"
     showgrid="false"
     units="px"
     fit-margin-top="0"
     fit-margin-left="0"
     fit-margin-right="0"
     fit-margin-bottom="0"
     inkscape:zoom="0.5"
     inkscape:cx="640"
     inkscape:cy="375"
     inkscape:window-width="1920"
     inkscape:window-height="1017"
     inkscape:window-x="-8"
     inkscape:window-y="-8"
     inkscape:window-maximized="1"
     inkscape:current-layer="layer1"
     inkscape:snap-bbox="true"
     inkscape:snap-global="true"
     inkscape:bbox-paths="true"
     inkscape:object-paths="false"
     inkscape:snap-intersection-paths="false"
     inkscape:object-nodes="false"
     inkscape:snap-smooth-nodes="false"
     inkscape:snap-midpoints="false"
     inkscape:snap-object-midpoints="false"
     inkscape:snap-page="true"
     inkscape:bbox-nodes="true"
     inkscape:snap-bbox-edge-midpoints="true"
     inkscape:snap-bbox-midpoints="true" />
  <defs
     id="defs1128" />
  <g
     inkscape:label="Camada 1"
     inkscape:groupmode="layer"
     id="layer1"
     transform="translate(-722.81113,-105.92288)">
    <path
       d="m 895.88696,299.54165 c -5.9862,-5.98839 -16.86471,-22.45015 -19.97536,-30.22734 l -2.32658,-5.81688 -13.73699,0.391 c -7.55534,0.21516 -17.15032,0.75255 -21.3221,1.19444 l -7.58512,0.80339 -1.92312,8.46688 c -3.66444,16.13295 -12.91612,25.56001 -25.08435,25.56001 -9.55233,0 -14.28943,-12.11363 -6.80245,-17.39526 2.0821,-1.46886 5.12516,-3.67388 6.76234,-4.90012 2.11704,-1.5856 4.83698,-9.09769 9.41813,-26.01128 14.72722,-54.37301 23.4979,-76.54873 31.47531,-79.58169 11.81094,-4.49059 15.9079,0.66812 29.55972,37.22051 17.37368,46.51752 25.3585,63.09797 35.30649,73.31404 7.91701,8.13038 9.14359,13.78401 4.08746,18.84019 -4.68597,4.68603 -12.08116,3.9164 -17.85338,-1.85795 z M 863.20418,241.6367 c 0,-2.17518 -11.86999,-34.17098 -13.24959,-35.71467 -0.79205,-0.88631 -12.01852,33.2681 -12.01852,36.56396 0,0.5202 5.68531,0.94564 12.63405,0.94564 8.87978,0 12.63406,-0.53313 12.63406,-1.79493 z m -21.35177,-84.52181 c -6.14063,-4.83018 -5.1955,-10.32972 4.63059,-26.94455 7.99201,-13.51351 12.03138,-17.53828 17.60181,-17.53828 3.42373,0 9.52779,6.88706 9.49116,10.70846 -0.0168,1.87655 -3.36227,8.75215 -7.43181,15.27917 -4.06948,6.5269 -7.39906,12.66546 -7.39906,13.64092 0,2.41849 -7.23333,7.93493 -10.40454,7.93493 -1.41449,0 -4.33414,-1.38634 -6.48815,-3.08065 z"
       style="fill:#000000;stroke-width:1.48636"
       id="path2403" />
  </g>
</svg>
