<?xml version="1.0" encoding="UTF-8" standalone="no"?>
<!-- Created with Inkscape (http://www.inkscape.org/) -->

<svg
   width="1000"
   height="1000"
   viewBox="0 0 264.58333 264.58333"
   version="1.1"
   id="svg1131"
   sodipodi:docname="ãl.svg"
   inkscape:version="1.1.1 (3bf5ae0d25, 2021-09-20)"
   xmlns:inkscape="http://www.inkscape.org/namespaces/inkscape"
   xmlns:sodipodi="http://sodipodi.sourceforge.net/DTD/sodipodi-0.dtd"
   xmlns="http://www.w3.org/2000/svg"
   xmlns:svg="http://www.w3.org/2000/svg">
  <sodipodi:namedview
     id="namedview1133"
     pagecolor="#ffffff"
     bordercolor="#666666"
     borderopacity="1.0"
     inkscape:pageshadow="2"
     inkscape:pageopacity="0.0"
     inkscape:pagecheckerboard="0"
     inkscape:document-units="mm"
     showgrid="false"
     units="px"
     fit-margin-top="0"
     fit-margin-left="0"
     fit-margin-right="0"
     fit-margin-bottom="0"
     inkscape:zoom="0.35355339"
     inkscape:cx="741.04791"
     inkscape:cy="383.25188"
     inkscape:window-width="1920"
     inkscape:window-height="1017"
     inkscape:window-x="-8"
     inkscape:window-y="-8"
     inkscape:window-maximized="1"
     inkscape:current-layer="layer1"
     inkscape:snap-bbox="true"
     inkscape:snap-global="true"
     inkscape:bbox-paths="true"
     inkscape:object-paths="false"
     inkscape:snap-intersection-paths="false"
     inkscape:object-nodes="false"
     inkscape:snap-smooth-nodes="false"
     inkscape:snap-midpoints="false"
     inkscape:snap-object-midpoints="false"
     inkscape:snap-page="true"
     inkscape:bbox-nodes="true"
     inkscape:snap-bbox-edge-midpoints="true"
     inkscape:snap-bbox-midpoints="true" />
  <defs
     id="defs1128" />
  <g
     inkscape:label="Camada 1"
     inkscape:groupmode="layer"
     id="layer1"
     transform="translate(-722.81113,-105.92288)">
    <path
       d="m 837.54869,301.67138 c -6.26365,-4.12861 -11.41802,-11.99336 -14.49126,-22.11125 -2.42885,-7.99659 -2.61871,-10.51732 -1.45043,-19.26023 1.12256,-8.4009 2.35155,-11.59955 7.45396,-19.39995 7.6433,-11.68488 10.44216,-14.20679 17.12268,-15.42837 8.3642,-1.52954 13.3025,-0.14557 19.7582,5.53682 8.486,7.46969 10.4558,13.39559 10.858,32.66478 0.2804,13.43386 0.7484,16.51543 2.8633,18.85227 1.3904,1.53638 3.3517,2.7934 4.3586,2.7934 3.023,0 7.2745,5.20637 7.2745,8.90835 0,1.90793 -1.5751,5.0395 -3.5059,6.97032 -2.9189,2.91877 -4.3897,3.38738 -8.7828,2.79819 -2.9022,-0.38939 -7.1287,-2.0265 -9.3922,-3.63819 l -4.1154,-2.93044 -5.1107,3.47287 c -6.5036,4.41935 -16.77968,4.76641 -22.84055,0.77143 z m 17.66855,-28.98379 c 3.7683,-12.68887 1.9388,-26.84777 -3.6069,-27.91581 -3.1068,-0.59829 -5.0965,6.02127 -6.6356,22.07638 -1.15124,12.00833 -1.0348,13.80068 1.0456,16.0995 2.2944,2.53528 2.3888,2.52777 4.742,-0.37808 1.3205,-1.63078 3.3252,-6.07754 4.4549,-9.88178 z m -43.35571,-77.29324 c -2.79824,-2.20109 -3.58603,-4.00784 -3.58603,-8.22431 0,-4.52912 0.99391,-6.46606 6.14215,-11.96996 7.24372,-7.74412 20.25805,-15.09494 26.71224,-15.08774 6.36385,0.005 12.79955,4.33211 16.11425,10.82945 2.1815,4.27609 3.5841,5.49741 6.3139,5.49741 5.8108,0 12.4564,-4.01447 18.4026,-11.11658 5.0234,-5.99982 6.1366,-6.6745 10.4074,-6.30722 5.8556,0.50359 10.5916,5.9831 9.3718,10.84313 -0.4393,1.75084 -3.9038,6.66688 -7.6987,10.92461 -16.5441,18.56215 -41.6221,21.05829 -50.76053,5.05246 -1.66195,-2.91084 -3.38918,-5.29721 -3.83824,-5.30297 -2.10325,-0.0257 -12.11296,8.40651 -12.11296,10.20554 0,3.11115 -5.05828,7.47695 -8.66293,7.47695 -1.77038,0 -4.83266,-1.26936 -6.80495,-2.82077 z"
       style="fill:#000000;stroke-width:1.36099"
       id="path1189" />
  </g>
</svg>
