<?xml version="1.0" encoding="UTF-8" standalone="no"?>
<!-- Created with Inkscape (http://www.inkscape.org/) -->

<svg
   width="1000"
   height="1000"
   viewBox="0 0 264.58333 264.58333"
   version="1.1"
   id="svg1131"
   sodipodi:docname="Ç.svg"
   inkscape:version="1.1.1 (3bf5ae0d25, 2021-09-20)"
   xmlns:inkscape="http://www.inkscape.org/namespaces/inkscape"
   xmlns:sodipodi="http://sodipodi.sourceforge.net/DTD/sodipodi-0.dtd"
   xmlns="http://www.w3.org/2000/svg"
   xmlns:svg="http://www.w3.org/2000/svg">
  <sodipodi:namedview
     id="namedview1133"
     pagecolor="#ffffff"
     bordercolor="#666666"
     borderopacity="1.0"
     inkscape:pageshadow="2"
     inkscape:pageopacity="0.0"
     inkscape:pagecheckerboard="0"
     inkscape:document-units="mm"
     showgrid="false"
     units="px"
     fit-margin-top="0"
     fit-margin-left="0"
     fit-margin-right="0"
     fit-margin-bottom="0"
     inkscape:zoom="0.5"
     inkscape:cx="640"
     inkscape:cy="375"
     inkscape:window-width="1920"
     inkscape:window-height="1017"
     inkscape:window-x="-8"
     inkscape:window-y="-8"
     inkscape:window-maximized="1"
     inkscape:current-layer="layer1"
     inkscape:snap-bbox="true"
     inkscape:snap-global="true"
     inkscape:bbox-paths="true"
     inkscape:object-paths="false"
     inkscape:snap-intersection-paths="false"
     inkscape:object-nodes="false"
     inkscape:snap-smooth-nodes="false"
     inkscape:snap-midpoints="false"
     inkscape:snap-object-midpoints="false"
     inkscape:snap-page="true"
     inkscape:bbox-nodes="true"
     inkscape:snap-bbox-edge-midpoints="true"
     inkscape:snap-bbox-midpoints="true" />
  <defs
     id="defs1128" />
  <g
     inkscape:label="Camada 1"
     inkscape:groupmode="layer"
     id="layer1"
     transform="translate(-722.81113,-105.92288)">
    <path
       d="m 846.44041,354.60359 c -12.58117,-6.27669 -17.92316,-16.24527 -13.58287,-25.34676 4.20819,-8.82498 14.31397,-7.93598 18.89317,1.6622 2.85349,5.98159 8.53188,6.13339 13.39187,0.358 2.1147,-2.51369 3.8452,-6.13339 3.8452,-8.04369 0,-6.26548 -12.05818,-20.93256 -17.32317,-21.07126 -4.0676,-0.107 -16.19118,-7.87778 -20.33467,-13.03358 -13.74327,-17.10187 -18.14967,-39.87693 -12.54568,-64.84448 3.7711,-16.80217 9.96859,-28.00765 22.56816,-40.80513 l 11.13988,-11.31558 h 8.32059 c 14.19667,0 21.47806,6.21859 24.57616,20.98856 1.26199,6.01679 1.24759,9.32939 -0.06,13.69358 -3.7945,12.66528 -14.35608,17.61067 -20.61507,9.65298 -3.17139,-4.03119 -4.06319,-11.40058 -1.56599,-12.94368 1.95789,-1.20989 1.86679,-9.06638 -0.122,-10.29368 -1.917,-1.18469 -8.90499,5.22879 -14.53048,13.33498 -10.74308,15.48177 -14.19687,43.07802 -7.34109,58.6573 3.9038,8.87058 11.70888,16.41517 16.98177,16.41517 5.24029,0 10.58859,-3.9871 13.80478,-10.29118 1.5336,-3.0057 3.84179,-6.51899 5.13039,-7.80739 3.231,-3.23119 10.30118,-2.9355 13.81468,0.578 5.66299,5.66319 2.88889,16.29397 -6.92669,26.54255 l -5.14419,5.37159 3.10519,4.84889 c 9.47779,14.79938 10.87838,22.39406 6.08069,32.96455 -4.51629,9.94978 -9.95738,16.00647 -17.96177,19.99536 -8.87958,4.42499 -15.77317,4.63909 -23.60266,0.733 z"
       style="fill:#000000;stroke-width:1.46007"
       id="path2439" />
  </g>
</svg>
