<?xml version="1.0" encoding="UTF-8" standalone="no"?>
<!-- Created with Inkscape (http://www.inkscape.org/) -->

<svg
   width="1000"
   height="1000"
   viewBox="0 0 264.58333 264.58333"
   version="1.1"
   id="svg1131"
   sodipodi:docname="Ê.svg"
   inkscape:version="1.1.1 (3bf5ae0d25, 2021-09-20)"
   xmlns:inkscape="http://www.inkscape.org/namespaces/inkscape"
   xmlns:sodipodi="http://sodipodi.sourceforge.net/DTD/sodipodi-0.dtd"
   xmlns="http://www.w3.org/2000/svg"
   xmlns:svg="http://www.w3.org/2000/svg">
  <sodipodi:namedview
     id="namedview1133"
     pagecolor="#ffffff"
     bordercolor="#666666"
     borderopacity="1.0"
     inkscape:pageshadow="2"
     inkscape:pageopacity="0.0"
     inkscape:pagecheckerboard="0"
     inkscape:document-units="mm"
     showgrid="false"
     units="px"
     fit-margin-top="0"
     fit-margin-left="0"
     fit-margin-right="0"
     fit-margin-bottom="0"
     inkscape:zoom="0.5"
     inkscape:cx="640"
     inkscape:cy="375"
     inkscape:window-width="1920"
     inkscape:window-height="1017"
     inkscape:window-x="-8"
     inkscape:window-y="-8"
     inkscape:window-maximized="1"
     inkscape:current-layer="layer1"
     inkscape:snap-bbox="true"
     inkscape:snap-global="true"
     inkscape:bbox-paths="true"
     inkscape:object-paths="false"
     inkscape:snap-intersection-paths="false"
     inkscape:object-nodes="false"
     inkscape:snap-smooth-nodes="false"
     inkscape:snap-midpoints="false"
     inkscape:snap-object-midpoints="false"
     inkscape:snap-page="true"
     inkscape:bbox-nodes="true"
     inkscape:snap-bbox-edge-midpoints="true"
     inkscape:snap-bbox-midpoints="true" />
  <defs
     id="defs1128" />
  <g
     inkscape:label="Camada 1"
     inkscape:groupmode="layer"
     id="layer1"
     transform="translate(-722.81113,-105.92288)">
    <path
       d="m 828.90568,302.31932 c -4.7756,-2.59174 -10.3784,-11.97759 -12.9755,-21.73613 -2.8622,-10.75573 -1.1531,-38.56204 3.3919,-55.17339 3.6504,-13.34207 3.6604,-13.53363 0.8992,-17.72148 -4.0991,-6.21775 -3.4879,-9.75702 3.1313,-18.13055 5.3332,-6.7475 6.5332,-7.51658 11.7269,-7.51658 3.182,0 6.1977,0.66705 6.7018,1.48224 1.1788,1.90744 5.8238,0.77132 21.9271,-5.36366 13.5722,-5.17054 19.8319,-6.04824 24.67,-3.45884 4.103,2.19584 7.3024,9.2366 7.3024,16.07016 0,10.52433 -9.9274,15.62047 -17.1712,8.8148 l -3.3322,-3.13036 -7.8393,2.95773 c -4.3112,1.62669 -10.8092,3.86607 -14.44,4.97635 l -6.6008,2.01858 -3.3032,11.81433 c -1.8168,6.4979 -3.7056,13.58928 -4.1973,15.75855 l -0.8942,3.94422 6.972,-2.09823 c 12.2063,-3.67367 23.8662,-1.62524 26.2601,4.61345 3.4215,8.91644 -1.6198,15.44018 -11.9317,15.44018 -3.8178,0 -10.7959,1.14405 -15.5062,2.5424 -8.2651,2.45354 -8.5643,2.71895 -8.5643,7.58183 0,6.15664 2.9454,16.45798 4.7058,16.45798 2.4866,0 18.5353,-8.72561 23.0764,-12.54653 2.5268,-2.12596 6.8966,-4.23914 9.7103,-4.69588 9.5997,-1.55776 16.2987,9.70339 10.1339,17.03505 -2.3376,2.7799 -19.1046,12.72179 -33.1568,19.66007 -6.5371,3.22765 -15.1824,3.39632 -20.6964,0.40354 z m 3.3802,-146.32116 c -4.4128,-5.60942 -3.8474,-8.4155 3.3188,-16.48438 3.5086,-3.95069 8.2401,-9.62273 10.5145,-12.60452 6.1777,-8.09902 15.3175,-14.2772 21.1224,-14.2772 6.7297,0 11.263,4.90028 14.3474,15.51062 1.3764,4.73618 4.1136,10.7228 6.0822,13.30361 1.9686,2.58086 3.5789,6.15512 3.5789,7.94279 0,3.91882 -6.2111,10.5025 -9.9011,10.49479 -5.0999,-0.0167 -11.8508,-5.62035 -15.274,-12.69164 l -3.4271,-7.0786 -4.5277,5.78758 c -8.9914,11.49223 -12.1316,13.98813 -17.5982,13.98813 -3.8323,0 -5.97,-1.00998 -8.2361,-3.89118 z"
       style="fill:#000000;stroke-width:1.47679"
       id="path2463" />
  </g>
</svg>
