<?xml version="1.0" encoding="UTF-8" standalone="no"?>
<!-- Created with Inkscape (http://www.inkscape.org/) -->

<svg
   width="1000"
   height="1000"
   viewBox="0 0 264.58333 264.58333"
   version="1.1"
   id="svg1131"
   sodipodi:docname="Ò.svg"
   inkscape:version="1.1.1 (3bf5ae0d25, 2021-09-20)"
   xmlns:inkscape="http://www.inkscape.org/namespaces/inkscape"
   xmlns:sodipodi="http://sodipodi.sourceforge.net/DTD/sodipodi-0.dtd"
   xmlns="http://www.w3.org/2000/svg"
   xmlns:svg="http://www.w3.org/2000/svg">
  <sodipodi:namedview
     id="namedview1133"
     pagecolor="#ffffff"
     bordercolor="#666666"
     borderopacity="1.0"
     inkscape:pageshadow="2"
     inkscape:pageopacity="0.0"
     inkscape:pagecheckerboard="0"
     inkscape:document-units="mm"
     showgrid="false"
     units="px"
     fit-margin-top="0"
     fit-margin-left="0"
     fit-margin-right="0"
     fit-margin-bottom="0"
     inkscape:zoom="0.5"
     inkscape:cx="639"
     inkscape:cy="375"
     inkscape:window-width="1920"
     inkscape:window-height="1001"
     inkscape:window-x="-9"
     inkscape:window-y="-9"
     inkscape:window-maximized="1"
     inkscape:current-layer="layer1"
     inkscape:snap-bbox="true"
     inkscape:snap-global="true"
     inkscape:bbox-paths="true"
     inkscape:object-paths="false"
     inkscape:snap-intersection-paths="false"
     inkscape:object-nodes="false"
     inkscape:snap-smooth-nodes="false"
     inkscape:snap-midpoints="false"
     inkscape:snap-object-midpoints="false"
     inkscape:snap-page="true"
     inkscape:bbox-nodes="true"
     inkscape:snap-bbox-edge-midpoints="true"
     inkscape:snap-bbox-midpoints="true" />
  <defs
     id="defs1128" />
  <g
     inkscape:label="Camada 1"
     inkscape:groupmode="layer"
     id="layer1"
     transform="translate(-722.81113,-105.92288)">
    <path
       d="m 849.53393,304.3319 c -12.8721,-0.88593 -24.9793,-13.59694 -32.5632,-34.18776 -3.0645,-8.31942 -3.4924,-11.85478 -3.2489,-26.82223 0.5516,-33.72323 9.261,-56.95868 25.3503,-67.61578 5.587,-3.70062 7.9639,-4.33308 16.2432,-4.32127 13.5352,0.0167 23.1194,5.54781 31.1451,17.96512 7.21,11.15557 8.8459,16.42316 9.8288,31.65172 1.1634,18.02847 -1.749,39.21297 -6.8579,49.8796 -6.3681,13.29645 -13.4198,23.00299 -19.9952,27.52123 -7.6452,5.2535 -11.7884,6.48778 -19.9022,5.92937 z m 11.0546,-27.00823 c 3.0255,-3.34869 7.1342,-9.65656 9.1306,-14.0175 6.3765,-13.92796 8.2113,-37.95997 3.985,-52.19138 -4.2619,-14.35081 -19.5155,-25.2109 -20.9714,-14.93101 -0.2897,2.03111 -2.5213,4.63697 -5.4621,6.37211 -7.6374,4.50625 -11.6486,16.69468 -13.0243,39.57798 -1.0514,17.48728 9.3602,41.2783 18.0646,41.2783 1.5273,0 5.2521,-2.7398 8.2776,-6.0885 z m -15.3455,-122.02811 c -2.1998,-2.35495 -6.7236,-10.45423 -10.0528,-17.99838 -5.5161,-12.50006 -5.8906,-14.11429 -4.224,-18.2002 2.2315,-5.47092 8.0586,-7.92639 13.2243,-5.57272 4.3778,1.99462 18.6117,30.36534 18.6117,37.09611 0,8.94498 -10.8674,11.83851 -17.5592,4.67519 z"
       style="fill:#000000;stroke-width:1.47422"
       id="path952" />
  </g>
</svg>
