<?xml version="1.0" encoding="UTF-8" standalone="no"?>
<!-- Created with Inkscape (http://www.inkscape.org/) -->

<svg
   width="1000"
   height="1000"
   viewBox="0 0 264.58333 264.58333"
   version="1.1"
   id="svg1131"
   sodipodi:docname="ól.svg"
   inkscape:version="1.1.1 (3bf5ae0d25, 2021-09-20)"
   xmlns:inkscape="http://www.inkscape.org/namespaces/inkscape"
   xmlns:sodipodi="http://sodipodi.sourceforge.net/DTD/sodipodi-0.dtd"
   xmlns="http://www.w3.org/2000/svg"
   xmlns:svg="http://www.w3.org/2000/svg">
  <sodipodi:namedview
     id="namedview1133"
     pagecolor="#ffffff"
     bordercolor="#666666"
     borderopacity="1.0"
     inkscape:pageshadow="2"
     inkscape:pageopacity="0.0"
     inkscape:pagecheckerboard="0"
     inkscape:document-units="mm"
     showgrid="false"
     units="px"
     fit-margin-top="0"
     fit-margin-left="0"
     fit-margin-right="0"
     fit-margin-bottom="0"
     inkscape:zoom="0.35355339"
     inkscape:cx="739.63369"
     inkscape:cy="383.25188"
     inkscape:window-width="1920"
     inkscape:window-height="1001"
     inkscape:window-x="-9"
     inkscape:window-y="-9"
     inkscape:window-maximized="1"
     inkscape:current-layer="layer1"
     inkscape:snap-bbox="true"
     inkscape:snap-global="true"
     inkscape:bbox-paths="true"
     inkscape:object-paths="false"
     inkscape:snap-intersection-paths="false"
     inkscape:object-nodes="false"
     inkscape:snap-smooth-nodes="false"
     inkscape:snap-midpoints="false"
     inkscape:snap-object-midpoints="false"
     inkscape:snap-page="true"
     inkscape:bbox-nodes="true"
     inkscape:snap-bbox-edge-midpoints="true"
     inkscape:snap-bbox-midpoints="true" />
  <defs
     id="defs1128" />
  <g
     inkscape:label="Camada 1"
     inkscape:groupmode="layer"
     id="layer1"
     transform="translate(-722.81113,-105.92288)">
    <path
       d="m 849.83702,304.11034 c -5.7038,-1.10676 -9.9046,-5.25157 -13.5458,-13.36524 -4.53425,-10.10361 -5.9714,-20.39142 -4.58077,-32.7914 2.05716,-18.34391 5.94399,-27.93008 13.3945,-33.03516 11.23483,-7.69835 26.38405,0.68556 30.78738,17.03841 0.80078,2.97368 1.22389,12.11228 0.97017,20.95332 -0.43145,15.03684 -0.64614,16.07638 -5.23613,25.36108 -6.34783,12.84054 -12.85701,17.57217 -21.78935,15.83899 z m 7.77097,-30.14056 c 1.40592,-5.06075 1.71048,-22.36572 0.47459,-26.97674 -1.02336,-3.81868 -2.51057,-3.68714 -5.22966,0.46282 -2.86509,4.37255 -3.90178,22.34013 -1.74902,30.31294 1.46525,5.42645 1.68651,5.64163 3.39665,3.30296 1.00615,-1.37597 2.40438,-4.57185 3.10724,-7.10188 z m -6.74114,-76.27018 c -4.86248,-5.66158 -4.27724,-8.22447 5.7645,-25.24262 7.38105,-12.50902 11.06118,-15.25526 16.88622,-12.60124 1.85252,0.84412 4.04627,3.17166 4.87499,5.17234 1.37655,3.32341 0.86044,4.79365 -5.97429,17.01958 -9.3803,16.77934 -10.3663,17.92203 -15.46368,17.92203 -2.33348,0 -4.98829,-0.98987 -6.08774,-2.27009 z"
       style="fill:#000000;stroke-width:1.29719"
       id="path1261" />
  </g>
</svg>
