<?xml version="1.0" encoding="UTF-8" standalone="no"?>
<!-- Created with Inkscape (http://www.inkscape.org/) -->

<svg
   width="1000"
   height="1000"
   viewBox="0 0 264.58333 264.58333"
   version="1.1"
   id="svg1131"
   sodipodi:docname="Ô.svg"
   inkscape:version="1.1.1 (3bf5ae0d25, 2021-09-20)"
   xmlns:inkscape="http://www.inkscape.org/namespaces/inkscape"
   xmlns:sodipodi="http://sodipodi.sourceforge.net/DTD/sodipodi-0.dtd"
   xmlns="http://www.w3.org/2000/svg"
   xmlns:svg="http://www.w3.org/2000/svg">
  <sodipodi:namedview
     id="namedview1133"
     pagecolor="#ffffff"
     bordercolor="#666666"
     borderopacity="1.0"
     inkscape:pageshadow="2"
     inkscape:pageopacity="0.0"
     inkscape:pagecheckerboard="0"
     inkscape:document-units="mm"
     showgrid="false"
     units="px"
     fit-margin-top="0"
     fit-margin-left="0"
     fit-margin-right="0"
     fit-margin-bottom="0"
     inkscape:zoom="0.5"
     inkscape:cx="639"
     inkscape:cy="375"
     inkscape:window-width="1920"
     inkscape:window-height="1001"
     inkscape:window-x="-9"
     inkscape:window-y="-9"
     inkscape:window-maximized="1"
     inkscape:current-layer="layer1"
     inkscape:snap-bbox="true"
     inkscape:snap-global="true"
     inkscape:bbox-paths="true"
     inkscape:object-paths="false"
     inkscape:snap-intersection-paths="false"
     inkscape:object-nodes="false"
     inkscape:snap-smooth-nodes="false"
     inkscape:snap-midpoints="false"
     inkscape:snap-object-midpoints="false"
     inkscape:snap-page="true"
     inkscape:bbox-nodes="true"
     inkscape:snap-bbox-edge-midpoints="true"
     inkscape:snap-bbox-midpoints="true" />
  <defs
     id="defs1128" />
  <g
     inkscape:label="Camada 1"
     inkscape:groupmode="layer"
     id="layer1"
     transform="translate(-722.81113,-105.92288)">
    <path
       d="m 848.34638,303.92734 c -3.6838,-0.53221 -8.0377,-1.71927 -9.6748,-2.63787 -9.0977,-5.10387 -20.9886,-24.63276 -24.5959,-40.39467 -2.3348,-10.20183 -0.9812,-34.31196 2.7707,-49.35133 4.6965,-18.82673 11.7846,-30.68455 22.3439,-37.38111 5.461,-3.46342 8.4337,-4.28857 15.4498,-4.28857 8.9857,0 17.5309,2.70415 22.5222,7.12723 7.7271,6.84835 14.4568,17.4656 17.4734,27.5674 2.8445,9.52746 3.0847,12.77181 2.1829,29.48956 -0.557,10.33145 -1.9258,21.81391 -3.0397,25.51665 -5.2034,17.28855 -15.9247,33.35363 -26.826,40.19681 -7.5375,4.73188 -10.319,5.35309 -18.6065,4.1559 z m 12.2453,-26.62522 c 9.3632,-10.36409 13.1939,-20.50657 14.6673,-38.83547 1.968,-24.48593 -1.4503,-37.24519 -11.9899,-44.74991 -6.1125,-4.35264 -9.9033,-3.91253 -10.9396,1.27027 -0.5513,2.76367 -2.634,5.32379 -5.8897,7.24475 -7.2602,4.28351 -11.9269,19.27754 -12.1041,38.89184 -0.1463,16.24613 2.4478,25.88976 9.6388,35.8161 5.7002,7.86938 9.7553,7.95782 16.6172,0.3623 z m -26.6521,-118.1289 c -4.0872,-1.97587 -7.1831,-9.06158 -5.3727,-12.29647 1.447,-2.58566 9.3868,-12.05152 19.4887,-23.23434 14.5885,-16.14965 27.0588,-14.43189 32.5525,4.48395 1.3187,4.54067 3.977,10.32848 5.9072,12.86182 9.649,12.66277 -3.3744,25.00616 -15.5629,14.75026 -2.4287,-2.04366 -5.5066,-6.4416 -6.8394,-9.77314 l -2.4236,-6.0574 -7.5697,9.05887 c -10.1075,12.09642 -13.1196,13.61991 -20.1801,10.20645 z"
       style="fill:#000000;stroke-width:1.48852"
       id="path976" />
  </g>
</svg>
