<?xml version="1.0" encoding="UTF-8" standalone="no"?>
<!-- Created with Inkscape (http://www.inkscape.org/) -->

<svg
   width="1000"
   height="1000"
   viewBox="0 0 264.58333 264.58333"
   version="1.1"
   id="svg1131"
   sodipodi:docname="ôl.svg"
   inkscape:version="1.1.1 (3bf5ae0d25, 2021-09-20)"
   xmlns:inkscape="http://www.inkscape.org/namespaces/inkscape"
   xmlns:sodipodi="http://sodipodi.sourceforge.net/DTD/sodipodi-0.dtd"
   xmlns="http://www.w3.org/2000/svg"
   xmlns:svg="http://www.w3.org/2000/svg">
  <sodipodi:namedview
     id="namedview1133"
     pagecolor="#ffffff"
     bordercolor="#666666"
     borderopacity="1.0"
     inkscape:pageshadow="2"
     inkscape:pageopacity="0.0"
     inkscape:pagecheckerboard="0"
     inkscape:document-units="mm"
     showgrid="false"
     units="px"
     fit-margin-top="0"
     fit-margin-left="0"
     fit-margin-right="0"
     fit-margin-bottom="0"
     inkscape:zoom="0.35355339"
     inkscape:cx="739.63369"
     inkscape:cy="383.25188"
     inkscape:window-width="1920"
     inkscape:window-height="1001"
     inkscape:window-x="-9"
     inkscape:window-y="-9"
     inkscape:window-maximized="1"
     inkscape:current-layer="layer1"
     inkscape:snap-bbox="true"
     inkscape:snap-global="true"
     inkscape:bbox-paths="true"
     inkscape:object-paths="false"
     inkscape:snap-intersection-paths="false"
     inkscape:object-nodes="false"
     inkscape:snap-smooth-nodes="false"
     inkscape:snap-midpoints="false"
     inkscape:snap-object-midpoints="false"
     inkscape:snap-page="true"
     inkscape:bbox-nodes="true"
     inkscape:snap-bbox-edge-midpoints="true"
     inkscape:snap-bbox-midpoints="true" />
  <defs
     id="defs1128" />
  <g
     inkscape:label="Camada 1"
     inkscape:groupmode="layer"
     id="layer1"
     transform="translate(-722.81113,-105.92288)">
    <path
       d="m 849.39954,303.95603 c -6.1387,-1.43288 -10.0419,-5.52489 -14.2809,-14.97115 -8.7443,-19.48449 -4.1094,-54.77013 8.5991,-65.46348 9.7851,-8.23381 24.5168,-2.87917 30.8859,11.22668 2.885,6.38878 3.2289,8.97324 3.174,23.84363 -0.051,14.04553 -0.5336,17.86962 -3.0515,24.22643 -6.7034,16.92313 -14.72,23.61372 -25.3266,21.13789 z m 9.9868,-40.51391 c 0.4791,-5.11859 0.116,-11.31277 -0.9087,-15.58769 -1.6934,-7.05806 -1.7136,-7.07914 -4.0585,-4.18369 -4.9657,6.133 -6.2279,26.36495 -2.2622,36.26899 1.3212,3.29989 1.3631,3.27477 3.886,-2.33403 1.4024,-3.11839 2.9067,-9.49199 3.3434,-14.16358 z m -28.0659,-63.65427 c -5.4902,-4.31859 -4.7171,-9.33602 2.8219,-18.31314 10.5214,-12.52824 20.1482,-21.36179 24.2652,-22.26602 7.7468,-1.70156 14.2612,4.60518 16.6923,16.16141 0.4841,2.29449 2.3475,6.16372 4.1437,8.5982 6.0898,8.25433 3.1432,17.25051 -5.6505,17.25051 -4.6757,0 -9.7644,-4.19222 -13.1396,-10.82426 -1.2653,-2.48567 -2.5371,-4.78299 -2.827,-5.10507 -0.2925,-0.32224 -4.2759,3.43059 -8.8578,8.33904 -9.0428,9.68776 -11.7483,10.64283 -17.4482,6.15933 z"
       style="fill:#000000;stroke-width:1.33425"
       id="path1273" />
  </g>
</svg>
