<?xml version="1.0" encoding="UTF-8" standalone="no"?>
<!-- Created with Inkscape (http://www.inkscape.org/) -->

<svg
   width="1000"
   height="1000"
   viewBox="0 0 264.58333 264.58333"
   version="1.1"
   id="svg1131"
   sodipodi:docname="õl.svg"
   inkscape:version="1.1.1 (3bf5ae0d25, 2021-09-20)"
   xmlns:inkscape="http://www.inkscape.org/namespaces/inkscape"
   xmlns:sodipodi="http://sodipodi.sourceforge.net/DTD/sodipodi-0.dtd"
   xmlns="http://www.w3.org/2000/svg"
   xmlns:svg="http://www.w3.org/2000/svg">
  <sodipodi:namedview
     id="namedview1133"
     pagecolor="#ffffff"
     bordercolor="#666666"
     borderopacity="1.0"
     inkscape:pageshadow="2"
     inkscape:pageopacity="0.0"
     inkscape:pagecheckerboard="0"
     inkscape:document-units="mm"
     showgrid="false"
     units="px"
     fit-margin-top="0"
     fit-margin-left="0"
     fit-margin-right="0"
     fit-margin-bottom="0"
     inkscape:zoom="0.35355339"
     inkscape:cx="739.63369"
     inkscape:cy="383.25188"
     inkscape:window-width="1920"
     inkscape:window-height="1001"
     inkscape:window-x="-9"
     inkscape:window-y="-9"
     inkscape:window-maximized="1"
     inkscape:current-layer="layer1"
     inkscape:snap-bbox="true"
     inkscape:snap-global="true"
     inkscape:bbox-paths="true"
     inkscape:object-paths="false"
     inkscape:snap-intersection-paths="false"
     inkscape:object-nodes="false"
     inkscape:snap-smooth-nodes="false"
     inkscape:snap-midpoints="false"
     inkscape:snap-object-midpoints="false"
     inkscape:snap-page="true"
     inkscape:bbox-nodes="true"
     inkscape:snap-bbox-edge-midpoints="true"
     inkscape:snap-bbox-midpoints="true" />
  <defs
     id="defs1128" />
  <g
     inkscape:label="Camada 1"
     inkscape:groupmode="layer"
     id="layer1"
     transform="translate(-722.81113,-105.92288)">
    <path
       d="m 845.81894,303.4713 c -6.2939,-2.30072 -13.2009,-13.13927 -16.2172,-25.44886 -4.4661,-18.2242 2.6732,-49.88972 12.901,-57.22029 5.6345,-4.03866 13.0906,-4.41376 19.2227,-0.9674 10.5714,5.94146 15.4439,17.8251 15.4439,37.66865 0,29.94901 -15.0014,51.94454 -31.3504,45.9679 z m 11.5028,-46.33172 c 0.093,-15.27302 -1.4863,-19.52445 -5.1378,-13.84861 -4.4707,6.94862 -5.2935,27.788 -1.4714,37.25871 0.9402,2.32906 1.458,1.86566 3.8072,-3.40767 2.1142,-4.74563 2.7376,-9.19484 2.802,-20.00243 z m -41.0074,-58.6973 c -7.1341,-1.17048 -10.3998,-10.65659 -6.0641,-17.61506 3.176,-5.09703 15.2883,-15.02496 21.5533,-17.66601 2.4121,-1.01716 7.0832,-1.84927 10.3798,-1.84927 7.1887,0 12.0551,3.36255 15.9688,11.03345 1.5955,3.12783 3.6882,5.31104 5.0735,5.29347 5.009,-0.0639 13.7031,-5.35138 18.5762,-11.2983 5.9394,-7.24825 11.4121,-9.16593 16.5505,-5.79916 5.3181,3.48453 4.6273,10.80336 -1.7594,18.63979 -9.6049,11.78534 -20.7028,17.57044 -33.7058,17.57044 -8.215,0 -14.7247,-3.597 -19.113,-10.56195 -1.4996,-2.37965 -3.3017,-4.35024 -4.0049,-4.37914 -2.7253,-0.1118 -9.9424,6.02517 -12.4482,10.58514 -2.7551,5.01435 -6.0997,6.85161 -11.0067,6.0466 z"
       style="fill:#000000;stroke-width:1.36306"
       id="path1285" />
  </g>
</svg>
