<?xml version="1.0" encoding="UTF-8" standalone="no"?>
<!-- Created with Inkscape (http://www.inkscape.org/) -->

<svg
   width="1000"
   height="1000"
   viewBox="0 0 264.58333 264.58333"
   version="1.1"
   id="svg1131"
   sodipodi:docname="0.svg"
   inkscape:version="1.1.1 (3bf5ae0d25, 2021-09-20)"
   xmlns:inkscape="http://www.inkscape.org/namespaces/inkscape"
   xmlns:sodipodi="http://sodipodi.sourceforge.net/DTD/sodipodi-0.dtd"
   xmlns="http://www.w3.org/2000/svg"
   xmlns:svg="http://www.w3.org/2000/svg">
  <sodipodi:namedview
     id="namedview1133"
     pagecolor="#ffffff"
     bordercolor="#666666"
     borderopacity="1.0"
     inkscape:pageshadow="2"
     inkscape:pageopacity="0.0"
     inkscape:pagecheckerboard="0"
     inkscape:document-units="mm"
     showgrid="false"
     units="px"
     fit-margin-top="0"
     fit-margin-left="0"
     fit-margin-right="0"
     fit-margin-bottom="0"
     inkscape:zoom="0.5"
     inkscape:cx="396"
     inkscape:cy="379"
     inkscape:window-width="1920"
     inkscape:window-height="1017"
     inkscape:window-x="-8"
     inkscape:window-y="-8"
     inkscape:window-maximized="1"
     inkscape:current-layer="layer1"
     inkscape:snap-bbox="true"
     inkscape:snap-global="true"
     inkscape:bbox-paths="true"
     inkscape:object-paths="false"
     inkscape:snap-intersection-paths="false"
     inkscape:object-nodes="false"
     inkscape:snap-smooth-nodes="false"
     inkscape:snap-midpoints="false"
     inkscape:snap-object-midpoints="false"
     inkscape:snap-page="true"
     inkscape:bbox-nodes="true"
     inkscape:snap-bbox-edge-midpoints="true"
     inkscape:snap-bbox-midpoints="true" />
  <defs
     id="defs1128" />
  <g
     inkscape:label="Camada 1"
     inkscape:groupmode="layer"
     id="layer1"
     transform="translate(-722.81113,-105.92288)">
    <path
       d="m 849.69153,303.75423 c -8.86284,-1.50025 -11.95912,-4.09198 -17.11962,-14.32968 -6.25169,-12.40261 -8.00184,-23.74648 -7.13113,-46.22331 1.53794,-39.70715 9.64752,-66.34136 20.26199,-66.54734 1.36264,-0.0286 3.79757,-1.04658 5.41126,-2.26699 7.87366,-5.9554 22.23172,0.12224 27.88689,11.80444 5.33671,11.02415 6.59368,22.38321 5.72303,51.72013 -0.83884,28.26778 -2.65045,39.12902 -8.56392,51.34456 -3.37453,6.97085 -10.78767,14.39902 -14.37,14.39902 -1.11508,0 -2.93326,0.25248 -4.04028,0.56151 -1.10708,0.30846 -4.73328,0.10053 -8.05822,-0.46212 z m 7.60496,-25.88529 c 3.72542,-7.2042 6.74859,-27.74934 6.75087,-45.87904 0,-16.76106 -2.37855,-35.64042 -4.49399,-35.64042 -0.63977,0 -1.58513,2.63896 -2.10077,5.86429 -0.61451,3.84315 -2.18645,6.6825 -4.56094,8.23826 -3.22549,2.11345 -3.7489,3.91644 -4.76858,16.4281 -1.86668,22.90405 -1.92672,28.69682 -0.39586,38.17143 1.31809,8.15544 4.77812,17.44464 6.49806,17.44464 0.373,0 1.75484,-2.08226 3.07092,-4.62726 z"
       style="fill:#000000;stroke-width:1.51134"
       id="path1562" />
  </g>
</svg>
