<?xml version="1.0" encoding="UTF-8" standalone="no"?>
<!-- Created with Inkscape (http://www.inkscape.org/) -->

<svg
   width="1000"
   height="1000"
   viewBox="0 0 264.58333 264.58333"
   version="1.1"
   id="svg1131"
   sodipodi:docname="6.svg"
   inkscape:version="1.1.1 (3bf5ae0d25, 2021-09-20)"
   xmlns:inkscape="http://www.inkscape.org/namespaces/inkscape"
   xmlns:sodipodi="http://sodipodi.sourceforge.net/DTD/sodipodi-0.dtd"
   xmlns="http://www.w3.org/2000/svg"
   xmlns:svg="http://www.w3.org/2000/svg">
  <sodipodi:namedview
     id="namedview1133"
     pagecolor="#ffffff"
     bordercolor="#666666"
     borderopacity="1.0"
     inkscape:pageshadow="2"
     inkscape:pageopacity="0.0"
     inkscape:pagecheckerboard="0"
     inkscape:document-units="mm"
     showgrid="false"
     units="px"
     fit-margin-top="0"
     fit-margin-left="0"
     fit-margin-right="0"
     fit-margin-bottom="0"
     inkscape:zoom="0.5"
     inkscape:cx="396"
     inkscape:cy="379"
     inkscape:window-width="1920"
     inkscape:window-height="1017"
     inkscape:window-x="-8"
     inkscape:window-y="-8"
     inkscape:window-maximized="1"
     inkscape:current-layer="layer1"
     inkscape:snap-bbox="true"
     inkscape:snap-global="true"
     inkscape:bbox-paths="true"
     inkscape:object-paths="false"
     inkscape:snap-intersection-paths="false"
     inkscape:object-nodes="false"
     inkscape:snap-smooth-nodes="false"
     inkscape:snap-midpoints="false"
     inkscape:snap-object-midpoints="false"
     inkscape:snap-page="true"
     inkscape:bbox-nodes="true"
     inkscape:snap-bbox-edge-midpoints="true"
     inkscape:snap-bbox-midpoints="true" />
  <defs
     id="defs1128" />
  <g
     inkscape:label="Camada 1"
     inkscape:groupmode="layer"
     id="layer1"
     transform="translate(-722.81113,-105.92288)">
    <path
       d="m 844.24081,302.60403 c -18.88322,-6.74819 -28.14564,-22.23558 -28.12351,-47.02474 0.0225,-25.9349 13.83883,-54.73274 36.31201,-75.69008 5.5556,-5.18094 9.6645,-7.82146 12.171,-7.82146 4.5802,0 11.0974,6.12813 11.0974,10.43484 0,4.04432 -4.075,11.91206 -6.1697,11.91206 -2.6013,0 -15.0067,13.84778 -20.2018,22.55084 -7.7031,12.90418 -7.677,13.44349 0.4516,9.32834 16.2705,-8.23717 34.5898,-1.62085 41.7249,15.0696 6.0298,14.10505 0.9817,41.54988 -9.5307,51.81495 -10.1184,9.88033 -25.6213,13.75319 -37.7309,9.42565 z m 22.8534,-24.8596 c 5.0305,-6.10573 7.3612,-22.17747 4.0999,-28.2712 -2.9328,-5.48004 -7.0322,-6.39565 -13.5126,-3.01784 -6.9486,3.62179 -13.6504,3.97816 -16.2355,0.8633 -3.0922,-3.72595 -4.4845,-1.0236 -4.4502,8.63786 0.034,9.54 3.3847,19.42928 7.8297,23.10726 6.2792,5.19563 17.4461,4.53402 22.2687,-1.31938 z"
       style="fill:#000000;stroke-width:1.48979"
       id="path1634" />
  </g>
</svg>
