<?xml version="1.0" encoding="UTF-8" standalone="no"?>
<!-- Created with Inkscape (http://www.inkscape.org/) -->

<svg
   width="1000"
   height="1000"
   viewBox="0 0 264.58333 264.58333"
   version="1.1"
   id="svg1131"
   sodipodi:docname="9.svg"
   inkscape:version="1.1.1 (3bf5ae0d25, 2021-09-20)"
   xmlns:inkscape="http://www.inkscape.org/namespaces/inkscape"
   xmlns:sodipodi="http://sodipodi.sourceforge.net/DTD/sodipodi-0.dtd"
   xmlns="http://www.w3.org/2000/svg"
   xmlns:svg="http://www.w3.org/2000/svg">
  <sodipodi:namedview
     id="namedview1133"
     pagecolor="#ffffff"
     bordercolor="#666666"
     borderopacity="1.0"
     inkscape:pageshadow="2"
     inkscape:pageopacity="0.0"
     inkscape:pagecheckerboard="0"
     inkscape:document-units="mm"
     showgrid="false"
     units="px"
     fit-margin-top="0"
     fit-margin-left="0"
     fit-margin-right="0"
     fit-margin-bottom="0"
     inkscape:zoom="0.5"
     inkscape:cx="396"
     inkscape:cy="379"
     inkscape:window-width="1920"
     inkscape:window-height="1017"
     inkscape:window-x="-8"
     inkscape:window-y="-8"
     inkscape:window-maximized="1"
     inkscape:current-layer="layer1"
     inkscape:snap-bbox="true"
     inkscape:snap-global="true"
     inkscape:bbox-paths="true"
     inkscape:object-paths="false"
     inkscape:snap-intersection-paths="false"
     inkscape:object-nodes="false"
     inkscape:snap-smooth-nodes="false"
     inkscape:snap-midpoints="false"
     inkscape:snap-object-midpoints="false"
     inkscape:snap-page="true"
     inkscape:bbox-nodes="true"
     inkscape:snap-bbox-edge-midpoints="true"
     inkscape:snap-bbox-midpoints="true" />
  <defs
     id="defs1128" />
  <g
     inkscape:label="Camada 1"
     inkscape:groupmode="layer"
     id="layer1"
     transform="translate(-722.81113,-105.92288)">
    <path
       d="m 861.11055,300.31579 c -3.02499,-3.79253 -3.16986,-5.05518 -2.321,-20.22526 0.49813,-8.89913 1.84,-21.80653 2.98229,-28.68313 1.14219,-6.87661 1.89943,-12.68692 1.68278,-12.9118 -0.21681,-0.22516 -2.1839,0.2713 -4.37131,1.10321 -6.32411,2.40434 -15.83238,1.77924 -21.01692,-1.38196 -8.42196,-5.13517 -16.60002,-22.17483 -16.60002,-34.58784 0,-8.38576 6.09067,-20.12908 12.1297,-23.38717 2.63221,-1.42021 7.1027,-3.85974 9.93422,-5.4211 9.72942,-5.36495 26.10056,-2.61476 34.94265,5.87002 1.82465,1.75099 5.02393,6.55093 7.10943,10.66646 3.76,7.41976 3.77734,7.6145 2.05899,23.1022 -0.95317,8.59068 -3.0141,24.75485 -4.57974,35.92037 -1.56581,11.16542 -3.26471,26.6619 -3.7754,34.43652 -0.71605,10.90206 -1.54713,14.75429 -3.63291,16.84007 -4.0795,4.07945 -10.70704,3.46858 -14.54276,-1.34059 z m -1.4748,-86.55652 c 5.1702,-5.88854 7.31052,-14.60497 4.30749,-17.5424 -4.48178,-4.38399 -9.4778,-4.11747 -15.08364,0.80456 -6.2316,5.4714 -6.9919,11.19071 -2.47277,18.60196 3.4986,5.73793 7.00764,5.24431 13.24892,-1.86412 z"
       style="fill:#000000;stroke-width:1.47093"
       id="path1670" />
  </g>
</svg>
