<?xml version="1.0" encoding="UTF-8" standalone="no"?>
<!-- Created with Inkscape (http://www.inkscape.org/) -->

<svg
   width="1000"
   height="1000"
   viewBox="0 0 264.58333 264.58333"
   version="1.1"
   id="svg1131"
   sodipodi:docname="arroba.svg"
   inkscape:version="1.1.1 (3bf5ae0d25, 2021-09-20)"
   xmlns:inkscape="http://www.inkscape.org/namespaces/inkscape"
   xmlns:sodipodi="http://sodipodi.sourceforge.net/DTD/sodipodi-0.dtd"
   xmlns="http://www.w3.org/2000/svg"
   xmlns:svg="http://www.w3.org/2000/svg">
  <sodipodi:namedview
     id="namedview1133"
     pagecolor="#ffffff"
     bordercolor="#666666"
     borderopacity="1.0"
     inkscape:pageshadow="2"
     inkscape:pageopacity="0.0"
     inkscape:pagecheckerboard="0"
     inkscape:document-units="mm"
     showgrid="false"
     units="px"
     fit-margin-top="0"
     fit-margin-left="0"
     fit-margin-right="0"
     fit-margin-bottom="0"
     inkscape:zoom="0.5"
     inkscape:cx="396"
     inkscape:cy="379"
     inkscape:window-width="1920"
     inkscape:window-height="1017"
     inkscape:window-x="-8"
     inkscape:window-y="-8"
     inkscape:window-maximized="1"
     inkscape:current-layer="layer1"
     inkscape:snap-bbox="true"
     inkscape:snap-global="true"
     inkscape:bbox-paths="true"
     inkscape:object-paths="false"
     inkscape:snap-intersection-paths="false"
     inkscape:object-nodes="false"
     inkscape:snap-smooth-nodes="false"
     inkscape:snap-midpoints="false"
     inkscape:snap-object-midpoints="true"
     inkscape:snap-page="true"
     inkscape:bbox-nodes="true"
     inkscape:snap-bbox-edge-midpoints="true"
     inkscape:snap-bbox-midpoints="true" />
  <defs
     id="defs1128" />
  <g
     inkscape:label="Camada 1"
     inkscape:groupmode="layer"
     id="layer1"
     transform="translate(-722.81113,-105.92288)">
    <path
       d="m 831.06353,337.65706 c -29.56051,-4.97748 -47.3157,-25.07227 -47.3157,-53.55037 0,-34.72029 24.70649,-70.64688 60.98727,-88.68348 35.2051,-17.50186 61.14755,-11.99494 73.92611,15.69292 2.70302,5.85669 3.11154,9.03253 3.03351,23.58472 -0.0812,15.09689 -0.53001,18.04571 -4.39218,28.83429 -2.36587,6.60967 -5.26461,13.86187 -6.44127,16.116 -6.21718,11.90988 -21.39936,18.83665 -32.24705,14.71235 -2.87965,-1.09475 -3.69977,-0.76233 -5.24573,2.12632 -4.17168,7.79484 -12.34965,11.40203 -24.11025,10.63444 -6.02112,-0.39301 -16.87485,-11.87914 -20.48221,-21.67556 -4.26947,-11.59483 -4.19072,-29.05209 0.16684,-36.95143 6.64946,-12.05494 8.92573,-15.36293 14.0729,-20.45307 4.71529,-4.66279 6.10379,-5.25517 12.31809,-5.25517 7.3461,0 15.67656,3.3458 19.69163,7.90887 6.43242,7.31021 8.8798,14.94413 9.14534,28.52725 0.143,7.32227 0.30929,13.78619 0.36867,14.36426 0.0601,0.57806 1.31829,1.05106 2.79697,1.05106 3.41061,0 7.34428,-6.48145 11.05701,-18.21806 6.52332,-20.62161 5.17708,-36.0616 -3.93946,-45.17789 -4.82002,-4.82011 -5.93456,-5.27217 -12.99706,-5.27217 -27.4972,0 -59.91142,24.16528 -72.37043,53.95354 -13.15542,31.45319 -1.06748,55.94688 28.54869,57.84756 13.0576,0.83792 24.61709,-2.10673 41.16228,-10.48546 12.42213,-6.29088 13.25269,-6.51455 16.79806,-4.52441 4.78996,2.68846 6.90327,8.43202 4.80061,13.04679 -3.16722,6.95146 -29.21449,18.74979 -48.19266,21.82933 -9.93112,1.61144 -11.66463,1.61286 -21.13998,0.016 z m 28.04419,-57.58875 c 6.55489,-13.0719 6.75725,-29.72767 0.43061,-35.45319 -2.58224,-2.33669 -2.79087,-2.30084 -4.81587,0.82849 -2.74479,4.24131 -3.48765,7.62737 -5.02302,22.89062 -1.0411,10.34996 -0.89523,13.19376 0.81307,15.85266 2.81345,4.37863 4.81503,3.41937 8.595,-4.11858 z"
       style="fill:#000000;stroke-width:1.40139"
       id="path1828" />
  </g>
</svg>
