<?xml version="1.0" encoding="UTF-8" standalone="no"?>
<!-- Created with Inkscape (http://www.inkscape.org/) -->

<svg
   width="1000"
   height="1000"
   viewBox="0 0 264.58333 264.58333"
   version="1.1"
   id="svg1131"
   sodipodi:docname="C.svg"
   inkscape:version="1.1.1 (3bf5ae0d25, 2021-09-20)"
   xmlns:inkscape="http://www.inkscape.org/namespaces/inkscape"
   xmlns:sodipodi="http://sodipodi.sourceforge.net/DTD/sodipodi-0.dtd"
   xmlns="http://www.w3.org/2000/svg"
   xmlns:svg="http://www.w3.org/2000/svg">
  <sodipodi:namedview
     id="namedview1133"
     pagecolor="#ffffff"
     bordercolor="#666666"
     borderopacity="1.0"
     inkscape:pageshadow="2"
     inkscape:pageopacity="0.0"
     inkscape:pagecheckerboard="0"
     inkscape:document-units="mm"
     showgrid="false"
     units="px"
     fit-margin-top="0"
     fit-margin-left="0"
     fit-margin-right="0"
     fit-margin-bottom="0"
     inkscape:zoom="0.5"
     inkscape:cx="234"
     inkscape:cy="407"
     inkscape:window-width="1920"
     inkscape:window-height="1017"
     inkscape:window-x="-8"
     inkscape:window-y="-8"
     inkscape:window-maximized="1"
     inkscape:current-layer="layer1"
     inkscape:snap-bbox="true"
     inkscape:snap-global="true"
     inkscape:bbox-paths="true" />
  <defs
     id="defs1128" />
  <g
     inkscape:label="Camada 1"
     inkscape:groupmode="layer"
     id="layer1"
     transform="translate(-722.81113,-105.92288)">
    <path
       d="m 846.272,301.37297 c -19.4864,-7.26997 -33.68156,-30.90686 -33.7089,-56.13003 -0.0277,-26.69449 15.29737,-55.91561 36.44535,-69.48621 12.98328,-8.33131 29.26237,-4.78 36.47645,7.95743 4.66589,8.23827 4.69245,22.77239 0.0554,29.55741 -6.15063,8.99703 -16.13731,9.49136 -20.01056,0.99054 -2.13399,-4.68363 -2.04927,-6.26375 0.6091,-11.36136 2.89625,-5.55362 1.55755,-9.68049 -3.14021,-9.68049 -5.23396,0 -17.37354,12.72384 -22.518,23.60179 -11.3913,24.08686 -7.72055,51.24469 8.40778,62.20415 8.09443,5.50033 15.01819,4.99841 22.34366,-1.61971 3.22994,-2.91803 5.87256,-6.10389 5.87256,-7.07967 0,-3.2886 6.70495,-8.15393 11.23704,-8.15393 5.86823,0 9.30205,4.04048 9.30205,10.94543 0,9.46651 -8.11445,19.05307 -22.73968,26.865 -7.79501,4.16363 -19.65263,4.73913 -28.63064,1.38965 z"
       style="fill:#000000;stroke-width:1.46707"
       id="path964" />
  </g>
</svg>
