<?xml version="1.0" encoding="UTF-8" standalone="no"?>
<!-- Created with Inkscape (http://www.inkscape.org/) -->

<svg
   width="1000"
   height="1000"
   viewBox="0 0 264.58333 264.58333"
   version="1.1"
   id="svg1131"
   sodipodi:docname="cifra.svg"
   inkscape:version="1.1.1 (3bf5ae0d25, 2021-09-20)"
   xmlns:inkscape="http://www.inkscape.org/namespaces/inkscape"
   xmlns:sodipodi="http://sodipodi.sourceforge.net/DTD/sodipodi-0.dtd"
   xmlns="http://www.w3.org/2000/svg"
   xmlns:svg="http://www.w3.org/2000/svg">
  <sodipodi:namedview
     id="namedview1133"
     pagecolor="#ffffff"
     bordercolor="#666666"
     borderopacity="1.0"
     inkscape:pageshadow="2"
     inkscape:pageopacity="0.0"
     inkscape:pagecheckerboard="0"
     inkscape:document-units="mm"
     showgrid="false"
     units="px"
     fit-margin-top="0"
     fit-margin-left="0"
     fit-margin-right="0"
     fit-margin-bottom="0"
     inkscape:zoom="0.5"
     inkscape:cx="522"
     inkscape:cy="239"
     inkscape:window-width="1920"
     inkscape:window-height="1017"
     inkscape:window-x="-8"
     inkscape:window-y="-8"
     inkscape:window-maximized="1"
     inkscape:current-layer="layer1"
     inkscape:snap-bbox="true"
     inkscape:snap-global="true"
     inkscape:bbox-paths="true"
     inkscape:object-paths="false"
     inkscape:snap-intersection-paths="false"
     inkscape:object-nodes="false"
     inkscape:snap-smooth-nodes="false"
     inkscape:snap-midpoints="false"
     inkscape:snap-object-midpoints="false"
     inkscape:snap-page="true"
     inkscape:bbox-nodes="true"
     inkscape:snap-bbox-edge-midpoints="true"
     inkscape:snap-bbox-midpoints="true" />
  <defs
     id="defs1128" />
  <g
     inkscape:label="Camada 1"
     inkscape:groupmode="layer"
     id="layer1"
     transform="translate(-722.81113,-105.92288)">
    <path
       d="m 844.83937,301.56726 c -1.54836,-1.54836 -2.81523,-3.67064 -2.81523,-4.7162 0,-1.04555 -3.12868,-3.84593 -6.9527,-6.22305 -11.28899,-7.01766 -16.26639,-21.0085 -10.15783,-28.55231 5.19112,-6.4108 17.11053,-2.34775 17.11053,5.83256 0,4.46258 5.61455,7.08065 11.62527,5.42099 6.98835,-1.92953 13.71159,-7.783 13.71159,-11.93761 0,-6.78916 -2.98131,-10.19651 -13.24315,-15.13599 -10.50636,-5.05705 -18.42933,-12.4835 -20.00163,-18.74821 -1.32709,-5.28762 0.47189,-19.60192 3.12422,-24.8596 2.95482,-5.8574 8.68279,-11.99586 13.58125,-14.55445 2.90204,-1.51579 3.87088,-3.06984 3.87088,-6.20858 0,-5.60448 4.43652,-9.81708 10.33888,-9.81708 6.01004,0 9.36759,3.66894 9.36759,10.23614 0,3.32175 0.89409,5.72637 2.57577,6.92722 4.79386,3.4231 7.34388,9.15809 8.21366,18.4721 1.09099,11.68379 -1.03997,17.45235 -7.43427,20.12404 -10.03494,4.19286 -18.68496,-5.64646 -12.98625,-14.77161 2.13138,-3.41278 0.59776,-7.20541 -2.91333,-7.20541 -3.4157,0 -6.85604,4.67938 -8.02619,10.91674 -1.12407,5.99216 1.75701,9.33253 10.57562,12.26166 8.67678,2.88194 15.63358,8.80111 19.54218,16.62747 8.59118,17.20209 3.0607,33.55792 -14.43905,42.70186 -4.53276,2.36839 -7.77125,5.00709 -7.77322,6.33339 0,1.25037 -1.31624,3.94244 -2.92077,5.98232 -3.56924,4.53765 -9.92344,4.944 -13.97382,0.89361 z"
       style="fill:#000000;stroke-width:1.4076"
       id="path1442" />
  </g>
</svg>
