<?xml version="1.0" encoding="UTF-8" standalone="no"?>
<!-- Created with Inkscape (http://www.inkscape.org/) -->

<svg
   width="1000"
   height="1000"
   viewBox="0 0 264.58333 264.58333"
   version="1.1"
   id="svg1131"
   sodipodi:docname="cl.svg"
   inkscape:version="1.1.1 (3bf5ae0d25, 2021-09-20)"
   xmlns:inkscape="http://www.inkscape.org/namespaces/inkscape"
   xmlns:sodipodi="http://sodipodi.sourceforge.net/DTD/sodipodi-0.dtd"
   xmlns="http://www.w3.org/2000/svg"
   xmlns:svg="http://www.w3.org/2000/svg">
  <sodipodi:namedview
     id="namedview1133"
     pagecolor="#ffffff"
     bordercolor="#666666"
     borderopacity="1.0"
     inkscape:pageshadow="2"
     inkscape:pageopacity="0.0"
     inkscape:pagecheckerboard="0"
     inkscape:document-units="mm"
     showgrid="false"
     units="px"
     fit-margin-top="0"
     fit-margin-left="0"
     fit-margin-right="0"
     fit-margin-bottom="0"
     inkscape:zoom="0.5"
     inkscape:cx="640"
     inkscape:cy="375"
     inkscape:window-width="1920"
     inkscape:window-height="1017"
     inkscape:window-x="-8"
     inkscape:window-y="-8"
     inkscape:window-maximized="1"
     inkscape:current-layer="layer1"
     inkscape:snap-bbox="true"
     inkscape:snap-global="true"
     inkscape:bbox-paths="true"
     inkscape:object-paths="false"
     inkscape:snap-intersection-paths="false"
     inkscape:object-nodes="false"
     inkscape:snap-smooth-nodes="false"
     inkscape:snap-midpoints="false"
     inkscape:snap-object-midpoints="false"
     inkscape:snap-page="true"
     inkscape:bbox-nodes="true"
     inkscape:snap-bbox-edge-midpoints="true"
     inkscape:snap-bbox-midpoints="true" />
  <defs
     id="defs1128" />
  <g
     inkscape:label="Camada 1"
     inkscape:groupmode="layer"
     id="layer1"
     transform="translate(-722.81113,-105.92288)">
    <path
       d="m 847.75661,301.92821 c -5.46547,-2.88416 -11.74429,-11.80276 -13.898,-19.74097 -0.783,-2.8862 -1.14073,-10.57325 -0.81355,-17.48225 0.48904,-10.32577 1.22234,-13.69498 4.50961,-20.71981 2.15914,-4.61394 6.29182,-10.75502 9.18382,-13.64712 4.54951,-4.54942 6.01283,-5.25809 10.85801,-5.25809 6.64678,0 11.81076,3.50313 14.43997,9.79572 6.16788,14.76178 -5.63245,30.38568 -15.49823,20.5198 l -3.03892,-3.03887 -1.39277,5.53136 c -2.53297,10.05929 -1.0377,22.77213 3.08038,26.18978 1.53706,1.27567 2.24316,0.75062 4.03022,-2.99703 5.66823,-11.88635 20.53527,-6.89809 17.71468,5.94378 -1.06475,4.84794 -8.99506,13.63966 -14.31036,15.86494 -5.56089,2.32801 -9.06077,2.10158 -14.86486,-0.96124 z"
       style="fill:#000000;stroke-width:1.28286"
       id="path1502" />
  </g>
</svg>
