<?xml version="1.0" encoding="UTF-8" standalone="no"?>
<!-- Created with Inkscape (http://www.inkscape.org/) -->

<svg
   width="1000"
   height="1000"
   viewBox="0 0 264.58333 264.58333"
   version="1.1"
   id="svg1131"
   sodipodi:docname="ecom.svg"
   inkscape:version="1.1.1 (3bf5ae0d25, 2021-09-20)"
   xmlns:inkscape="http://www.inkscape.org/namespaces/inkscape"
   xmlns:sodipodi="http://sodipodi.sourceforge.net/DTD/sodipodi-0.dtd"
   xmlns="http://www.w3.org/2000/svg"
   xmlns:svg="http://www.w3.org/2000/svg">
  <sodipodi:namedview
     id="namedview1133"
     pagecolor="#ffffff"
     bordercolor="#666666"
     borderopacity="1.0"
     inkscape:pageshadow="2"
     inkscape:pageopacity="0.0"
     inkscape:pagecheckerboard="0"
     inkscape:document-units="mm"
     showgrid="false"
     units="px"
     fit-margin-top="0"
     fit-margin-left="0"
     fit-margin-right="0"
     fit-margin-bottom="0"
     inkscape:zoom="0.5"
     inkscape:cx="522"
     inkscape:cy="249"
     inkscape:window-width="1920"
     inkscape:window-height="1017"
     inkscape:window-x="-8"
     inkscape:window-y="-8"
     inkscape:window-maximized="1"
     inkscape:current-layer="layer1"
     inkscape:snap-bbox="true"
     inkscape:snap-global="true"
     inkscape:bbox-paths="true"
     inkscape:object-paths="false"
     inkscape:snap-intersection-paths="false"
     inkscape:object-nodes="false"
     inkscape:snap-smooth-nodes="false"
     inkscape:snap-midpoints="false"
     inkscape:snap-object-midpoints="false"
     inkscape:snap-page="true"
     inkscape:bbox-nodes="true"
     inkscape:snap-bbox-edge-midpoints="true"
     inkscape:snap-bbox-midpoints="true" />
  <defs
     id="defs1128" />
  <g
     inkscape:label="Camada 1"
     inkscape:groupmode="layer"
     id="layer1"
     transform="translate(-722.81113,-105.92288)">
    <path
       d="m 872.43139,302.33973 c -2.80894,-1.21838 -6.26512,-3.26311 -7.6803,-4.5439 -2.16487,-1.95918 -3.61793,-2.06559 -9.15782,-0.6706 -10.00687,2.51975 -24.22562,2.01302 -31.09709,-1.10825 -23.43059,-10.64303 -21.23067,-40.97986 4.55897,-62.86805 14.16986,-12.02623 13.53024,-10.98435 13.63587,-22.21154 0.10402,-11.07045 4.01553,-23.83798 9.39979,-30.68297 7.15332,-9.09397 22.72928,-10.79678 33.90875,-3.70693 8.37521,5.31139 11.94864,11.71173 11.99937,21.4921 0.0679,13.05683 -8.98445,24.83803 -25.19175,32.78683 -6.39138,3.13467 -7.76846,4.48171 -7.72401,7.55542 0.0673,4.66304 3.64029,23.37852 4.65715,24.39538 0.41272,0.41272 4.3417,-3.73441 8.73069,-9.21618 8.71701,-10.88739 13.23693,-12.84662 19.76665,-8.56816 7.07167,4.63351 4.34204,12.87705 -10.14559,30.64014 l -5.72534,7.01971 3.8407,3.02114 c 5.32552,4.18902 5.308,11.7416 -0.0389,15.94603 -4.55964,3.58662 -6.8525,3.70676 -13.73899,0.71983 z m -25.46202,-25.03717 4.38387,-0.87679 -2.60397,-10.52896 c -1.43214,-5.79092 -3.02225,-12.42455 -3.53355,-14.74138 -0.91784,-4.15921 -0.96868,-4.17779 -4.02621,-1.4717 -5.55218,4.91397 -11.4815,15.62297 -11.4815,20.73674 0,6.72579 6.02738,9.1289 17.26136,6.88209 z m 25.99534,-72.78843 c 4.63028,-5.50279 4.83375,-8.11405 0.80054,-10.27258 -3.99779,-2.13956 -6.73837,0.12794 -8.70277,7.20026 -2.36117,8.50069 -2.02571,10.89273 1.27956,9.12385 1.53155,-0.81967 4.51175,-3.5429 6.62267,-6.05153 z"
       style="fill:#000000;stroke-width:1.47171"
       id="path1466" />
  </g>
</svg>
