<?xml version="1.0" encoding="UTF-8" standalone="no"?>
<!-- Created with Inkscape (http://www.inkscape.org/) -->

<svg
   width="1000"
   height="1000"
   viewBox="0 0 264.58333 264.58333"
   version="1.1"
   id="svg1131"
   sodipodi:docname="F.svg"
   inkscape:version="1.1.1 (3bf5ae0d25, 2021-09-20)"
   xmlns:inkscape="http://www.inkscape.org/namespaces/inkscape"
   xmlns:sodipodi="http://sodipodi.sourceforge.net/DTD/sodipodi-0.dtd"
   xmlns="http://www.w3.org/2000/svg"
   xmlns:svg="http://www.w3.org/2000/svg">
  <sodipodi:namedview
     id="namedview1133"
     pagecolor="#ffffff"
     bordercolor="#666666"
     borderopacity="1.0"
     inkscape:pageshadow="2"
     inkscape:pageopacity="0.0"
     inkscape:pagecheckerboard="0"
     inkscape:document-units="mm"
     showgrid="false"
     units="px"
     fit-margin-top="0"
     fit-margin-left="0"
     fit-margin-right="0"
     fit-margin-bottom="0"
     inkscape:zoom="0.5"
     inkscape:cx="234"
     inkscape:cy="407"
     inkscape:window-width="1920"
     inkscape:window-height="1017"
     inkscape:window-x="-8"
     inkscape:window-y="-8"
     inkscape:window-maximized="1"
     inkscape:current-layer="layer1"
     inkscape:snap-bbox="true"
     inkscape:snap-global="true"
     inkscape:bbox-paths="true" />
  <defs
     id="defs1128" />
  <g
     inkscape:label="Camada 1"
     inkscape:groupmode="layer"
     id="layer1"
     transform="translate(-722.81113,-105.92288)">
    <path
       d="m 828.57901,299.26883 c -2.84391,-3.13543 -2.97586,-4.72685 -2.35578,-28.41659 0.36098,-13.80233 1.02385,-30.74152 1.47258,-37.64271 0.80526,-12.38168 0.77781,-12.51346 -2.07715,-9.9643 -1.5912,1.42086 -4.89679,2.58335 -7.3458,2.58335 -10.48959,0 -13.45244,-13.15379 -5.65244,-25.09515 7.33029,-11.22248 21.14237,-26.1084 26.64987,-28.72195 10.22586,-4.85243 18.11295,0.34369 25.11156,16.54341 3.4873,8.07244 4.48682,9.22617 7.99254,9.22617 4.06035,0 8.89298,-3.91005 8.89298,-7.19522 0,-3.18245 7.13155,-9.04283 11.00422,-9.04283 9.57231,0 13.0133,13.57374 6.04187,23.83313 -5.67018,8.34443 -15.03438,13.07155 -25.89404,13.07155 -9.81618,0 -13.31967,-1.27106 -19.56864,-7.09942 l -4.05951,-3.7863 v 13.75501 13.75501 l 5.1979,-0.84352 c 6.31352,-1.02452 13.53903,1.28021 15.49986,4.94404 2.26696,4.23588 1.70027,9.58654 -1.30337,12.30469 -2.04289,1.84879 -14.95728,5.2143 -20.50159,5.34274 -0.20309,0.004 -0.36879,8.26113 -0.36879,18.34762 0,17.5759 -0.15901,18.52805 -3.82167,22.88086 -4.65638,5.53383 -10.56363,6.01722 -14.91438,1.22041 z"
       style="fill:#000000;stroke-width:1.47618"
       id="path1000" />
  </g>
</svg>
