<?xml version="1.0" encoding="UTF-8" standalone="no"?>
<!-- Created with Inkscape (http://www.inkscape.org/) -->

<svg
   width="1000"
   height="1000"
   viewBox="0 0 264.58333 264.58333"
   version="1.1"
   id="svg1131"
   sodipodi:docname="G.svg"
   inkscape:version="1.1.1 (3bf5ae0d25, 2021-09-20)"
   xmlns:inkscape="http://www.inkscape.org/namespaces/inkscape"
   xmlns:sodipodi="http://sodipodi.sourceforge.net/DTD/sodipodi-0.dtd"
   xmlns="http://www.w3.org/2000/svg"
   xmlns:svg="http://www.w3.org/2000/svg">
  <sodipodi:namedview
     id="namedview1133"
     pagecolor="#ffffff"
     bordercolor="#666666"
     borderopacity="1.0"
     inkscape:pageshadow="2"
     inkscape:pageopacity="0.0"
     inkscape:pagecheckerboard="0"
     inkscape:document-units="mm"
     showgrid="false"
     units="px"
     fit-margin-top="0"
     fit-margin-left="0"
     fit-margin-right="0"
     fit-margin-bottom="0"
     inkscape:zoom="0.5"
     inkscape:cx="234"
     inkscape:cy="407"
     inkscape:window-width="1920"
     inkscape:window-height="1017"
     inkscape:window-x="-8"
     inkscape:window-y="-8"
     inkscape:window-maximized="1"
     inkscape:current-layer="layer1"
     inkscape:snap-bbox="true"
     inkscape:snap-global="true"
     inkscape:bbox-paths="true" />
  <defs
     id="defs1128" />
  <g
     inkscape:label="Camada 1"
     inkscape:groupmode="layer"
     id="layer1"
     transform="translate(-722.81113,-105.92288)">
    <path
       d="m 832.82654,301.58289 c -6.3711,-2.76996 -17.2542,-13.82942 -21.4797,-21.82715 -4.7452,-8.98181 -4.7672,-25.28675 -0.056,-37.52663 9.5811,-24.86174 29.5838,-51.07259 50.1177,-65.6714 8.2806,-5.88742 16.1892,-6.77045 21.5757,-2.409 4.8706,3.94425 5.677,19.09002 1.3111,24.63998 -3.523,4.47891 -10.7427,5.25819 -14.7888,1.59628 -2.3137,-2.09345 -3.3735,-1.37093 -12.7556,8.69396 -17.1738,18.42318 -30.5336,46.36159 -27.3978,57.2954 3.0442,10.615 11.5395,17.5673 19.3655,15.8484 5.9901,-1.31563 21.0531,-12.23718 27.3753,-19.84834 8.2564,-9.94002 6.8751,-11.18607 -7.4102,-6.68312 -7.3106,2.30447 -8.0862,2.30324 -11.6305,-0.0169 -4.6896,-3.07274 -6.3351,-8.94735 -3.8225,-13.64295 2.7047,-5.05352 20.7389,-11.45217 29.8726,-10.59893 8.1857,0.76468 11.952,2.60462 16.0836,7.85725 4.3688,5.55378 4.3199,20.07509 -0.09,27.31214 -8.4925,13.93085 -22.5996,26.35304 -38.5495,33.94475 -7.9001,3.76025 -20.3888,4.22793 -27.7248,1.03818 z"
       style="fill:#000000;stroke-width:1.48688"
       id="path1050" />
  </g>
</svg>
