<?xml version="1.0" encoding="UTF-8" standalone="no"?>
<!-- Created with Inkscape (http://www.inkscape.org/) -->

<svg
   width="1000"
   height="1000"
   viewBox="0 0 264.58333 264.58333"
   version="1.1"
   id="svg1131"
   sodipodi:docname="hl.svg"
   inkscape:version="1.1.1 (3bf5ae0d25, 2021-09-20)"
   xmlns:inkscape="http://www.inkscape.org/namespaces/inkscape"
   xmlns:sodipodi="http://sodipodi.sourceforge.net/DTD/sodipodi-0.dtd"
   xmlns="http://www.w3.org/2000/svg"
   xmlns:svg="http://www.w3.org/2000/svg">
  <sodipodi:namedview
     id="namedview1133"
     pagecolor="#ffffff"
     bordercolor="#666666"
     borderopacity="1.0"
     inkscape:pageshadow="2"
     inkscape:pageopacity="0.0"
     inkscape:pagecheckerboard="0"
     inkscape:document-units="mm"
     showgrid="false"
     units="px"
     fit-margin-top="0"
     fit-margin-left="0"
     fit-margin-right="0"
     fit-margin-bottom="0"
     inkscape:zoom="0.5"
     inkscape:cx="640"
     inkscape:cy="375"
     inkscape:window-width="1920"
     inkscape:window-height="1017"
     inkscape:window-x="-8"
     inkscape:window-y="-8"
     inkscape:window-maximized="1"
     inkscape:current-layer="layer1"
     inkscape:snap-bbox="true"
     inkscape:snap-global="true"
     inkscape:bbox-paths="true"
     inkscape:object-paths="false"
     inkscape:snap-intersection-paths="false"
     inkscape:object-nodes="false"
     inkscape:snap-smooth-nodes="false"
     inkscape:snap-midpoints="false"
     inkscape:snap-object-midpoints="false"
     inkscape:snap-page="true"
     inkscape:bbox-nodes="true"
     inkscape:snap-bbox-edge-midpoints="true"
     inkscape:snap-bbox-midpoints="true" />
  <defs
     id="defs1128" />
  <g
     inkscape:label="Camada 1"
     inkscape:groupmode="layer"
     id="layer1"
     transform="translate(-722.81113,-105.92288)">
    <path
       d="m 868.33942,301.12403 c -5.5669,-6.11158 -6.4658,-10.10049 -8.1196,-36.0206 l -1.6576,-25.98064 -4.1663,8.51527 c -2.2913,4.68342 -6.3142,17.19391 -8.9391,27.80097 -5.3419,21.58695 -8.0462,26.04445 -15.8,26.04445 -3.3386,0 -5.5294,-1.08261 -7.6522,-3.78163 -2.9207,-3.71299 -2.962,-4.79114 -2.2555,-59.31559 0.3968,-30.54369 0.7169,-56.66624 0.7131,-58.05026 0,-3.87772 5.2772,-8.26826 9.9554,-8.26826 2.8348,0 5.1826,1.23723 7.1897,3.78886 2.7473,3.49223 2.9804,5.68353 2.9804,28.00211 v 24.21359 l 6.2354,-6.23527 c 6.9891,-6.98902 13.3581,-8.84125 20.4326,-5.94207 9.1646,3.75609 11.7728,12.28647 13.0108,42.54559 l 0.8565,20.94609 4.1125,1.55228 c 11.2294,4.23864 4.1495,23.42049 -8.6445,23.42049 -3.6696,0 -6.2131,-0.99739 -8.2516,-3.23538 z"
       style="fill:#000000;stroke-width:1.43795"
       id="path1851" />
  </g>
</svg>
