<?xml version="1.0" encoding="UTF-8" standalone="no"?>
<!-- Created with Inkscape (http://www.inkscape.org/) -->

<svg
   width="1000"
   height="1000"
   viewBox="0 0 264.58333 264.58333"
   version="1.1"
   id="svg1131"
   sodipodi:docname="I.svg"
   inkscape:version="1.1.1 (3bf5ae0d25, 2021-09-20)"
   xmlns:inkscape="http://www.inkscape.org/namespaces/inkscape"
   xmlns:sodipodi="http://sodipodi.sourceforge.net/DTD/sodipodi-0.dtd"
   xmlns="http://www.w3.org/2000/svg"
   xmlns:svg="http://www.w3.org/2000/svg">
  <sodipodi:namedview
     id="namedview1133"
     pagecolor="#ffffff"
     bordercolor="#666666"
     borderopacity="1.0"
     inkscape:pageshadow="2"
     inkscape:pageopacity="0.0"
     inkscape:pagecheckerboard="0"
     inkscape:document-units="mm"
     showgrid="false"
     units="px"
     fit-margin-top="0"
     fit-margin-left="0"
     fit-margin-right="0"
     fit-margin-bottom="0"
     inkscape:zoom="0.5"
     inkscape:cx="234"
     inkscape:cy="407"
     inkscape:window-width="1920"
     inkscape:window-height="1017"
     inkscape:window-x="-8"
     inkscape:window-y="-8"
     inkscape:window-maximized="1"
     inkscape:current-layer="layer1"
     inkscape:snap-bbox="true"
     inkscape:snap-global="true"
     inkscape:bbox-paths="true" />
  <defs
     id="defs1128" />
  <g
     inkscape:label="Camada 1"
     inkscape:groupmode="layer"
     id="layer1"
     transform="translate(-722.81113,-105.92288)">
    <path
       d="m 870.50626,302.79009 c -8.09536,-0.59113 -18.36168,-1.84887 -22.81416,-2.79497 -4.45241,-0.94616 -13.39413,-1.74484 -19.87037,-1.77488 -15.38191,-0.0712 -18.73018,-2.01982 -18.11096,-10.53903 0.62901,-8.65422 6.54873,-11.67749 21.18681,-10.8204 l 10.43522,0.61104 0.18024,-30.36116 c 0.099,-16.69862 0.61488,-35.8255 1.14592,-42.50418 l 0.96552,-12.14301 h -13.421 c -11.45853,0 -13.85152,-0.43057 -16.36484,-2.94378 -3.9706,-3.97066 -3.76188,-10.49329 0.46285,-14.46223 3.90418,-3.66775 10.31233,-3.92721 55.07064,-2.22938 21.97413,0.83357 25.75687,1.3319 28.33372,3.73256 3.75276,3.49625 3.82035,10.11958 0.14965,14.63586 -2.68711,3.30587 -3.57035,3.45418 -18.17288,3.05137 l -15.34847,-0.42335 -0.95401,14.40632 c -1.17902,17.80544 -0.96023,62.88129 0.33434,68.86592 l 0.95512,4.41565 12.48563,0.0901 c 15.31443,0.1107 18.30922,1.04868 20.53866,6.43085 2.3635,5.70604 -1.06849,12.42216 -7.49205,14.66144 -2.57395,0.89731 -4.74675,1.5276 -4.82831,1.40066 -0.0818,-0.12684 -6.7718,-0.71441 -14.86716,-1.30553 z"
       style="fill:#000000;stroke-width:1.47188"
       id="path1074" />
  </g>
</svg>
