<?xml version="1.0" encoding="UTF-8" standalone="no"?>
<!-- Created with Inkscape (http://www.inkscape.org/) -->

<svg
   width="1000"
   height="1000"
   viewBox="0 0 264.58333 264.58333"
   version="1.1"
   id="svg1131"
   sodipodi:docname="K.svg"
   inkscape:version="1.1.1 (3bf5ae0d25, 2021-09-20)"
   xmlns:inkscape="http://www.inkscape.org/namespaces/inkscape"
   xmlns:sodipodi="http://sodipodi.sourceforge.net/DTD/sodipodi-0.dtd"
   xmlns="http://www.w3.org/2000/svg"
   xmlns:svg="http://www.w3.org/2000/svg">
  <sodipodi:namedview
     id="namedview1133"
     pagecolor="#ffffff"
     bordercolor="#666666"
     borderopacity="1.0"
     inkscape:pageshadow="2"
     inkscape:pageopacity="0.0"
     inkscape:pagecheckerboard="0"
     inkscape:document-units="mm"
     showgrid="false"
     units="px"
     fit-margin-top="0"
     fit-margin-left="0"
     fit-margin-right="0"
     fit-margin-bottom="0"
     inkscape:zoom="0.5"
     inkscape:cx="234"
     inkscape:cy="407"
     inkscape:window-width="1920"
     inkscape:window-height="1017"
     inkscape:window-x="-8"
     inkscape:window-y="-8"
     inkscape:window-maximized="1"
     inkscape:current-layer="layer1"
     inkscape:snap-bbox="true"
     inkscape:snap-global="true"
     inkscape:bbox-paths="true" />
  <defs
     id="defs1128" />
  <g
     inkscape:label="Camada 1"
     inkscape:groupmode="layer"
     id="layer1"
     transform="translate(-722.81113,-105.92288)">
    <path
       d="m 826.01089,300.10179 c -5.12213,-5.45226 -5.96352,-13.63481 -6.92736,-67.3681 -0.92613,-51.63542 -0.55031,-55.08286 6.35161,-58.22746 2.85538,-1.301 4.83797,-1.19353 8.84158,0.47941 6.35009,2.65326 8.91776,8.28969 6.689,14.68322 -1.94056,5.56671 -2.10155,46.84685 -0.175,44.86105 0.75468,-0.77786 8.22515,-14.47845 16.60098,-30.44568 8.37578,-15.96728 16.26078,-29.86886 17.52217,-30.8924 5.993,-4.86289 16.66552,1.0169 16.57848,9.1335 -0.0169,1.73197 -5.25082,12.861 -11.62713,24.73121 l -11.59336,21.58216 5.63153,4.07946 c 10.05766,7.28573 15.82796,23.20124 17.1469,47.2943 0.7714,14.09104 0.56635,15.98697 -2.07976,19.23016 -2.03115,2.48946 -4.45455,3.59791 -7.86593,3.59791 -7.72086,0 -9.80254,-3.89822 -10.97294,-20.5481 -1.11576,-15.87275 -4.74022,-28.71259 -8.80297,-31.18472 -2.25094,-1.36965 -3.99663,-0.14292 -11.47334,8.06169 -9.75562,10.70543 -10.09813,12.025 -7.20156,27.74504 1.67474,9.08916 1.60289,9.63137 -1.74828,13.19855 -4.51898,4.81023 -10.3694,4.80589 -14.89468,-0.0113 z"
       style="fill:#000000;stroke-width:1.48879"
       id="path1136" />
  </g>
</svg>
