<?xml version="1.0" encoding="UTF-8" standalone="no"?>
<!-- Created with Inkscape (http://www.inkscape.org/) -->

<svg
   width="1000"
   height="1000"
   viewBox="0 0 264.58333 264.58333"
   version="1.1"
   id="svg1131"
   sodipodi:docname="L.svg"
   inkscape:version="1.1.1 (3bf5ae0d25, 2021-09-20)"
   xmlns:inkscape="http://www.inkscape.org/namespaces/inkscape"
   xmlns:sodipodi="http://sodipodi.sourceforge.net/DTD/sodipodi-0.dtd"
   xmlns="http://www.w3.org/2000/svg"
   xmlns:svg="http://www.w3.org/2000/svg">
  <sodipodi:namedview
     id="namedview1133"
     pagecolor="#ffffff"
     bordercolor="#666666"
     borderopacity="1.0"
     inkscape:pageshadow="2"
     inkscape:pageopacity="0.0"
     inkscape:pagecheckerboard="0"
     inkscape:document-units="mm"
     showgrid="false"
     units="px"
     fit-margin-top="0"
     fit-margin-left="0"
     fit-margin-right="0"
     fit-margin-bottom="0"
     inkscape:zoom="0.5"
     inkscape:cx="234"
     inkscape:cy="407"
     inkscape:window-width="1920"
     inkscape:window-height="1017"
     inkscape:window-x="-8"
     inkscape:window-y="-8"
     inkscape:window-maximized="1"
     inkscape:current-layer="layer1"
     inkscape:snap-bbox="true"
     inkscape:snap-global="true"
     inkscape:bbox-paths="true" />
  <defs
     id="defs1128" />
  <g
     inkscape:label="Camada 1"
     inkscape:groupmode="layer"
     id="layer1"
     transform="translate(-722.81113,-105.92288)">
    <path
       d="m 822.96751,300.21499 c -3.59533,-4.5708 -3.41258,-9.44986 1.66266,-44.35419 1.77537,-12.21052 3.34704,-32.69905 3.80503,-49.60403 0.69107,-25.51136 1.09706,-29.11792 3.55524,-31.57604 2.79059,-2.7906 9.54056,-3.66924 12.5827,-1.63795 4.37255,2.91966 5.63528,8.90134 5.56333,26.3526 -0.073,17.63334 -2.87703,52.63955 -4.33357,54.09603 -0.41447,0.41447 1.391,1.78554 4.0116,3.04726 3.01462,1.45148 6.2066,4.98358 8.69062,9.61716 5.28129,9.8513 7.52909,11.09926 12.68553,7.04313 8.18943,-6.44176 18.61088,-2.75084 18.50496,6.55379 -0.17522,15.40621 -30.91884,23.10221 -41.47536,10.38253 -2.90443,-3.49975 -3.89939,-2.89202 -5.83336,3.56304 -3.15435,10.52827 -13.52615,14.00875 -19.41938,6.51667 z"
       style="fill:#000000;stroke-width:1.48593"
       id="path1148" />
  </g>
</svg>
