<?xml version="1.0" encoding="UTF-8" standalone="no"?>
<!-- Created with Inkscape (http://www.inkscape.org/) -->

<svg
   width="1000"
   height="1000"
   viewBox="0 0 264.58333 264.58333"
   version="1.1"
   id="svg1131"
   sodipodi:docname="nl.svg"
   inkscape:version="1.1.1 (3bf5ae0d25, 2021-09-20)"
   xmlns:inkscape="http://www.inkscape.org/namespaces/inkscape"
   xmlns:sodipodi="http://sodipodi.sourceforge.net/DTD/sodipodi-0.dtd"
   xmlns="http://www.w3.org/2000/svg"
   xmlns:svg="http://www.w3.org/2000/svg">
  <sodipodi:namedview
     id="namedview1133"
     pagecolor="#ffffff"
     bordercolor="#666666"
     borderopacity="1.0"
     inkscape:pageshadow="2"
     inkscape:pageopacity="0.0"
     inkscape:pagecheckerboard="0"
     inkscape:document-units="mm"
     showgrid="false"
     units="px"
     fit-margin-top="0"
     fit-margin-left="0"
     fit-margin-right="0"
     fit-margin-bottom="0"
     inkscape:zoom="0.5"
     inkscape:cx="639"
     inkscape:cy="523"
     inkscape:window-width="1920"
     inkscape:window-height="1001"
     inkscape:window-x="-9"
     inkscape:window-y="-9"
     inkscape:window-maximized="1"
     inkscape:current-layer="layer1"
     inkscape:snap-bbox="true"
     inkscape:snap-global="true"
     inkscape:bbox-paths="true"
     inkscape:object-paths="false"
     inkscape:snap-intersection-paths="false"
     inkscape:object-nodes="false"
     inkscape:snap-smooth-nodes="false"
     inkscape:snap-midpoints="false"
     inkscape:snap-object-midpoints="false"
     inkscape:snap-page="true"
     inkscape:bbox-nodes="true"
     inkscape:snap-bbox-edge-midpoints="true"
     inkscape:snap-bbox-midpoints="true" />
  <defs
     id="defs1128" />
  <g
     inkscape:label="Camada 1"
     inkscape:groupmode="layer"
     id="layer1"
     transform="translate(-722.81113,-105.92288)">
    <path
       d="m 869.07097,302.94388 c -7.55324,-3.8544 -8.77574,-6.92983 -10.49182,-26.39546 l -1.5645,-17.74618 -2.25756,6.36795 c -1.24166,3.50234 -3.07167,10.89466 -4.06668,16.42736 -2.06603,11.48812 -4.32204,14.77549 -10.13994,14.77549 -7.45716,0 -8.86484,-3.20534 -9.14306,-20.81944 -0.32829,-20.79167 -0.8857,-23.43767 -4.93645,-23.43767 -4.54173,0 -8.20956,-3.79072 -8.20114,-8.47571 0.0145,-7.55213 2.50387,-13.50611 6.75736,-16.15646 6.69903,-4.17407 13.966,-1.45355 18.25089,6.83241 l 1.82997,3.53878 4.14571,-5.43541 c 9.40536,-12.33128 20.07989,-8.75071 23.65848,7.93557 0.69392,3.23568 1.60571,11.28894 2.02622,17.89617 1.3051,20.50618 1.17862,20.14713 6.83476,19.38861 4.18032,-0.56078 5.24058,-0.16414 7.6074,2.84467 3.6021,4.57918 3.47268,6.61281 -0.85314,13.41037 -6.2568,9.83192 -12.35988,12.67038 -19.4565,9.04895 z"
       style="fill:#000000;stroke-width:1.27358"
       id="path2102" />
  </g>
</svg>
