<?xml version="1.0" encoding="UTF-8" standalone="no"?>
<!-- Created with Inkscape (http://www.inkscape.org/) -->

<svg
   width="1000"
   height="1000"
   viewBox="0 0 264.58333 264.58333"
   version="1.1"
   id="svg1131"
   sodipodi:docname="ol.svg"
   inkscape:version="1.1.1 (3bf5ae0d25, 2021-09-20)"
   xmlns:inkscape="http://www.inkscape.org/namespaces/inkscape"
   xmlns:sodipodi="http://sodipodi.sourceforge.net/DTD/sodipodi-0.dtd"
   xmlns="http://www.w3.org/2000/svg"
   xmlns:svg="http://www.w3.org/2000/svg">
  <sodipodi:namedview
     id="namedview1133"
     pagecolor="#ffffff"
     bordercolor="#666666"
     borderopacity="1.0"
     inkscape:pageshadow="2"
     inkscape:pageopacity="0.0"
     inkscape:pagecheckerboard="0"
     inkscape:document-units="mm"
     showgrid="false"
     units="px"
     fit-margin-top="0"
     fit-margin-left="0"
     fit-margin-right="0"
     fit-margin-bottom="0"
     inkscape:zoom="0.5"
     inkscape:cx="639"
     inkscape:cy="375"
     inkscape:window-width="1920"
     inkscape:window-height="1001"
     inkscape:window-x="-9"
     inkscape:window-y="-9"
     inkscape:window-maximized="1"
     inkscape:current-layer="layer1"
     inkscape:snap-bbox="true"
     inkscape:snap-global="true"
     inkscape:bbox-paths="true"
     inkscape:object-paths="false"
     inkscape:snap-intersection-paths="false"
     inkscape:object-nodes="false"
     inkscape:snap-smooth-nodes="false"
     inkscape:snap-midpoints="false"
     inkscape:snap-object-midpoints="false"
     inkscape:snap-page="true"
     inkscape:bbox-nodes="true"
     inkscape:snap-bbox-edge-midpoints="true"
     inkscape:snap-bbox-midpoints="true" />
  <defs
     id="defs1128" />
  <g
     inkscape:label="Camada 1"
     inkscape:groupmode="layer"
     id="layer1"
     transform="translate(-722.81113,-105.92288)">
    <path
       d="m 850.22114,303.90987 c -6.50374,-1.50903 -11.94651,-8.25707 -15.13991,-18.77064 -2.29574,-7.55808 -2.62356,-10.97317 -2.08153,-21.68254 0.87198,-17.22622 4.31045,-27.85501 10.95268,-33.8559 4.22987,-3.82132 5.90067,-4.52082 10.79947,-4.52082 8.46488,0 13.35029,3.54219 18.04899,13.08664 10.84607,22.03147 1.45351,61.53563 -15.71389,66.0909 -1.37714,0.3653 -4.46678,0.20915 -6.86581,-0.34779 z m 6.76044,-25.93461 c 2.09212,-6.30339 2.97299,-24.0202 1.43511,-28.86392 -2.20181,-6.93499 -6.5467,0.46703 -7.72668,13.16296 -0.81425,8.7611 1.14501,21.64777 3.29131,21.64777 0.56455,0 1.91468,-2.67608 3.00026,-5.94681 z"
       style="fill:#000000;stroke-width:1.25196"
       id="path2133" />
  </g>
</svg>
