<?xml version="1.0" encoding="UTF-8" standalone="no"?>
<!-- Created with Inkscape (http://www.inkscape.org/) -->

<svg
   width="1000"
   height="1000"
   viewBox="0 0 264.58333 264.58333"
   version="1.1"
   id="svg1131"
   sodipodi:docname="pontovirgula.svg"
   inkscape:version="1.1.1 (3bf5ae0d25, 2021-09-20)"
   xmlns:inkscape="http://www.inkscape.org/namespaces/inkscape"
   xmlns:sodipodi="http://sodipodi.sourceforge.net/DTD/sodipodi-0.dtd"
   xmlns="http://www.w3.org/2000/svg"
   xmlns:svg="http://www.w3.org/2000/svg">
  <sodipodi:namedview
     id="namedview1133"
     pagecolor="#ffffff"
     bordercolor="#666666"
     borderopacity="1.0"
     inkscape:pageshadow="2"
     inkscape:pageopacity="0.0"
     inkscape:pagecheckerboard="0"
     inkscape:document-units="mm"
     showgrid="false"
     units="px"
     fit-margin-top="0"
     fit-margin-left="0"
     fit-margin-right="0"
     fit-margin-bottom="0"
     inkscape:zoom="0.5"
     inkscape:cx="396"
     inkscape:cy="379"
     inkscape:window-width="1920"
     inkscape:window-height="1017"
     inkscape:window-x="-8"
     inkscape:window-y="-8"
     inkscape:window-maximized="1"
     inkscape:current-layer="layer1"
     inkscape:snap-bbox="true"
     inkscape:snap-global="true"
     inkscape:bbox-paths="true"
     inkscape:object-paths="false"
     inkscape:snap-intersection-paths="false"
     inkscape:object-nodes="false"
     inkscape:snap-smooth-nodes="false"
     inkscape:snap-midpoints="false"
     inkscape:snap-object-midpoints="false"
     inkscape:snap-page="true"
     inkscape:bbox-nodes="true"
     inkscape:snap-bbox-edge-midpoints="true"
     inkscape:snap-bbox-midpoints="true" />
  <defs
     id="defs1128" />
  <g
     inkscape:label="Camada 1"
     inkscape:groupmode="layer"
     id="layer1"
     transform="translate(-722.81113,-105.92288)">
    <path
       d="m 846.30653,327.47059 c -3.3896,-4.30885 -3.4168,-7.06327 -0.11314,-11.26509 3.82617,-4.86444 5.89931,-15.83111 3.90331,-20.64993 -2.0504,-4.94918 0.3456,-11.3797 4.63852,-12.45748 12.96982,-3.25526 18.74262,11.88129 12.38366,32.47002 -3.16446,10.24509 -7.75315,15.34519 -13.8064,15.34519 -3.08892,0 -5.06229,-0.96948 -7.00789,-3.44271 z m 7.74469,-83.73181 c -4.31749,-1.55862 -6.53326,-4.78509 -6.53326,-9.51269 0,-5.88093 3.1856,-9.14612 8.9224,-9.14612 11.18023,0 13.02823,15.80444 2.18377,18.67477 -1.43703,0.38025 -3.49531,0.37333 -4.57291,-0.0149 z"
       style="fill:#000000;stroke-width:1.30658"
       id="path1694" />
  </g>
</svg>
