<?xml version="1.0" encoding="UTF-8" standalone="no"?>
<!-- Created with Inkscape (http://www.inkscape.org/) -->

<svg
   width="1000"
   height="1000"
   viewBox="0 0 264.58333 264.58333"
   version="1.1"
   id="svg1131"
   sodipodi:docname="ql.svg"
   inkscape:version="1.1.1 (3bf5ae0d25, 2021-09-20)"
   xmlns:inkscape="http://www.inkscape.org/namespaces/inkscape"
   xmlns:sodipodi="http://sodipodi.sourceforge.net/DTD/sodipodi-0.dtd"
   xmlns="http://www.w3.org/2000/svg"
   xmlns:svg="http://www.w3.org/2000/svg">
  <sodipodi:namedview
     id="namedview1133"
     pagecolor="#ffffff"
     bordercolor="#666666"
     borderopacity="1.0"
     inkscape:pageshadow="2"
     inkscape:pageopacity="0.0"
     inkscape:pagecheckerboard="0"
     inkscape:document-units="mm"
     showgrid="false"
     units="px"
     fit-margin-top="0"
     fit-margin-left="0"
     fit-margin-right="0"
     fit-margin-bottom="0"
     inkscape:zoom="0.5"
     inkscape:cx="639"
     inkscape:cy="375"
     inkscape:window-width="1920"
     inkscape:window-height="1001"
     inkscape:window-x="-9"
     inkscape:window-y="-9"
     inkscape:window-maximized="1"
     inkscape:current-layer="layer1"
     inkscape:snap-bbox="true"
     inkscape:snap-global="true"
     inkscape:bbox-paths="true"
     inkscape:object-paths="false"
     inkscape:snap-intersection-paths="false"
     inkscape:object-nodes="false"
     inkscape:snap-smooth-nodes="false"
     inkscape:snap-midpoints="false"
     inkscape:snap-object-midpoints="false"
     inkscape:snap-page="true"
     inkscape:bbox-nodes="true"
     inkscape:snap-bbox-edge-midpoints="true"
     inkscape:snap-bbox-midpoints="true" />
  <defs
     id="defs1128" />
  <g
     inkscape:label="Camada 1"
     inkscape:groupmode="layer"
     id="layer1"
     transform="translate(-722.81113,-105.92288)">
    <path
       d="m 856.45433,354.87538 c -3.1794,-2.57588 -5.4861,-10.2515 -5.5385,-18.43333 -0.052,-5.02099 -0.067,-5.05225 -4.8888,-4.27017 -3.8637,0.62705 -5.5446,0.13999 -8.2309,-2.38316 -6.7719,-6.36236 -2.1247,-15.93123 8.5835,-17.67178 3.0632,-0.49774 5.3243,-1.69393 5.5649,-2.94348 0.337,-1.76471 -1.0484,-2.01234 -8.5902,-1.53222 -7.9484,0.50604 -9.6288,0.15347 -14.4398,-3.03022 -6.8487,-4.53207 -11.4772,-11.57831 -14.4584,-22.01045 -2.0724,-7.25223 -2.1346,-9.6975 -0.5714,-22.37121 1.9288,-15.63367 4.2956,-21.73554 9.6858,-24.97041 1.9547,-1.17291 5.9672,-3.73386 8.9169,-5.69087 6.7916,-4.50588 12.0884,-5.53792 19.2979,-3.75973 6.7398,1.66236 13.1659,7.50971 16.4608,14.97862 1.304,2.95431 2.7698,5.37164 3.2576,5.37164 2.4234,0 3.9374,7.20645 2.8087,13.36577 -0.658,3.5891 -1.6275,16.10902 -2.1543,27.82202 l -0.9577,21.29639 10.2759,-0.51879 c 9.0169,-0.45523 10.6294,-0.1654 13.1622,2.3675 3.5303,3.53061 3.7035,8.4324 0.4407,12.4634 -1.9148,2.36444 -4.6752,3.27972 -12.6894,4.20708 -5.6333,0.65204 -10.7912,1.21242 -11.4616,1.2456 -0.6828,0.0363 -0.7958,3.83383 -0.2592,8.6341 0.5294,4.71566 0.9281,10.11716 0.8866,12.00346 -0.088,4.07595 -4.6399,8.23092 -9.0133,8.23092 -1.7188,0 -4.459,-1.08031 -6.0886,-2.40068 z m -10.0695,-73.15468 c 3.9571,-7.74147 6.2145,-19.60401 5.0708,-26.64527 -1.9267,-11.86129 -5.5094,-13.30765 -11.0437,-4.45844 -2.0055,3.20667 -4.4828,6.324 -5.5048,6.9273 -2.1761,1.28496 -2.6079,18.01476 -0.6009,23.29349 1.612,4.23948 5.4819,8.11587 7.449,7.46025 0.8405,-0.27998 2.9238,-3.23995 4.6296,-6.57733 z"
       style="fill:#000000;stroke-width:1.37182"
       id="path2157" />
  </g>
</svg>
