<?xml version="1.0" encoding="UTF-8" standalone="no"?>
<!-- Created with Inkscape (http://www.inkscape.org/) -->

<svg
   width="1000"
   height="1000"
   viewBox="0 0 264.58333 264.58333"
   version="1.1"
   id="svg1131"
   sodipodi:docname="tio.svg"
   inkscape:version="1.1.1 (3bf5ae0d25, 2021-09-20)"
   xmlns:inkscape="http://www.inkscape.org/namespaces/inkscape"
   xmlns:sodipodi="http://sodipodi.sourceforge.net/DTD/sodipodi-0.dtd"
   xmlns="http://www.w3.org/2000/svg"
   xmlns:svg="http://www.w3.org/2000/svg">
  <sodipodi:namedview
     id="namedview1133"
     pagecolor="#ffffff"
     bordercolor="#666666"
     borderopacity="1.0"
     inkscape:pageshadow="2"
     inkscape:pageopacity="0.0"
     inkscape:pagecheckerboard="0"
     inkscape:document-units="mm"
     showgrid="false"
     units="px"
     fit-margin-top="0"
     fit-margin-left="0"
     fit-margin-right="0"
     fit-margin-bottom="0"
     inkscape:zoom="0.5"
     inkscape:cx="396"
     inkscape:cy="379"
     inkscape:window-width="1920"
     inkscape:window-height="1017"
     inkscape:window-x="-8"
     inkscape:window-y="-8"
     inkscape:window-maximized="1"
     inkscape:current-layer="layer1"
     inkscape:snap-bbox="true"
     inkscape:snap-global="true"
     inkscape:bbox-paths="true"
     inkscape:object-paths="false"
     inkscape:snap-intersection-paths="false"
     inkscape:object-nodes="false"
     inkscape:snap-smooth-nodes="false"
     inkscape:snap-midpoints="false"
     inkscape:snap-object-midpoints="true"
     inkscape:snap-page="true"
     inkscape:bbox-nodes="true"
     inkscape:snap-bbox-edge-midpoints="true"
     inkscape:snap-bbox-midpoints="true" />
  <defs
     id="defs1128" />
  <g
     inkscape:label="Camada 1"
     inkscape:groupmode="layer"
     id="layer1"
     transform="translate(-722.81113,-105.92288)">
    <path
       d="m 862.22201,154.0045 c -4.9357,-2.63464 -14.2901,-8.63663 -20.7873,-13.33758 -6.497,-4.70088 -12.605,-8.05745 -13.5732,-7.45911 -0.968,0.5982 -3.40858,4.81416 -5.4231,9.36854 -2.01467,4.55431 -4.95243,9.70562 -6.52859,11.44717 -6.25533,6.91195 -20.04005,1.31879 -20.04005,-8.1314 0,-11.07298 10.9319,-31.08403 20.00214,-36.61442 10.6232,-6.4772 20.5436,-3.88202 40.0551,10.47806 6.4485,4.74589 14.3436,9.96044 17.5447,11.58751 l 5.8202,2.95846 5.2376,-5.8368 c 2.8807,-3.2102 7.1895,-8.02998 9.5752,-10.71077 5.3653,-6.02892 10.4934,-6.19499 16.1648,-0.52385 5.947,5.94706 5.4705,11.17862 -2.0591,22.61253 -12.5353,19.03436 -27.9609,23.78454 -45.9884,14.16152 z"
       style="fill:#000000;stroke-width:1.77239"
       id="path2142" />
  </g>
</svg>
