<?xml version="1.0" encoding="UTF-8" standalone="no"?>
<!-- Created with Inkscape (http://www.inkscape.org/) -->

<svg
   width="1000"
   height="1000"
   viewBox="0 0 264.58333 264.58333"
   version="1.1"
   id="svg1131"
   sodipodi:docname="àl.svg"
   inkscape:version="1.1.1 (3bf5ae0d25, 2021-09-20)"
   xmlns:inkscape="http://www.inkscape.org/namespaces/inkscape"
   xmlns:sodipodi="http://sodipodi.sourceforge.net/DTD/sodipodi-0.dtd"
   xmlns="http://www.w3.org/2000/svg"
   xmlns:svg="http://www.w3.org/2000/svg">
  <sodipodi:namedview
     id="namedview1133"
     pagecolor="#ffffff"
     bordercolor="#666666"
     borderopacity="1.0"
     inkscape:pageshadow="2"
     inkscape:pageopacity="0.0"
     inkscape:pagecheckerboard="0"
     inkscape:document-units="mm"
     showgrid="false"
     units="px"
     fit-margin-top="0"
     fit-margin-left="0"
     fit-margin-right="0"
     fit-margin-bottom="0"
     inkscape:zoom="0.35355339"
     inkscape:cx="741.04791"
     inkscape:cy="383.25188"
     inkscape:window-width="1920"
     inkscape:window-height="1017"
     inkscape:window-x="-8"
     inkscape:window-y="-8"
     inkscape:window-maximized="1"
     inkscape:current-layer="layer1"
     inkscape:snap-bbox="true"
     inkscape:snap-global="true"
     inkscape:bbox-paths="true"
     inkscape:object-paths="false"
     inkscape:snap-intersection-paths="false"
     inkscape:object-nodes="false"
     inkscape:snap-smooth-nodes="false"
     inkscape:snap-midpoints="false"
     inkscape:snap-object-midpoints="false"
     inkscape:snap-page="true"
     inkscape:bbox-nodes="true"
     inkscape:snap-bbox-edge-midpoints="true"
     inkscape:snap-bbox-midpoints="true" />
  <defs
     id="defs1128" />
  <g
     inkscape:label="Camada 1"
     inkscape:groupmode="layer"
     id="layer1"
     transform="translate(-722.81113,-105.92288)">
    <path
       d="m 839.03776,302.30772 c -6.02721,-3.02711 -12.29855,-10.82242 -15.43394,-19.18446 -2.26978,-6.05359 -2.71819,-9.77996 -2.35727,-19.58932 0.43925,-11.94685 0.53304,-12.24393 6.79506,-21.57315 9.05185,-13.48555 12.84651,-16.34852 21.66901,-16.34852 5.9952,0 8.04142,0.69334 12.83402,4.34872 3.16529,2.41424 7.21773,7.29646 9.11004,10.97538 3.05642,5.94203 3.41628,8.21534 3.48286,22.00321 0.0747,15.44433 1.49905,21.38082 5.12977,21.38082 3.71058,0 8.8058,5.46024 8.8058,9.43678 0,9.13573 -11.15626,12.28504 -20.66365,5.83317 -4.98117,-3.38024 -5.04944,-3.3875 -7.85835,-0.83386 -6.53625,5.94229 -14.22541,7.21149 -21.51335,3.55123 z m 12.78368,-23.92502 c 4.56713,-10.32484 5.77688,-20.26244 3.26686,-26.83495 -4.77655,-12.50728 -9.30522,-6.47396 -11.34815,15.11836 -1.05342,11.13473 -0.92649,13.26064 0.91317,15.29339 3.17614,3.50958 4.27635,2.96056 7.16812,-3.5768 z m -6.33766,-78.76296 c -3.82868,-2.68178 -15.53283,-27.04398 -15.39177,-32.03804 0.20827,-7.36268 10.63897,-11.7284 15.16746,-6.3482 4.33134,5.14591 14.45955,27.346 14.45955,31.69402 0,7.40095 -7.91251,11.12082 -14.23524,6.69222 z"
       style="fill:#000000;stroke-width:1.33428"
       id="path1088" />
  </g>
</svg>
