<?xml version="1.0" encoding="UTF-8" standalone="no"?>
<!-- Created with Inkscape (http://www.inkscape.org/) -->

<svg
   width="1000"
   height="1000"
   viewBox="0 0 264.58333 264.58333"
   version="1.1"
   id="svg1131"
   sodipodi:docname="ál.svg"
   inkscape:version="1.1.1 (3bf5ae0d25, 2021-09-20)"
   xmlns:inkscape="http://www.inkscape.org/namespaces/inkscape"
   xmlns:sodipodi="http://sodipodi.sourceforge.net/DTD/sodipodi-0.dtd"
   xmlns="http://www.w3.org/2000/svg"
   xmlns:svg="http://www.w3.org/2000/svg">
  <sodipodi:namedview
     id="namedview1133"
     pagecolor="#ffffff"
     bordercolor="#666666"
     borderopacity="1.0"
     inkscape:pageshadow="2"
     inkscape:pageopacity="0.0"
     inkscape:pagecheckerboard="0"
     inkscape:document-units="mm"
     showgrid="false"
     units="px"
     fit-margin-top="0"
     fit-margin-left="0"
     fit-margin-right="0"
     fit-margin-bottom="0"
     inkscape:zoom="0.35355339"
     inkscape:cx="741.04791"
     inkscape:cy="383.25188"
     inkscape:window-width="1920"
     inkscape:window-height="1017"
     inkscape:window-x="-8"
     inkscape:window-y="-8"
     inkscape:window-maximized="1"
     inkscape:current-layer="layer1"
     inkscape:snap-bbox="true"
     inkscape:snap-global="true"
     inkscape:bbox-paths="true"
     inkscape:object-paths="false"
     inkscape:snap-intersection-paths="false"
     inkscape:object-nodes="false"
     inkscape:snap-smooth-nodes="false"
     inkscape:snap-midpoints="false"
     inkscape:snap-object-midpoints="false"
     inkscape:snap-page="true"
     inkscape:bbox-nodes="true"
     inkscape:snap-bbox-edge-midpoints="true"
     inkscape:snap-bbox-midpoints="true" />
  <defs
     id="defs1128" />
  <g
     inkscape:label="Camada 1"
     inkscape:groupmode="layer"
     id="layer1"
     transform="translate(-722.81113,-105.92288)">
    <path
       d="m 841.39544,303.58715 c -11.06154,-3.49936 -20.85918,-20.79114 -20.87598,-36.84402 -0.0101,-9.61425 2.03394,-15.69462 8.78372,-26.12871 7.75276,-11.98454 11.65776,-14.73087 20.86434,-14.67367 9.62644,0.0597 16.48384,4.7744 21.65689,14.88945 3.52973,6.90188 3.82078,8.62691 3.88967,23.05327 0.0456,9.17732 0.68464,16.42193 1.55743,17.60738 0.81565,1.1078 3.55641,3.064 6.0906,4.34714 10.10676,5.11743 7.57676,16.6408 -3.83804,17.4814 -4.45895,0.3285 -6.64399,-0.33458 -10.30476,-3.12682 l -4.64588,-3.54359 -4.72212,3.60175 c -5.16541,3.93983 -12.40911,5.24934 -18.45587,3.33642 z m 11.11924,-25.99675 c 2.18124,-4.35949 3.41791,-9.53629 3.82477,-16.01077 0.5288,-8.41442 0.23942,-10.02505 -2.3998,-13.35732 -2.46302,-3.10971 -3.29734,-3.4699 -4.65332,-2.00884 -2.81471,3.03292 -4.68248,10.53548 -4.68248,18.80868 0,4.35802 -0.62062,9.08322 -1.37906,10.50045 -1.0334,1.93093 -0.81883,3.43178 0.85603,5.98799 2.96763,4.52921 4.58165,3.77897 8.43386,-3.92019 z m -7.67739,-80.23936 c -4.39614,-4.67944 -3.61112,-8.57058 4.52198,-22.41473 8.43608,-14.3599 10.09688,-16.00217 16.18286,-16.00217 4.8766,0 8.52502,3.86851 8.52502,9.03924 0,2.9739 -12.35354,25.32805 -16.65269,30.13362 -2.97011,3.31998 -9.09381,2.95189 -12.57717,-0.75596 z"
       style="fill:#000000;stroke-width:1.33924"
       id="path1089" />
  </g>
</svg>
