<?xml version="1.0" encoding="UTF-8" standalone="no"?>
<!-- Created with Inkscape (http://www.inkscape.org/) -->

<svg
   width="1000"
   height="1000"
   viewBox="0 0 264.58333 264.58333"
   version="1.1"
   id="svg1131"
   sodipodi:docname="Â.svg"
   inkscape:version="1.1.1 (3bf5ae0d25, 2021-09-20)"
   xmlns:inkscape="http://www.inkscape.org/namespaces/inkscape"
   xmlns:sodipodi="http://sodipodi.sourceforge.net/DTD/sodipodi-0.dtd"
   xmlns="http://www.w3.org/2000/svg"
   xmlns:svg="http://www.w3.org/2000/svg">
  <sodipodi:namedview
     id="namedview1133"
     pagecolor="#ffffff"
     bordercolor="#666666"
     borderopacity="1.0"
     inkscape:pageshadow="2"
     inkscape:pageopacity="0.0"
     inkscape:pagecheckerboard="0"
     inkscape:document-units="mm"
     showgrid="false"
     units="px"
     fit-margin-top="0"
     fit-margin-left="0"
     fit-margin-right="0"
     fit-margin-bottom="0"
     inkscape:zoom="0.5"
     inkscape:cx="640"
     inkscape:cy="375"
     inkscape:window-width="1920"
     inkscape:window-height="1017"
     inkscape:window-x="-8"
     inkscape:window-y="-8"
     inkscape:window-maximized="1"
     inkscape:current-layer="layer1"
     inkscape:snap-bbox="true"
     inkscape:snap-global="true"
     inkscape:bbox-paths="true"
     inkscape:object-paths="false"
     inkscape:snap-intersection-paths="false"
     inkscape:object-nodes="false"
     inkscape:snap-smooth-nodes="false"
     inkscape:snap-midpoints="false"
     inkscape:snap-object-midpoints="false"
     inkscape:snap-page="true"
     inkscape:bbox-nodes="true"
     inkscape:snap-bbox-edge-midpoints="true"
     inkscape:snap-bbox-midpoints="true" />
  <defs
     id="defs1128" />
  <g
     inkscape:label="Camada 1"
     inkscape:groupmode="layer"
     id="layer1"
     transform="translate(-722.81113,-105.92288)">
    <path
       d="m 898.5276,302.65755 c -4.46785,-3.40292 -16.99052,-21.2353 -21.2058,-30.19707 l -4.1978,-8.92465 -15.94844,0.49747 c -25.58071,0.79764 -25.65527,0.82917 -28.86941,12.22847 -4.44349,15.75926 -11.53981,22.83685 -23.05598,22.99489 -5.85163,0.0807 -7.38707,-0.53413 -10.00684,-4.00597 -4.11472,-5.45259 -2.18424,-11.34398 4.87536,-14.87866 2.81668,-1.41022 5.56048,-3.42486 6.09732,-4.47693 0.53695,-1.05207 3.50743,-11.31442 6.60127,-22.80521 7.64573,-28.39716 18.49263,-63.0376 21.72882,-69.39245 4.09352,-8.03852 9.70239,-12.53542 15.6349,-12.53542 8.04742,0 11.59908,4.69927 19.43268,25.71179 20.43293,54.80811 30.73673,76.67794 40.70607,86.39826 7.6966,7.5045 8.885,14.0831 3.35323,18.5624 -3.84466,3.11324 -11.58645,3.53406 -15.14538,0.82331 z M 858.96882,228.8396 c -2.93456,-8.00253 -6.16444,-16.85578 -7.17748,-19.67386 -1.01304,-2.81809 -2.22315,-4.49696 -2.68915,-3.73079 -0.46588,0.76617 -3.0283,8.78004 -5.69404,17.80852 -2.66574,9.02844 -5.15827,17.25483 -5.53893,18.28079 -0.52173,1.40622 2.64628,1.86539 12.87151,1.86539 h 13.56363 z m -33.95584,-70.62005 c -4.58618,-3.60738 -5.41547,-11.72582 -1.52748,-14.95265 1.32252,-1.09742 6.39743,-6.8821 11.27764,-12.85449 4.88021,-5.97238 11.84381,-12.59971 15.47471,-14.7276 5.85772,-3.43276 7.17968,-3.67811 11.73095,-2.17595 6.01322,1.98446 9.08986,6.15265 11.44482,15.50483 0.93871,3.72808 3.31448,8.95742 5.27943,11.62074 6.85215,9.2876 3.36186,19.18576 -6.76535,19.18576 -5.48123,0 -11.79936,-5.62822 -15.00448,-13.36617 -1.0347,-2.49783 -2.41413,-4.54157 -3.06552,-4.54157 -0.6514,0 -3.98618,3.5256 -7.41071,7.83468 -9.49437,11.94669 -14.50115,13.92579 -21.43401,8.47242 z"
       style="fill:#000000;stroke-width:1.49231"
       id="path2415" />
  </g>
</svg>
