<?xml version="1.0" encoding="UTF-8" standalone="no"?>
<!-- Created with Inkscape (http://www.inkscape.org/) -->

<svg
   width="1000"
   height="1000"
   viewBox="0 0 264.58333 264.58333"
   version="1.1"
   id="svg1131"
   sodipodi:docname="âl.svg"
   inkscape:version="1.1.1 (3bf5ae0d25, 2021-09-20)"
   xmlns:inkscape="http://www.inkscape.org/namespaces/inkscape"
   xmlns:sodipodi="http://sodipodi.sourceforge.net/DTD/sodipodi-0.dtd"
   xmlns="http://www.w3.org/2000/svg"
   xmlns:svg="http://www.w3.org/2000/svg">
  <sodipodi:namedview
     id="namedview1133"
     pagecolor="#ffffff"
     bordercolor="#666666"
     borderopacity="1.0"
     inkscape:pageshadow="2"
     inkscape:pageopacity="0.0"
     inkscape:pagecheckerboard="0"
     inkscape:document-units="mm"
     showgrid="false"
     units="px"
     fit-margin-top="0"
     fit-margin-left="0"
     fit-margin-right="0"
     fit-margin-bottom="0"
     inkscape:zoom="0.35355339"
     inkscape:cx="741.04791"
     inkscape:cy="383.25188"
     inkscape:window-width="1920"
     inkscape:window-height="1017"
     inkscape:window-x="-8"
     inkscape:window-y="-8"
     inkscape:window-maximized="1"
     inkscape:current-layer="layer1"
     inkscape:snap-bbox="true"
     inkscape:snap-global="true"
     inkscape:bbox-paths="true"
     inkscape:object-paths="false"
     inkscape:snap-intersection-paths="false"
     inkscape:object-nodes="false"
     inkscape:snap-smooth-nodes="false"
     inkscape:snap-midpoints="false"
     inkscape:snap-object-midpoints="false"
     inkscape:snap-page="true"
     inkscape:bbox-nodes="true"
     inkscape:snap-bbox-edge-midpoints="true"
     inkscape:snap-bbox-midpoints="true" />
  <defs
     id="defs1128" />
  <g
     inkscape:label="Camada 1"
     inkscape:groupmode="layer"
     id="layer1"
     transform="translate(-722.81113,-105.92288)">
    <path
       d="m 844.99435,304.10799 c -8.0933,-1.56623 -17.1142,-11.95901 -20.731,-23.88291 -4.3144,-14.22261 -2.0453,-26.97691 7.2113,-40.53767 8.0274,-11.76031 10.9309,-13.74065 20.0679,-13.68659 10.0129,0.0593 16.7844,4.6311 22.0194,14.86779 3.4962,6.83628 3.8077,8.65774 3.8847,22.73343 0.051,8.41599 0.6272,16.35833 1.2904,17.64971 0.6632,1.29139 3.2986,3.22259 5.8571,4.29162 4.1528,1.73503 7.3156,6.17296 7.3156,10.2641 0,0.7228 -1.4803,2.79469 -3.29,4.6043 -4.3716,4.37186 -10.8904,4.3291 -17.438,-0.1145 l -5.0171,-3.40462 -4.3291,3.30182 c -4.5403,3.46313 -11.1867,5.00768 -16.8412,3.91352 z m 9.325,-26.54866 c 2.6228,-5.2462 3.3042,-8.70142 3.3508,-16.98604 0.051,-9.08645 -0.3293,-10.78678 -3.0018,-13.46059 -2.6182,-2.61879 -3.2464,-2.77027 -4.3514,-1.04978 -2.3102,3.59617 -3.9668,11.24366 -3.9744,18.34384 0,3.82253 -0.6065,8.52516 -1.3385,10.45029 -1.0178,2.67765 -0.8167,4.28492 0.8567,6.83901 2.9303,4.47157 4.551,3.67885 8.4586,-4.13673 z m -33.4007,-78.66467 c -3.9699,-4.26136 -3.4284,-9.15317 1.6232,-14.66651 2.3963,-2.61484 6.6869,-7.61162 9.5346,-11.10398 7.0041,-8.589 14.9936,-14.19003 20.2407,-14.19003 5.6063,0 11.2511,5.91458 12.9726,13.59186 0.7204,3.21453 3.1102,8.65217 5.3099,12.08374 4.5769,7.13965 4.2881,11.9927 -0.917,15.40334 -6.3145,4.13745 -14.9266,-0.96679 -19.2527,-11.41109 -1.5913,-3.84163 -4.095,-5.73914 -4.095,-3.10343 0,0.60283 -3.1897,4.52365 -7.0887,8.71287 -8.0685,8.6695 -13.3551,10.02046 -18.3276,4.68323 z"
       style="fill:#000000;stroke-width:1.34044"
       id="path1101" />
  </g>
</svg>
