<?xml version="1.0" encoding="UTF-8" standalone="no"?>
<!-- Created with Inkscape (http://www.inkscape.org/) -->

<svg
   width="1000"
   height="1000"
   viewBox="0 0 264.58333 264.58333"
   version="1.1"
   id="svg1131"
   sodipodi:docname="Ã.svg"
   inkscape:version="1.1.1 (3bf5ae0d25, 2021-09-20)"
   xmlns:inkscape="http://www.inkscape.org/namespaces/inkscape"
   xmlns:sodipodi="http://sodipodi.sourceforge.net/DTD/sodipodi-0.dtd"
   xmlns="http://www.w3.org/2000/svg"
   xmlns:svg="http://www.w3.org/2000/svg">
  <sodipodi:namedview
     id="namedview1133"
     pagecolor="#ffffff"
     bordercolor="#666666"
     borderopacity="1.0"
     inkscape:pageshadow="2"
     inkscape:pageopacity="0.0"
     inkscape:pagecheckerboard="0"
     inkscape:document-units="mm"
     showgrid="false"
     units="px"
     fit-margin-top="0"
     fit-margin-left="0"
     fit-margin-right="0"
     fit-margin-bottom="0"
     inkscape:zoom="0.5"
     inkscape:cx="640"
     inkscape:cy="375"
     inkscape:window-width="1920"
     inkscape:window-height="1017"
     inkscape:window-x="-8"
     inkscape:window-y="-8"
     inkscape:window-maximized="1"
     inkscape:current-layer="layer1"
     inkscape:snap-bbox="true"
     inkscape:snap-global="true"
     inkscape:bbox-paths="true"
     inkscape:object-paths="false"
     inkscape:snap-intersection-paths="false"
     inkscape:object-nodes="false"
     inkscape:snap-smooth-nodes="false"
     inkscape:snap-midpoints="false"
     inkscape:snap-object-midpoints="false"
     inkscape:snap-page="true"
     inkscape:bbox-nodes="true"
     inkscape:snap-bbox-edge-midpoints="true"
     inkscape:snap-bbox-midpoints="true" />
  <defs
     id="defs1128" />
  <g
     inkscape:label="Camada 1"
     inkscape:groupmode="layer"
     id="layer1"
     transform="translate(-722.81113,-105.92288)">
    <path
       d="m 901.2618,303.61551 c -5.9929,-2.19075 -17.0913,-16.93717 -24.4896,-32.5393 -3.6272,-7.64937 -3.6472,-7.66376 -10.6798,-7.65738 -3.8752,0 -13.18563,0.34654 -20.6899,0.76183 -11.01797,0.61011 -13.78154,1.22867 -14.35817,3.21368 -0.39301,1.35206 -1.75806,6.15036 -3.03403,10.66292 -5.33883,18.88086 -27.45437,29.12995 -33.6265,15.58359 -2.34034,-5.1366 0.71995,-12.04386 6.17924,-13.94714 5.45124,-1.90025 6.07098,-3.22863 12.53798,-26.87532 18.47549,-67.55564 24.82157,-81.46779 37.16147,-81.46779 8.51821,0 11.55791,4.81918 24.29081,38.51202 6.3115,16.70091 13.9295,36.03099 16.9291,42.95577 6.1851,14.27907 16.7106,30.75527 20.3945,31.92471 1.3576,0.43107 3.1648,2.78115 4.016,5.22299 2.0668,5.92894 -0.3695,11.11885 -6.1689,13.14047 -4.8516,1.69127 -5.1746,1.71064 -8.4622,0.50889 z m -41.7153,-73.50872 c -2.4856,-6.65354 -5.52863,-14.98295 -6.76217,-18.5098 -1.23354,-3.52663 -2.78065,-5.85958 -3.43801,-5.18431 -0.65736,0.67544 -3.50217,9.02294 -6.32172,18.55006 l -5.12648,17.322 3.90872,0.45291 c 2.14977,0.24912 8.03751,0.23065 13.08387,-0.0392 l 9.17519,-0.49266 -4.5194,-12.09755 z m -44.52552,-75.67618 c -4.56367,-2.27472 -7.41436,-8.62214 -6.14459,-13.68144 1.40636,-5.60317 13.38433,-17.22716 22.52461,-21.85885 13.99036,-7.08943 25.18019,-4.36443 30.8119,7.50348 1.3666,2.87985 3.4047,5.58901 4.529,6.02048 4.1641,1.59782 15.2276,-4.24048 21.5475,-11.37083 7.1138,-8.02604 11.3161,-9.91935 16.2492,-7.32081 4.5402,2.39156 5.561,4.17408 5.5879,9.75744 0.039,8.33433 -15.0592,23.26589 -28.2241,27.91074 -14.5261,5.12507 -27.87311,1.55141 -34.70563,-9.29239 -1.6294,-2.58594 -3.70578,-4.72736 -4.61428,-4.75872 -2.74902,-0.0946 -9.43979,5.89872 -13.15559,11.78495 -3.85844,6.11217 -8.99365,8.00358 -14.40592,5.30595 z"
       style="fill:#000000;stroke-width:1.48123"
       id="path2427" />
  </g>
</svg>
