<?xml version="1.0" encoding="UTF-8" standalone="no"?>
<!-- Created with Inkscape (http://www.inkscape.org/) -->

<svg
   width="1000"
   height="1000"
   viewBox="0 0 264.58333 264.58333"
   version="1.1"
   id="svg1131"
   sodipodi:docname="çl.svg"
   inkscape:version="1.1.1 (3bf5ae0d25, 2021-09-20)"
   xmlns:inkscape="http://www.inkscape.org/namespaces/inkscape"
   xmlns:sodipodi="http://sodipodi.sourceforge.net/DTD/sodipodi-0.dtd"
   xmlns="http://www.w3.org/2000/svg"
   xmlns:svg="http://www.w3.org/2000/svg">
  <sodipodi:namedview
     id="namedview1133"
     pagecolor="#ffffff"
     bordercolor="#666666"
     borderopacity="1.0"
     inkscape:pageshadow="2"
     inkscape:pageopacity="0.0"
     inkscape:pagecheckerboard="0"
     inkscape:document-units="mm"
     showgrid="false"
     units="px"
     fit-margin-top="0"
     fit-margin-left="0"
     fit-margin-right="0"
     fit-margin-bottom="0"
     inkscape:zoom="0.35355339"
     inkscape:cx="741.04791"
     inkscape:cy="383.25188"
     inkscape:window-width="1920"
     inkscape:window-height="1017"
     inkscape:window-x="-8"
     inkscape:window-y="-8"
     inkscape:window-maximized="1"
     inkscape:current-layer="layer1"
     inkscape:snap-bbox="true"
     inkscape:snap-global="true"
     inkscape:bbox-paths="true"
     inkscape:object-paths="false"
     inkscape:snap-intersection-paths="false"
     inkscape:object-nodes="false"
     inkscape:snap-smooth-nodes="false"
     inkscape:snap-midpoints="false"
     inkscape:snap-object-midpoints="false"
     inkscape:snap-page="true"
     inkscape:bbox-nodes="true"
     inkscape:snap-bbox-edge-midpoints="true"
     inkscape:snap-bbox-midpoints="true" />
  <defs
     id="defs1128" />
  <g
     inkscape:label="Camada 1"
     inkscape:groupmode="layer"
     id="layer1"
     transform="translate(-722.81113,-105.92288)">
    <path
       d="m 840.70884,356.08424 c -8.03791,-3.04783 -13.633,-7.60146 -16.42426,-13.36676 -4.56419,-9.42916 -3.228,-17.66278 3.76044,-23.16991 5.45974,-4.30233 18.59028,-0.1469 20.71774,6.5566 l 0.91454,2.88173 2.46137,-3.03937 c 3.13172,-3.86792 2.63726,-4.76181 -9.98137,-18.049 -12.14682,-12.79011 -16.45782,-20.8337 -17.434,-32.52715 -1.99254,-23.87507 14.65082,-50.38598 31.63209,-50.38598 11.27237,0 18.518,6.56538 21.02554,19.05143 1.32019,6.57236 1.17328,7.89334 -1.48863,13.39209 -1.70282,3.5172 -4.55318,6.92789 -6.73182,8.05428 -4.56364,2.36002 -12.06855,2.55044 -14.25718,0.36201 -1.23791,-1.23814 -1.59191,-0.0592 -1.59191,5.30641 0,7.0346 1.07954,8.40345 3.92345,4.97636 0.87746,-1.05714 3.67218,-2.60746 6.21028,-3.44519 13.2599,-4.37612 23.21409,12.00483 14.48481,23.83677 l -3.241,4.39232 3.90383,6.91721 c 8.51372,15.0854 2.71208,34.20944 -13.54319,44.64028 -7.08973,4.54952 -17.71581,6.12812 -24.34073,3.61607 z"
       style="fill:#000000;stroke-width:1.32661"
       id="path1201" />
  </g>
</svg>
