<?xml version="1.0" encoding="UTF-8" standalone="no"?>
<!-- Created with Inkscape (http://www.inkscape.org/) -->

<svg
   width="1000"
   height="1000"
   viewBox="0 0 264.58333 264.58333"
   version="1.1"
   id="svg1131"
   sodipodi:docname="É.svg"
   inkscape:version="1.1.1 (3bf5ae0d25, 2021-09-20)"
   xmlns:inkscape="http://www.inkscape.org/namespaces/inkscape"
   xmlns:sodipodi="http://sodipodi.sourceforge.net/DTD/sodipodi-0.dtd"
   xmlns="http://www.w3.org/2000/svg"
   xmlns:svg="http://www.w3.org/2000/svg">
  <sodipodi:namedview
     id="namedview1133"
     pagecolor="#ffffff"
     bordercolor="#666666"
     borderopacity="1.0"
     inkscape:pageshadow="2"
     inkscape:pageopacity="0.0"
     inkscape:pagecheckerboard="0"
     inkscape:document-units="mm"
     showgrid="false"
     units="px"
     fit-margin-top="0"
     fit-margin-left="0"
     fit-margin-right="0"
     fit-margin-bottom="0"
     inkscape:zoom="0.5"
     inkscape:cx="640"
     inkscape:cy="375"
     inkscape:window-width="1920"
     inkscape:window-height="1017"
     inkscape:window-x="-8"
     inkscape:window-y="-8"
     inkscape:window-maximized="1"
     inkscape:current-layer="layer1"
     inkscape:snap-bbox="true"
     inkscape:snap-global="true"
     inkscape:bbox-paths="true"
     inkscape:object-paths="false"
     inkscape:snap-intersection-paths="false"
     inkscape:object-nodes="false"
     inkscape:snap-smooth-nodes="false"
     inkscape:snap-midpoints="false"
     inkscape:snap-object-midpoints="false"
     inkscape:snap-page="true"
     inkscape:bbox-nodes="true"
     inkscape:snap-bbox-edge-midpoints="true"
     inkscape:snap-bbox-midpoints="true" />
  <defs
     id="defs1128" />
  <g
     inkscape:label="Camada 1"
     inkscape:groupmode="layer"
     id="layer1"
     transform="translate(-722.81113,-105.92288)">
    <path
       d="m 825.9781,300.27796 c -5.2636,-4.91669 -8.2528,-10.50316 -10.95,-20.46489 -3.0258,-11.17729 -1.1092,-40.92063 3.6589,-56.77803 l 3.7967,-12.62653 -3.2201,-5.5951 c -4.0829,-7.09492 -3.1292,-11.02598 4.7544,-19.59184 5.6665,-6.15666 6.4459,-6.52598 11.7597,-5.57316 9.9146,1.77804 14.9775,1.17037 24.8263,-2.9799 20.2468,-8.53186 28.1373,-8.36631 33.4946,0.70259 3.5703,6.04397 3.336,15.93209 -0.4686,19.73584 -3.9555,3.95535 -11.17,3.89083 -14.9192,-0.13315 l -2.9413,-3.15705 -7.183,3.17734 c -3.9504,1.74747 -9.7831,3.59311 -12.9609,4.10129 -3.1783,0.50802 -6.7361,1.68976 -7.9059,2.62578 -1.7983,1.43815 -10.6419,31.07811 -9.5876,32.13237 0.1943,0.19657 4.1818,-0.70682 8.8556,-2.00788 14.8467,-4.13227 25.4749,0.31258 25.4749,10.65328 0,6.77822 -3.9052,10.06201 -11.966,10.06201 -3.5401,0 -10.8717,1.18174 -16.2918,2.62606 l -9.8557,2.62612 0.7126,7.5795 c 0.3886,4.16873 1.4875,9.50662 2.4349,11.86194 l 1.7235,4.28238 10.1957,-5.61807 c 5.6075,-3.08979 12.0951,-7.38281 14.4169,-9.53971 8.6316,-8.01951 22.2377,-3.5818 22.2377,7.25291 0,5.44647 -3.5441,8.38026 -23.5675,19.50721 -14.3506,7.97476 -17.8638,9.3157 -24.4091,9.3157 -6.2619,0 -8.4545,-0.75584 -12.1169,-4.17672 z m 23.8063,-143.99342 c -5.0002,-5.00046 -3.7121,-10.48717 6.4258,-27.36128 9.3825,-15.61746 9.4945,-15.7322 15.7335,-16.18701 5.1242,-0.37373 6.7288,0.17714 8.694,2.9823 1.3251,1.89221 2.4097,5.00817 2.4097,6.92456 0,3.35739 -13.9466,28.59411 -18.8004,34.01938 -3.1795,3.55431 -10.7277,3.35699 -14.4626,-0.37772 z"
       style="fill:#000000;stroke-width:1.51194"
       id="path2451" />
  </g>
</svg>
