<?xml version="1.0" encoding="UTF-8" standalone="no"?>
<!-- Created with Inkscape (http://www.inkscape.org/) -->

<svg
   width="1000"
   height="1000"
   viewBox="0 0 264.58333 264.58333"
   version="1.1"
   id="svg1131"
   sodipodi:docname="él.svg"
   inkscape:version="1.1.1 (3bf5ae0d25, 2021-09-20)"
   xmlns:inkscape="http://www.inkscape.org/namespaces/inkscape"
   xmlns:sodipodi="http://sodipodi.sourceforge.net/DTD/sodipodi-0.dtd"
   xmlns="http://www.w3.org/2000/svg"
   xmlns:svg="http://www.w3.org/2000/svg">
  <sodipodi:namedview
     id="namedview1133"
     pagecolor="#ffffff"
     bordercolor="#666666"
     borderopacity="1.0"
     inkscape:pageshadow="2"
     inkscape:pageopacity="0.0"
     inkscape:pagecheckerboard="0"
     inkscape:document-units="mm"
     showgrid="false"
     units="px"
     fit-margin-top="0"
     fit-margin-left="0"
     fit-margin-right="0"
     fit-margin-bottom="0"
     inkscape:zoom="0.35355339"
     inkscape:cx="741.04791"
     inkscape:cy="383.25188"
     inkscape:window-width="1920"
     inkscape:window-height="1017"
     inkscape:window-x="-8"
     inkscape:window-y="-8"
     inkscape:window-maximized="1"
     inkscape:current-layer="layer1"
     inkscape:snap-bbox="true"
     inkscape:snap-global="true"
     inkscape:bbox-paths="true"
     inkscape:object-paths="false"
     inkscape:snap-intersection-paths="false"
     inkscape:object-nodes="false"
     inkscape:snap-smooth-nodes="false"
     inkscape:snap-midpoints="false"
     inkscape:snap-object-midpoints="false"
     inkscape:snap-page="true"
     inkscape:bbox-nodes="true"
     inkscape:snap-bbox-edge-midpoints="true"
     inkscape:snap-bbox-midpoints="true" />
  <defs
     id="defs1128" />
  <g
     inkscape:label="Camada 1"
     inkscape:groupmode="layer"
     id="layer1"
     transform="translate(-722.81113,-105.92288)">
    <path
       d="m 844.21057,304.07363 c -5.2077,-1.23797 -13.2979,-7.98566 -17.2553,-14.39157 -3.7001,-5.99038 -4.0182,-7.46293 -4.0182,-18.6014 0,-10.93765 0.407,-12.92063 4.2649,-20.70739 7.4475,-15.03817 17.2111,-23.90185 26.329,-23.90185 5.6896,0 11.2917,3.67343 12.1506,7.96692 0.4271,2.12498 1.901,4.88436 3.2795,6.13204 1.9854,1.79673 2.5066,4.13966 2.5066,11.26756 0,7.76842 -0.4774,9.56515 -3.4826,13.13772 -5.4745,6.50642 -10.4319,8.46572 -19.3684,7.6554 -7.0831,-0.64233 -7.7298,-0.4779 -7.7298,1.96513 0,1.46633 2.0342,4.70039 4.5207,7.18674 5.9384,5.93857 12.1803,6.08455 22.7358,0.53183 9.3521,-4.91924 12.9532,-5.02502 16.5236,-0.48544 3.4846,4.42983 3.4765,7.18845 -0.05,11.65189 -5.0841,6.46361 -15.1869,10.52061 -27.1254,10.89289 -5.8504,0.18241 -11.8335,0.0452 -13.2964,-0.30052 z m 6.6896,-52.27298 c -0.4874,-0.79183 -1.5111,-1.05601 -2.2699,-0.58705 -0.893,0.55213 -0.7573,1.23732 0.387,1.94383 2.1337,1.31868 3.1051,0.61916 1.8839,-1.35678 z m 3.6851,-52.18313 c -3.7916,-1.83191 -5.6077,-7.27966 -4.1233,-12.3694 2.2031,-7.55459 14.9472,-26.50158 18.7172,-27.82735 4.7142,-1.65793 9.7073,1.0437 11.5154,6.23049 1.2362,3.54563 0.6467,5.25839 -5.768,16.76184 -10.4129,18.67276 -12.9175,20.79111 -20.3413,17.20442 z"
       style="fill:#000000;stroke-width:1.3296"
       id="path1213" />
  </g>
</svg>
