<?xml version="1.0" encoding="UTF-8" standalone="no"?>
<!-- Created with Inkscape (http://www.inkscape.org/) -->

<svg
   width="1000"
   height="1000"
   viewBox="0 0 264.58333 264.58333"
   version="1.1"
   id="svg1131"
   sodipodi:docname="êl.svg"
   inkscape:version="1.1.1 (3bf5ae0d25, 2021-09-20)"
   xmlns:inkscape="http://www.inkscape.org/namespaces/inkscape"
   xmlns:sodipodi="http://sodipodi.sourceforge.net/DTD/sodipodi-0.dtd"
   xmlns="http://www.w3.org/2000/svg"
   xmlns:svg="http://www.w3.org/2000/svg">
  <sodipodi:namedview
     id="namedview1133"
     pagecolor="#ffffff"
     bordercolor="#666666"
     borderopacity="1.0"
     inkscape:pageshadow="2"
     inkscape:pageopacity="0.0"
     inkscape:pagecheckerboard="0"
     inkscape:document-units="mm"
     showgrid="false"
     units="px"
     fit-margin-top="0"
     fit-margin-left="0"
     fit-margin-right="0"
     fit-margin-bottom="0"
     inkscape:zoom="0.35355339"
     inkscape:cx="741.04791"
     inkscape:cy="383.25188"
     inkscape:window-width="1920"
     inkscape:window-height="1017"
     inkscape:window-x="-8"
     inkscape:window-y="-8"
     inkscape:window-maximized="1"
     inkscape:current-layer="layer1"
     inkscape:snap-bbox="true"
     inkscape:snap-global="true"
     inkscape:bbox-paths="true"
     inkscape:object-paths="false"
     inkscape:snap-intersection-paths="false"
     inkscape:object-nodes="false"
     inkscape:snap-smooth-nodes="false"
     inkscape:snap-midpoints="false"
     inkscape:snap-object-midpoints="false"
     inkscape:snap-page="true"
     inkscape:bbox-nodes="true"
     inkscape:snap-bbox-edge-midpoints="true"
     inkscape:snap-bbox-midpoints="true" />
  <defs
     id="defs1128" />
  <g
     inkscape:label="Camada 1"
     inkscape:groupmode="layer"
     id="layer1"
     transform="translate(-722.81113,-105.92288)">
    <path
       d="m 843.49518,302.93865 c -7.1746,-2.06512 -16.8731,-12.76274 -19.2959,-21.28449 -6.5386,-22.99809 11.7044,-55.98078 30.9635,-55.98078 4.7195,0 12.1753,5.79741 12.1753,9.46727 0,1.40378 1.2018,3.75424 2.6706,5.22335 3.7166,3.71629 3.7206,16.29191 0,22.38198 -4.4716,7.3342 -10.0199,9.93619 -19.7058,9.24119 -9.2381,-0.66285 -9.9563,0.12063 -6.4069,6.9848 4.0048,7.74342 16.2694,8.79281 26.1723,2.23932 9.4804,-6.27386 17.2951,-3.44241 17.2951,6.26658 0,3.94051 -0.8506,5.48351 -4.5954,8.34009 -10.1158,7.7157 -26.7416,10.72967 -39.2803,7.12069 z m 8.2993,-51.22287 c -0.8374,-2.18263 -3.1537,-2.75477 -3.1537,-0.779 0,1.01361 0.9358,1.70372 3.6307,2.67684 0.1615,0.058 -0.055,-0.796 -0.4745,-1.89784 z m -24.4248,-53.60044 c -3.819,-4.85447 -3.4823,-7.67527 1.6097,-13.50504 2.4082,-2.75659 6.7062,-7.92906 9.5515,-11.49443 10.7872,-13.51523 21.417,-17.72255 28.0414,-11.09834 1.7157,1.71578 4.1461,6.65106 5.401,10.96736 1.2548,4.3163 3.7301,9.56933 5.5003,11.67347 1.7707,2.10414 3.2194,5.30936 3.2194,7.12271 0,3.83778 -5.4711,9.85542 -8.954,9.84815 -4.5958,-0.0101 -10.717,-5.08197 -13.788,-11.42593 l -3.0739,-6.34987 -3.9079,4.55 c -9.9629,11.60068 -11.9885,13.2308 -16.442,13.2308 -3.1517,0 -5.1703,-0.99251 -7.1575,-3.51888 z"
       style="fill:#000000;stroke-width:1.33551"
       id="path1225" />
  </g>
</svg>
