<?xml version="1.0" encoding="UTF-8" standalone="no"?>
<!-- Created with Inkscape (http://www.inkscape.org/) -->

<svg
   width="1000"
   height="1000"
   viewBox="0 0 264.58333 264.58333"
   version="1.1"
   id="svg1131"
   sodipodi:docname="Ã.svg"
   inkscape:version="1.1.1 (3bf5ae0d25, 2021-09-20)"
   xmlns:inkscape="http://www.inkscape.org/namespaces/inkscape"
   xmlns:sodipodi="http://sodipodi.sourceforge.net/DTD/sodipodi-0.dtd"
   xmlns="http://www.w3.org/2000/svg"
   xmlns:svg="http://www.w3.org/2000/svg">
  <sodipodi:namedview
     id="namedview1133"
     pagecolor="#ffffff"
     bordercolor="#666666"
     borderopacity="1.0"
     inkscape:pageshadow="2"
     inkscape:pageopacity="0.0"
     inkscape:pagecheckerboard="0"
     inkscape:document-units="mm"
     showgrid="false"
     units="px"
     fit-margin-top="0"
     fit-margin-left="0"
     fit-margin-right="0"
     fit-margin-bottom="0"
     inkscape:zoom="0.5"
     inkscape:cx="640"
     inkscape:cy="375"
     inkscape:window-width="1920"
     inkscape:window-height="1017"
     inkscape:window-x="-8"
     inkscape:window-y="-8"
     inkscape:window-maximized="1"
     inkscape:current-layer="layer1"
     inkscape:snap-bbox="true"
     inkscape:snap-global="true"
     inkscape:bbox-paths="true"
     inkscape:object-paths="false"
     inkscape:snap-intersection-paths="false"
     inkscape:object-nodes="false"
     inkscape:snap-smooth-nodes="false"
     inkscape:snap-midpoints="false"
     inkscape:snap-object-midpoints="false"
     inkscape:snap-page="true"
     inkscape:bbox-nodes="true"
     inkscape:snap-bbox-edge-midpoints="true"
     inkscape:snap-bbox-midpoints="true" />
  <defs
     id="defs1128" />
  <g
     inkscape:label="Camada 1"
     inkscape:groupmode="layer"
     id="layer1"
     transform="translate(-722.81113,-105.92288)">
    <path
       d="m 865.80864,303.6292 c -19.3758,-2.99928 -38.1852,-5.00465 -44.2169,-4.71402 -6.0954,0.2937 -7.7962,-0.23508 -10.1651,-3.16088 -3.6298,-4.48271 -3.619,-9.42003 0.057,-13.93137 2.6348,-3.25622 4.0082,-3.55533 16.3238,-3.55533 h 13.4471 l 0.1821,-30.11963 c 0.1025,-16.56575 0.6278,-35.71055 1.1731,-42.5439 l 0.9915,-12.42438 h -13.4989 c -10.9893,0 -13.9189,-0.49007 -15.762,-2.63546 -3.5358,-4.11706 -4.2888,-7.62868 -2.485,-11.58745 3.0189,-6.62662 7.8958,-7.39331 38.6121,-6.07046 15.4922,0.66715 31.0316,1.07514 34.531,0.9066 11.9353,-0.57516 19.6143,7.10975 15.2639,15.2762 -3.5466,6.65855 -5.6452,7.28687 -21.0907,6.31322 l -14.5229,-0.91531 -1.0979,20.49776 c -1.2511,23.35982 -0.4042,64.88095 1.3575,66.64321 0.6477,0.64774 7.1484,1.17754 14.446,1.17754 10.9341,0 13.8268,0.50487 16.4405,2.86889 4.3213,3.90925 4.089,10.65676 -0.5237,15.27141 -3.2984,3.29822 -4.8802,3.67429 -14.6834,3.49129 -6.0431,-0.1127 -12.6809,-0.4673 -14.7522,-0.78793 z m -18.0803,-147.6983 c -2.3775,-3.02245 -2.999,-5.32573 -2.3371,-8.65936 1.4082,-7.09586 17.3819,-32.46805 21.4038,-33.99706 6.5264,-2.48138 14.0738,2.55867 14.0738,9.39868 0,4.05035 -13.2336,28.60007 -18.7263,34.73997 -3.6417,4.07113 -10.6091,3.35469 -14.4142,-1.48223 z"
       style="fill:#000000;stroke-width:1.50598"
       id="path2475" />
  </g>
</svg>
