<?xml version="1.0" encoding="UTF-8" standalone="no"?>
<!-- Created with Inkscape (http://www.inkscape.org/) -->

<svg
   width="1000"
   height="1000"
   viewBox="0 0 264.58333 264.58333"
   version="1.1"
   id="svg1131"
   sodipodi:docname="íl.svg"
   inkscape:version="1.1.1 (3bf5ae0d25, 2021-09-20)"
   xmlns:inkscape="http://www.inkscape.org/namespaces/inkscape"
   xmlns:sodipodi="http://sodipodi.sourceforge.net/DTD/sodipodi-0.dtd"
   xmlns="http://www.w3.org/2000/svg"
   xmlns:svg="http://www.w3.org/2000/svg">
  <sodipodi:namedview
     id="namedview1133"
     pagecolor="#ffffff"
     bordercolor="#666666"
     borderopacity="1.0"
     inkscape:pageshadow="2"
     inkscape:pageopacity="0.0"
     inkscape:pagecheckerboard="0"
     inkscape:document-units="mm"
     showgrid="false"
     units="px"
     fit-margin-top="0"
     fit-margin-left="0"
     fit-margin-right="0"
     fit-margin-bottom="0"
     inkscape:zoom="0.35355339"
     inkscape:cx="741.04791"
     inkscape:cy="383.25188"
     inkscape:window-width="1920"
     inkscape:window-height="1017"
     inkscape:window-x="-8"
     inkscape:window-y="-8"
     inkscape:window-maximized="1"
     inkscape:current-layer="layer1"
     inkscape:snap-bbox="true"
     inkscape:snap-global="true"
     inkscape:bbox-paths="true"
     inkscape:object-paths="false"
     inkscape:snap-intersection-paths="false"
     inkscape:object-nodes="false"
     inkscape:snap-smooth-nodes="false"
     inkscape:snap-midpoints="false"
     inkscape:snap-object-midpoints="false"
     inkscape:snap-page="true"
     inkscape:bbox-nodes="true"
     inkscape:snap-bbox-edge-midpoints="true"
     inkscape:snap-bbox-midpoints="true" />
  <defs
     id="defs1128" />
  <g
     inkscape:label="Camada 1"
     inkscape:groupmode="layer"
     id="layer1"
     transform="translate(-722.81113,-105.92288)">
    <path
       d="m 842.33223,301.55299 c -8.98931,-7.07088 -10.569,-19.50394 -5.99898,-47.21477 1.45467,-8.82055 2.64502,-18.85029 2.64517,-22.28844 3.1e-4,-5.20318 0.60675,-6.72806 3.61773,-9.09654 4.23128,-3.3284 9.14725,-2.74251 12.75406,1.52009 3.15575,3.72935 3.03629,15.11279 -0.35459,33.76663 -1.45892,8.02621 -2.64512,17.04718 -2.63593,20.0467 l 0.0152,5.45341 5.27546,-5.67991 c 6.17218,-6.64522 10.54303,-7.32333 15.46688,-2.39949 5.45371,5.45382 4.35711,9.15014 -5.79153,19.52254 -8.60992,8.79958 -9.38345,9.27176 -15.18892,9.27176 -4.25432,0 -7.2404,-0.88369 -9.80622,-2.90198 z m 2.29831,-100.89874 c -2.80626,-1.12914 -5.86724,-8.33796 -4.89768,-11.53447 0.49047,-1.61707 4.21704,-8.55122 8.28124,-15.4091 9.16998,-15.47324 14.43594,-18.21055 21.0255,-10.92919 3.65828,4.04253 2.8646,7.82542 -4.35403,20.75183 -9.59039,17.17361 -12.9006,19.99952 -20.05503,17.12093 z"
       style="fill:#000000;stroke-width:1.33644"
       id="path1237" />
  </g>
</svg>
