<?xml version="1.0" encoding="UTF-8" standalone="no"?>
<!-- Created with Inkscape (http://www.inkscape.org/) -->

<svg
   width="1000"
   height="1000"
   viewBox="0 0 264.58333 264.58333"
   version="1.1"
   id="svg1131"
   sodipodi:docname="Õ.svg"
   inkscape:version="1.1.1 (3bf5ae0d25, 2021-09-20)"
   xmlns:inkscape="http://www.inkscape.org/namespaces/inkscape"
   xmlns:sodipodi="http://sodipodi.sourceforge.net/DTD/sodipodi-0.dtd"
   xmlns="http://www.w3.org/2000/svg"
   xmlns:svg="http://www.w3.org/2000/svg">
  <sodipodi:namedview
     id="namedview1133"
     pagecolor="#ffffff"
     bordercolor="#666666"
     borderopacity="1.0"
     inkscape:pageshadow="2"
     inkscape:pageopacity="0.0"
     inkscape:pagecheckerboard="0"
     inkscape:document-units="mm"
     showgrid="false"
     units="px"
     fit-margin-top="0"
     fit-margin-left="0"
     fit-margin-right="0"
     fit-margin-bottom="0"
     inkscape:zoom="0.5"
     inkscape:cx="639"
     inkscape:cy="375"
     inkscape:window-width="1920"
     inkscape:window-height="1001"
     inkscape:window-x="-9"
     inkscape:window-y="-9"
     inkscape:window-maximized="1"
     inkscape:current-layer="layer1"
     inkscape:snap-bbox="true"
     inkscape:snap-global="true"
     inkscape:bbox-paths="true"
     inkscape:object-paths="false"
     inkscape:snap-intersection-paths="false"
     inkscape:object-nodes="false"
     inkscape:snap-smooth-nodes="false"
     inkscape:snap-midpoints="false"
     inkscape:snap-object-midpoints="false"
     inkscape:snap-page="true"
     inkscape:bbox-nodes="true"
     inkscape:snap-bbox-edge-midpoints="true"
     inkscape:snap-bbox-midpoints="true" />
  <defs
     id="defs1128" />
  <g
     inkscape:label="Camada 1"
     inkscape:groupmode="layer"
     id="layer1"
     transform="translate(-722.81113,-105.92288)">
    <path
       d="m 842.2866,302.18214 c -11.39752,-3.89178 -22.07609,-18.94728 -27.5242,-38.80572 -2.75343,-10.03639 -3.09015,-14.04353 -2.22027,-26.4216 3.13441,-44.60031 18.65129,-69.74239 43.04279,-69.74239 9.56176,0 16.06403,2.66206 23.9878,9.82069 16.07937,14.52672 20.93337,34.59561 16.88427,69.80812 -2.4236,21.07646 -13.80354,41.77571 -28.682,52.17023 -8.84756,6.18115 -14.58252,6.89456 -25.48839,3.17067 z m 18.1204,-24.96379 c 7.55313,-8.08561 13.22693,-21.18422 15.0527,-34.75089 3.36216,-24.98281 -1.02219,-43.1389 -12.24341,-50.70129 -6.69856,-4.51438 -8.18687,-4.30513 -10.74676,1.51099 -1.18883,2.70089 -3.9887,5.77739 -6.22205,6.83659 -7.30608,3.46506 -13.36793,26.48287 -12.43615,47.22205 0.43631,9.7095 4.29966,20.97766 9.79191,28.55952 5.63805,7.78311 10.41764,8.15945 16.80376,1.32303 z M 808.37366,153.63736 c -8.09584,-6.36824 -6.70427,-14.14718 4.44682,-24.85837 18.51462,-17.78408 35.91277,-18.90992 44.89059,-2.90483 5.56393,9.91897 12.34963,8.8475 25.80723,-4.07516 10.17379,-9.76934 16.13689,-11.53948 20.95159,-6.21936 4.3311,4.78588 3.1003,11.20272 -3.7683,19.64646 -8.0564,9.90378 -15.65192,14.85705 -27.57986,17.98551 -8.19755,2.15009 -10.51165,2.22895 -16.11732,0.54939 -6.27247,-1.87933 -13.90253,-8.23558 -17.42276,-14.51422 -1.60824,-2.86845 -1.83656,-2.82705 -7.27107,1.31807 -3.08587,2.35373 -6.20549,5.84393 -6.93248,7.75604 -1.52046,3.99909 -7.0797,8.3145 -10.71095,8.3145 -1.36513,0 -4.1972,-1.34913 -6.29349,-2.99809 z"
       style="fill:#000000;stroke-width:1.511"
       id="path1064" />
  </g>
</svg>
