<?xml version="1.0" encoding="UTF-8" standalone="no"?>
<!-- Created with Inkscape (http://www.inkscape.org/) -->

<svg
   width="1000"
   height="1000"
   viewBox="0 0 264.58333 264.58333"
   version="1.1"
   id="svg1131"
   sodipodi:docname="Ú.svg"
   inkscape:version="1.1.1 (3bf5ae0d25, 2021-09-20)"
   xmlns:inkscape="http://www.inkscape.org/namespaces/inkscape"
   xmlns:sodipodi="http://sodipodi.sourceforge.net/DTD/sodipodi-0.dtd"
   xmlns="http://www.w3.org/2000/svg"
   xmlns:svg="http://www.w3.org/2000/svg">
  <sodipodi:namedview
     id="namedview1133"
     pagecolor="#ffffff"
     bordercolor="#666666"
     borderopacity="1.0"
     inkscape:pageshadow="2"
     inkscape:pageopacity="0.0"
     inkscape:pagecheckerboard="0"
     inkscape:document-units="mm"
     showgrid="false"
     units="px"
     fit-margin-top="0"
     fit-margin-left="0"
     fit-margin-right="0"
     fit-margin-bottom="0"
     inkscape:zoom="0.35355339"
     inkscape:cx="739.63369"
     inkscape:cy="383.25188"
     inkscape:window-width="1920"
     inkscape:window-height="1001"
     inkscape:window-x="-9"
     inkscape:window-y="-9"
     inkscape:window-maximized="1"
     inkscape:current-layer="layer1"
     inkscape:snap-bbox="true"
     inkscape:snap-global="true"
     inkscape:bbox-paths="true"
     inkscape:object-paths="false"
     inkscape:snap-intersection-paths="false"
     inkscape:object-nodes="false"
     inkscape:snap-smooth-nodes="false"
     inkscape:snap-midpoints="false"
     inkscape:snap-object-midpoints="false"
     inkscape:snap-page="true"
     inkscape:bbox-nodes="true"
     inkscape:snap-bbox-edge-midpoints="true"
     inkscape:snap-bbox-midpoints="true" />
  <defs
     id="defs1128" />
  <g
     inkscape:label="Camada 1"
     inkscape:groupmode="layer"
     id="layer1"
     transform="translate(-722.81113,-105.92288)">
    <path
       d="m 844.54908,303.51446 c -14.1694,-3.54775 -26.6304,-28.80508 -28.5107,-57.78837 -0.939,-14.47496 1.9881,-60.62905 4.0986,-64.62261 2.137,-4.04422 9.4401,-6.32829 13.504,-4.2236 9.2171,4.77342 10.2544,7.94871 6.29,19.25057 -3.6915,10.52493 -3.7201,54.28291 -0.056,66.12386 5.8251,18.75601 12.1235,25.26834 17.7874,18.39141 4.8068,-5.83609 9.5564,-17.68165 12.1409,-30.27881 3.2781,-15.97598 4.6967,-53.19849 2.379,-62.40436 -1.4928,-5.92663 -1.408,-7.57069 0.5447,-10.54745 5.0675,-7.73412 14.5649,-6.2705 18.7225,2.88522 5.2971,11.66674 2.9501,64.34636 -3.883,87.15478 -3.6847,12.29816 -10.7386,24.56678 -17.9429,31.20761 -5.907,5.44498 -7.0982,5.92623 -14.279,5.76825 -4.3092,-0.0949 -9.1717,-0.50714 -10.8065,-0.9165 z m -3.8476,-145.82668 c -5.8649,-4.74909 -4.6243,-11.28619 5.2331,-27.57903 10.7908,-17.83581 15.4516,-20.73665 23.2153,-14.44997 5.2769,4.27318 4.3492,10.26911 -3.5505,22.94349 -3.8139,6.11909 -6.9342,11.77289 -6.9342,12.56397 0,2.9748 -7.42,9.30191 -10.9087,9.30191 -1.992,0 -5.1663,-1.25116 -7.055,-2.78037 z"
       style="fill:#000000;stroke-width:1.48593"
       id="path1076" />
  </g>
</svg>
