<?xml version="1.0" encoding="UTF-8" standalone="no"?>
<!-- Created with Inkscape (http://www.inkscape.org/) -->

<svg
   width="1000"
   height="1000"
   viewBox="0 0 264.58333 264.58333"
   version="1.1"
   id="svg1131"
   sodipodi:docname="úl.svg"
   inkscape:version="1.1.1 (3bf5ae0d25, 2021-09-20)"
   xmlns:inkscape="http://www.inkscape.org/namespaces/inkscape"
   xmlns:sodipodi="http://sodipodi.sourceforge.net/DTD/sodipodi-0.dtd"
   xmlns="http://www.w3.org/2000/svg"
   xmlns:svg="http://www.w3.org/2000/svg">
  <sodipodi:namedview
     id="namedview1133"
     pagecolor="#ffffff"
     bordercolor="#666666"
     borderopacity="1.0"
     inkscape:pageshadow="2"
     inkscape:pageopacity="0.0"
     inkscape:pagecheckerboard="0"
     inkscape:document-units="mm"
     showgrid="false"
     units="px"
     fit-margin-top="0"
     fit-margin-left="0"
     fit-margin-right="0"
     fit-margin-bottom="0"
     inkscape:zoom="0.35355339"
     inkscape:cx="545.88643"
     inkscape:cy="278.60007"
     inkscape:window-width="1920"
     inkscape:window-height="1017"
     inkscape:window-x="-8"
     inkscape:window-y="-8"
     inkscape:window-maximized="1"
     inkscape:current-layer="layer1"
     inkscape:snap-bbox="true"
     inkscape:snap-global="true"
     inkscape:bbox-paths="true"
     inkscape:object-paths="false"
     inkscape:snap-intersection-paths="false"
     inkscape:object-nodes="false"
     inkscape:snap-smooth-nodes="false"
     inkscape:snap-midpoints="false"
     inkscape:snap-object-midpoints="false"
     inkscape:snap-page="true"
     inkscape:bbox-nodes="true"
     inkscape:snap-bbox-edge-midpoints="true"
     inkscape:snap-bbox-midpoints="true" />
  <defs
     id="defs1128" />
  <g
     inkscape:label="Camada 1"
     inkscape:groupmode="layer"
     id="layer1"
     transform="translate(-722.81113,-105.92288)">
    <path
       d="m 864.19595,301.4193 c -1.9108,-1.60782 -3.79393,-3.9307 -4.18474,-5.16196 -0.68397,-2.15489 -0.86808,-2.13153 -4.92478,0.62507 -9.35956,6.35996 -18.59003,1.83671 -23.4693,-11.50068 -2.12926,-5.82035 -2.52397,-9.31243 -2.53262,-22.40829 -0.0174,-24.62959 3.24682,-34.47433 11.42655,-34.47433 6.94068,0 10.67012,8.74451 6.86646,16.10002 -2.44563,4.72938 -3.14072,30.16143 -0.9262,33.88774 2.3972,4.03381 5.43164,-4.98298 5.60745,-16.6626 0.45439,-30.18254 0.29143,-28.62858 3.31666,-31.65367 1.55136,-1.55136 4.16051,-2.82067 5.79803,-2.82067 1.63753,0 4.24667,1.26931 5.79799,2.82067 2.78222,2.78222 2.82083,3.09893 2.83425,23.27016 0.0174,24.57026 1.31326,30.98464 7.39017,36.55087 4.67691,4.2839 5.08943,7.02178 1.70589,11.32317 -3.26102,4.14578 -9.84748,4.19256 -14.70581,0.10424 z m -20.27312,-95.91791 c -1.1513,-1.27221 -2.09326,-3.78685 -2.09326,-5.58803 0,-3.33959 9.09905,-20.44928 13.36788,-25.13675 4.86397,-5.34104 13.89762,-1.93977 13.77388,5.18598 -0.0473,2.69845 -7.71339,16.99351 -13.55038,25.26635 -2.37653,3.36843 -8.56353,3.51506 -11.49812,0.27232 z"
       style="fill:#000000;stroke-width:1.14914"
       id="path952" />
  </g>
</svg>
